<ttFont>
    <TTGlyph name="A" xMin="-27" yMin="0" xMax="604" yMax="713">
      <contour>
        <pt x="334" y="245" on="0"/>
        <pt x="188" y="245" on="0"/>
        <pt x="150" y="244" on="1"/>
        <pt x="122" y="132" on="0"/>
        <pt x="109" y="59" on="0"/>
        <pt x="109" y="17" on="1"/>
        <pt x="109" y="0" on="1"/>
        <pt x="-27" y="0" on="1"/>
        <pt x="-27" y="10" on="1"/>
        <pt x="18" y="45" on="0"/>
        <pt x="169" y="530" on="0"/>
        <pt x="214" y="680" on="0"/>
        <pt x="216" y="701" on="1"/>
        <pt x="333" y="713" on="1"/>
        <pt x="333" y="678" on="0"/>
        <pt x="459" y="311" on="0"/>
        <pt x="536" y="111" on="0"/>
        <pt x="578" y="33" on="0"/>
        <pt x="604" y="10" on="1"/>
        <pt x="604" y="0" on="1"/>
        <pt x="436" y="0" on="1"/>
        <pt x="436" y="17" on="1"/>
        <pt x="436" y="53" on="0"/>
        <pt x="417" y="115" on="0"/>
        <pt x="414" y="124" on="1"/>
        <pt x="374" y="244" on="1"/>
      </contour>
      <contour>
        <pt x="258" y="626" on="1"/>
        <pt x="238" y="573" on="0"/>
        <pt x="162" y="301" on="1"/>
        <pt x="357" y="301" on="1"/>
        <pt x="339" y="356" on="0"/>
        <pt x="269" y="592" on="0"/>
      </contour>
    </TTGlyph>
    <TTGlyph name="AE" xMin="-10" yMin="0" xMax="837" yMax="703">
      <contour>
        <pt x="772" y="628" on="1"/>
        <pt x="713" y="643" on="0"/>
        <pt x="546" y="643" on="0"/>
        <pt x="523" y="641" on="1"/>
        <pt x="521" y="603" on="0"/>
        <pt x="521" y="375" on="1"/>
        <pt x="759" y="380" on="1"/>
        <pt x="730" y="311" on="1"/>
        <pt x="723" y="311" on="1"/>
        <pt x="655" y="319" on="0"/>
        <pt x="575" y="319" on="0"/>
        <pt x="521" y="316" on="1"/>
        <pt x="521" y="93" on="0"/>
        <pt x="525" y="63" on="1"/>
        <pt x="548" y="60" on="0"/>
        <pt x="601" y="60" on="1"/>
        <pt x="758" y="60" on="0"/>
        <pt x="830" y="92" on="1"/>
        <pt x="837" y="92" on="1"/>
        <pt x="819" y="0" on="1"/>
        <pt x="400" y="0" on="1"/>
        <pt x="400" y="7" on="1"/>
        <pt x="416" y="69" on="0"/>
        <pt x="416" y="210" on="1"/>
        <pt x="416" y="272" on="1"/>
        <pt x="338" y="272" on="1"/>
        <pt x="282" y="272" on="0"/>
        <pt x="240" y="271" on="1"/>
        <pt x="215" y="229" on="0"/>
        <pt x="119" y="29" on="0"/>
        <pt x="119" y="0" on="1"/>
        <pt x="-10" y="0" on="1"/>
        <pt x="-10" y="10" on="1"/>
        <pt x="13" y="25" on="0"/>
        <pt x="58" y="93" on="1"/>
        <pt x="70" y="111" on="0"/>
        <pt x="100" y="163" on="0"/>
        <pt x="123" y="201" on="0"/>
        <pt x="154" y="258" on="0"/>
        <pt x="162" y="273" on="1"/>
        <pt x="194" y="333" on="0"/>
        <pt x="246" y="430" on="1"/>
        <pt x="369" y="656" on="0"/>
        <pt x="375" y="700" on="1"/>
        <pt x="400" y="700" on="1"/>
        <pt x="804" y="703" on="1"/>
        <pt x="779" y="628" on="1"/>
      </contour>
      <contour>
        <pt x="416" y="490" on="1"/>
        <pt x="416" y="530" on="0"/>
        <pt x="412" y="600" on="1"/>
        <pt x="406" y="600" on="1"/>
        <pt x="268" y="330" on="1"/>
        <pt x="416" y="330" on="1"/>
      </contour>
    </TTGlyph>
    <TTGlyph name="Aacute" xMin="-27" yMin="0" xMax="593" yMax="887">
      <contour>
        <pt x="364" y="244" on="1"/>
        <pt x="326" y="245" on="0"/>
        <pt x="185" y="245" on="0"/>
        <pt x="148" y="244" on="1"/>
        <pt x="121" y="129" on="0"/>
        <pt x="109" y="59" on="0"/>
        <pt x="109" y="17" on="1"/>
        <pt x="109" y="0" on="1"/>
        <pt x="-27" y="0" on="1"/>
        <pt x="-27" y="10" on="1"/>
        <pt x="16" y="43" on="0"/>
        <pt x="89" y="280" on="1"/>
        <pt x="208" y="664" on="0"/>
        <pt x="211" y="701" on="1"/>
        <pt x="327" y="713" on="1"/>
        <pt x="327" y="679" on="0"/>
        <pt x="449" y="318" on="0"/>
        <pt x="527" y="110" on="0"/>
        <pt x="568" y="32" on="0"/>
        <pt x="593" y="10" on="1"/>
        <pt x="593" y="0" on="1"/>
        <pt x="425" y="0" on="1"/>
        <pt x="425" y="17" on="1"/>
        <pt x="425" y="60" on="0"/>
        <pt x="404" y="124" on="1"/>
        <pt x="400" y="135" on="0"/>
        <pt x="383" y="187" on="0"/>
        <pt x="370" y="221" on="0"/>
      </contour>
      <contour>
        <pt x="162" y="301" on="1"/>
        <pt x="346" y="301" on="1"/>
        <pt x="329" y="358" on="0"/>
        <pt x="260" y="602" on="0"/>
        <pt x="253" y="626" on="1"/>
        <pt x="239" y="592" on="0"/>
        <pt x="162" y="302" on="0"/>
      </contour>
      <contour>
        <pt x="214" y="751" on="1"/>
        <pt x="204" y="784" on="1"/>
        <pt x="319" y="821" on="0"/>
        <pt x="406" y="887" on="1"/>
        <pt x="437" y="852" on="0"/>
        <pt x="443" y="806" on="1"/>
        <pt x="328" y="760" on="0"/>
      </contour>
    </TTGlyph>
    <TTGlyph name="Acircumflex" xMin="-27" yMin="0" xMax="593" yMax="903">
      <contour>
        <pt x="225" y="903" on="1"/>
        <pt x="305" y="903" on="1"/>
        <pt x="331" y="850" on="0"/>
        <pt x="380" y="805" on="1"/>
        <pt x="397" y="789" on="0"/>
        <pt x="430" y="761" on="1"/>
        <pt x="402" y="730" on="1"/>
        <pt x="331" y="771" on="0"/>
        <pt x="262" y="845" on="1"/>
        <pt x="196" y="779" on="0"/>
        <pt x="134" y="735" on="1"/>
        <pt x="105" y="765" on="1"/>
        <pt x="192" y="841" on="0"/>
      </contour>
      <contour>
        <pt x="364" y="244" on="1"/>
        <pt x="326" y="245" on="0"/>
        <pt x="185" y="245" on="0"/>
        <pt x="148" y="244" on="1"/>
        <pt x="121" y="129" on="0"/>
        <pt x="109" y="59" on="0"/>
        <pt x="109" y="17" on="1"/>
        <pt x="109" y="0" on="1"/>
        <pt x="-27" y="0" on="1"/>
        <pt x="-27" y="10" on="1"/>
        <pt x="16" y="43" on="0"/>
        <pt x="89" y="280" on="1"/>
        <pt x="208" y="664" on="0"/>
        <pt x="211" y="701" on="1"/>
        <pt x="327" y="713" on="1"/>
        <pt x="327" y="679" on="0"/>
        <pt x="449" y="318" on="0"/>
        <pt x="527" y="110" on="0"/>
        <pt x="568" y="32" on="0"/>
        <pt x="593" y="10" on="1"/>
        <pt x="593" y="0" on="1"/>
        <pt x="425" y="0" on="1"/>
        <pt x="425" y="17" on="1"/>
        <pt x="425" y="60" on="0"/>
        <pt x="404" y="124" on="1"/>
        <pt x="400" y="135" on="0"/>
        <pt x="383" y="187" on="0"/>
        <pt x="370" y="221" on="0"/>
      </contour>
      <contour>
        <pt x="162" y="301" on="1"/>
        <pt x="346" y="301" on="1"/>
        <pt x="329" y="358" on="0"/>
        <pt x="260" y="602" on="0"/>
        <pt x="253" y="626" on="1"/>
        <pt x="239" y="592" on="0"/>
        <pt x="162" y="302" on="0"/>
      </contour>
    </TTGlyph>
    <TTGlyph name="Adieresis" xMin="-18" yMin="0" xMax="602" yMax="859">
      <contour>
        <pt x="373" y="244" on="1"/>
        <pt x="335" y="245" on="0"/>
        <pt x="194" y="245" on="0"/>
        <pt x="157" y="244" on="1"/>
        <pt x="130" y="129" on="0"/>
        <pt x="118" y="59" on="0"/>
        <pt x="118" y="17" on="1"/>
        <pt x="118" y="0" on="1"/>
        <pt x="-18" y="0" on="1"/>
        <pt x="-18" y="10" on="1"/>
        <pt x="25" y="43" on="0"/>
        <pt x="98" y="280" on="1"/>
        <pt x="217" y="664" on="0"/>
        <pt x="220" y="701" on="1"/>
        <pt x="336" y="713" on="1"/>
        <pt x="336" y="679" on="0"/>
        <pt x="458" y="318" on="0"/>
        <pt x="536" y="110" on="0"/>
        <pt x="577" y="32" on="0"/>
        <pt x="602" y="10" on="1"/>
        <pt x="602" y="0" on="1"/>
        <pt x="434" y="0" on="1"/>
        <pt x="434" y="17" on="1"/>
        <pt x="434" y="60" on="0"/>
        <pt x="412" y="124" on="1"/>
        <pt x="409" y="135" on="0"/>
        <pt x="392" y="187" on="0"/>
        <pt x="379" y="221" on="0"/>
      </contour>
      <contour>
        <pt x="171" y="301" on="1"/>
        <pt x="355" y="301" on="1"/>
        <pt x="338" y="358" on="0"/>
        <pt x="269" y="602" on="0"/>
        <pt x="262" y="626" on="1"/>
        <pt x="248" y="592" on="0"/>
        <pt x="171" y="302" on="0"/>
      </contour>
      <contour>
        <pt x="230" y="846" on="1"/>
        <pt x="237" y="838" on="0"/>
        <pt x="244" y="796" on="0"/>
        <pt x="244" y="774" on="0"/>
        <pt x="243" y="768" on="1"/>
        <pt x="235" y="761" on="1"/>
        <pt x="199" y="749" on="0"/>
        <pt x="163" y="746" on="1"/>
        <pt x="151" y="746" on="1"/>
        <pt x="141" y="749" on="1"/>
        <pt x="126" y="779" on="0"/>
        <pt x="126" y="827" on="1"/>
        <pt x="136" y="835" on="1"/>
        <pt x="172" y="848" on="0"/>
        <pt x="206" y="850" on="1"/>
        <pt x="222" y="850" on="1"/>
      </contour>
      <contour>
        <pt x="428" y="855" on="1"/>
        <pt x="435" y="847" on="0"/>
        <pt x="442" y="804" on="0"/>
        <pt x="442" y="783" on="0"/>
        <pt x="441" y="777" on="1"/>
        <pt x="433" y="770" on="1"/>
        <pt x="397" y="758" on="0"/>
        <pt x="361" y="755" on="1"/>
        <pt x="349" y="755" on="1"/>
        <pt x="339" y="758" on="1"/>
        <pt x="324" y="788" on="0"/>
        <pt x="324" y="836" on="1"/>
        <pt x="334" y="844" on="1"/>
        <pt x="370" y="857" on="0"/>
        <pt x="404" y="859" on="1"/>
        <pt x="420" y="859" on="1"/>
      </contour>
    </TTGlyph>
    <TTGlyph name="Agrave" xMin="-27" yMin="0" xMax="593" yMax="887">
      <contour>
        <pt x="361" y="784" on="1"/>
        <pt x="351" y="751" on="1"/>
        <pt x="237" y="760" on="0"/>
        <pt x="122" y="806" on="1"/>
        <pt x="128" y="852" on="0"/>
        <pt x="159" y="887" on="1"/>
        <pt x="246" y="821" on="0"/>
      </contour>
      <contour>
        <pt x="364" y="244" on="1"/>
        <pt x="326" y="245" on="0"/>
        <pt x="185" y="245" on="0"/>
        <pt x="148" y="244" on="1"/>
        <pt x="121" y="129" on="0"/>
        <pt x="109" y="59" on="0"/>
        <pt x="109" y="17" on="1"/>
        <pt x="109" y="0" on="1"/>
        <pt x="-27" y="0" on="1"/>
        <pt x="-27" y="10" on="1"/>
        <pt x="16" y="43" on="0"/>
        <pt x="89" y="280" on="1"/>
        <pt x="208" y="664" on="0"/>
        <pt x="211" y="701" on="1"/>
        <pt x="327" y="713" on="1"/>
        <pt x="327" y="679" on="0"/>
        <pt x="449" y="318" on="0"/>
        <pt x="527" y="110" on="0"/>
        <pt x="568" y="32" on="0"/>
        <pt x="593" y="10" on="1"/>
        <pt x="593" y="0" on="1"/>
        <pt x="425" y="0" on="1"/>
        <pt x="425" y="17" on="1"/>
        <pt x="425" y="60" on="0"/>
        <pt x="404" y="124" on="1"/>
        <pt x="400" y="135" on="0"/>
        <pt x="383" y="187" on="0"/>
        <pt x="370" y="221" on="0"/>
      </contour>
      <contour>
        <pt x="162" y="301" on="1"/>
        <pt x="346" y="301" on="1"/>
        <pt x="329" y="358" on="0"/>
        <pt x="260" y="602" on="0"/>
        <pt x="253" y="626" on="1"/>
        <pt x="239" y="592" on="0"/>
        <pt x="162" y="302" on="0"/>
      </contour>
    </TTGlyph>
    <TTGlyph name="Aring" xMin="-18" yMin="0" xMax="602" yMax="896">
      <contour>
        <pt x="373" y="244" on="1"/>
        <pt x="335" y="245" on="0"/>
        <pt x="194" y="245" on="0"/>
        <pt x="157" y="244" on="1"/>
        <pt x="130" y="129" on="0"/>
        <pt x="118" y="59" on="0"/>
        <pt x="118" y="17" on="1"/>
        <pt x="118" y="0" on="1"/>
        <pt x="-18" y="0" on="1"/>
        <pt x="-18" y="10" on="1"/>
        <pt x="25" y="43" on="0"/>
        <pt x="98" y="280" on="1"/>
        <pt x="217" y="664" on="0"/>
        <pt x="220" y="701" on="1"/>
        <pt x="234" y="702" on="1"/>
        <pt x="208" y="713" on="0"/>
        <pt x="171" y="762" on="0"/>
        <pt x="171" y="790" on="1"/>
        <pt x="171" y="835" on="0"/>
        <pt x="231" y="895" on="0"/>
        <pt x="273" y="895" on="1"/>
        <pt x="316" y="895" on="0"/>
        <pt x="370" y="839" on="0"/>
        <pt x="370" y="801" on="1"/>
        <pt x="370" y="741" on="0"/>
        <pt x="320" y="711" on="1"/>
        <pt x="336" y="713" on="1"/>
        <pt x="336" y="679" on="0"/>
        <pt x="458" y="318" on="0"/>
        <pt x="536" y="110" on="0"/>
        <pt x="577" y="32" on="0"/>
        <pt x="602" y="10" on="1"/>
        <pt x="602" y="0" on="1"/>
        <pt x="434" y="0" on="1"/>
        <pt x="434" y="17" on="1"/>
        <pt x="434" y="60" on="0"/>
        <pt x="412" y="124" on="1"/>
        <pt x="409" y="135" on="0"/>
        <pt x="392" y="187" on="0"/>
        <pt x="379" y="221" on="0"/>
      </contour>
      <contour>
        <pt x="171" y="301" on="1"/>
        <pt x="355" y="301" on="1"/>
        <pt x="338" y="358" on="0"/>
        <pt x="269" y="602" on="0"/>
        <pt x="262" y="626" on="1"/>
        <pt x="248" y="592" on="0"/>
        <pt x="171" y="302" on="0"/>
      </contour>
      <contour>
        <pt x="264" y="852" on="1"/>
        <pt x="215" y="852" on="0"/>
        <pt x="215" y="804" on="1"/>
        <pt x="215" y="774" on="0"/>
        <pt x="247" y="743" on="0"/>
        <pt x="298" y="743" on="0"/>
        <pt x="312" y="752" on="1"/>
        <pt x="325" y="765" on="0"/>
        <pt x="325" y="820" on="0"/>
        <pt x="294" y="852" on="0"/>
      </contour>
    </TTGlyph>
    <TTGlyph name="Atilde" xMin="-27" yMin="0" xMax="593" yMax="904">
      <contour>
        <pt x="353" y="781" on="1"/>
        <pt x="329" y="781" on="0"/>
        <pt x="228" y="829" on="0"/>
        <pt x="179" y="829" on="0"/>
        <pt x="143" y="812" on="0"/>
        <pt x="116" y="791" on="1"/>
        <pt x="96" y="809" on="1"/>
        <pt x="120" y="839" on="0"/>
        <pt x="193" y="904" on="0"/>
        <pt x="238" y="904" on="0"/>
        <pt x="335" y="861" on="0"/>
        <pt x="356" y="861" on="1"/>
        <pt x="395" y="861" on="0"/>
        <pt x="448" y="898" on="1"/>
        <pt x="467" y="881" on="1"/>
        <pt x="390" y="781" on="0"/>
      </contour>
      <contour>
        <pt x="364" y="244" on="1"/>
        <pt x="326" y="245" on="0"/>
        <pt x="185" y="245" on="0"/>
        <pt x="148" y="244" on="1"/>
        <pt x="121" y="129" on="0"/>
        <pt x="109" y="59" on="0"/>
        <pt x="109" y="17" on="1"/>
        <pt x="109" y="0" on="1"/>
        <pt x="-27" y="0" on="1"/>
        <pt x="-27" y="10" on="1"/>
        <pt x="16" y="43" on="0"/>
        <pt x="89" y="280" on="1"/>
        <pt x="208" y="664" on="0"/>
        <pt x="211" y="701" on="1"/>
        <pt x="327" y="713" on="1"/>
        <pt x="327" y="679" on="0"/>
        <pt x="449" y="318" on="0"/>
        <pt x="527" y="110" on="0"/>
        <pt x="568" y="32" on="0"/>
        <pt x="593" y="10" on="1"/>
        <pt x="593" y="0" on="1"/>
        <pt x="425" y="0" on="1"/>
        <pt x="425" y="17" on="1"/>
        <pt x="425" y="60" on="0"/>
        <pt x="404" y="124" on="1"/>
        <pt x="400" y="135" on="0"/>
        <pt x="383" y="187" on="0"/>
        <pt x="370" y="221" on="0"/>
      </contour>
      <contour>
        <pt x="162" y="301" on="1"/>
        <pt x="346" y="301" on="1"/>
        <pt x="329" y="358" on="0"/>
        <pt x="260" y="602" on="0"/>
        <pt x="253" y="626" on="1"/>
        <pt x="239" y="592" on="0"/>
        <pt x="162" y="302" on="0"/>
      </contour>
    </TTGlyph>
    <TTGlyph name="B" xMin="108" yMin="-2" xMax="593" yMax="700">
      <contour>
        <pt x="306" y="52" on="1"/>
        <pt x="384" y="52" on="0"/>
        <pt x="480" y="139" on="0"/>
        <pt x="480" y="283" on="0"/>
        <pt x="387" y="357" on="0"/>
        <pt x="279" y="359" on="1"/>
        <pt x="230" y="360" on="1"/>
        <pt x="230" y="110" on="0"/>
        <pt x="234" y="61" on="1"/>
        <pt x="264" y="52" on="0"/>
      </contour>
      <contour>
        <pt x="230" y="411" on="1"/>
        <pt x="309" y="411" on="1"/>
        <pt x="445" y="411" on="0"/>
        <pt x="445" y="532" on="1"/>
        <pt x="445" y="595" on="0"/>
        <pt x="378" y="652" on="0"/>
        <pt x="263" y="652" on="0"/>
        <pt x="232" y="649" on="1"/>
        <pt x="230" y="634" on="0"/>
      </contour>
      <contour>
        <pt x="170" y="698" on="1"/>
        <pt x="332" y="700" on="1"/>
        <pt x="546" y="700" on="0"/>
        <pt x="546" y="560" on="1"/>
        <pt x="546" y="504" on="0"/>
        <pt x="490" y="425" on="0"/>
        <pt x="449" y="403" on="1"/>
        <pt x="492" y="395" on="0"/>
        <pt x="536" y="360" on="1"/>
        <pt x="562" y="341" on="0"/>
        <pt x="593" y="267" on="0"/>
        <pt x="593" y="218" on="1"/>
        <pt x="593" y="143" on="0"/>
        <pt x="521" y="43" on="0"/>
        <pt x="406" y="-2" on="0"/>
        <pt x="320" y="-2" on="1"/>
        <pt x="201" y="3" on="1"/>
        <pt x="108" y="0" on="1"/>
        <pt x="108" y="7" on="1"/>
        <pt x="127" y="58" on="0"/>
        <pt x="127" y="150" on="1"/>
        <pt x="127" y="540" on="1"/>
        <pt x="127" y="640" on="0"/>
        <pt x="111" y="693" on="1"/>
        <pt x="111" y="700" on="1"/>
      </contour>
    </TTGlyph>
    <TTGlyph name="C" xMin="49" yMin="-13" xMax="630" yMax="712">
      <contour>
        <pt x="162" y="375" on="1"/>
        <pt x="162" y="231" on="0"/>
        <pt x="301" y="71" on="0"/>
        <pt x="404" y="71" on="1"/>
        <pt x="479" y="71" on="0"/>
        <pt x="603" y="139" on="1"/>
        <pt x="630" y="98" on="1"/>
        <pt x="584" y="64" on="0"/>
        <pt x="533" y="34" on="0"/>
        <pt x="501" y="18" on="1"/>
        <pt x="436" y="-13" on="0"/>
        <pt x="362" y="-13" on="1"/>
        <pt x="232" y="-13" on="0"/>
        <pt x="49" y="181" on="0"/>
        <pt x="49" y="507" on="0"/>
        <pt x="261" y="712" on="0"/>
        <pt x="418" y="712" on="1"/>
        <pt x="523" y="712" on="0"/>
        <pt x="615" y="664" on="1"/>
        <pt x="603" y="601" on="0"/>
        <pt x="573" y="558" on="1"/>
        <pt x="470" y="641" on="0"/>
        <pt x="350" y="641" on="1"/>
        <pt x="314" y="641" on="0"/>
        <pt x="280" y="634" on="1"/>
        <pt x="229" y="596" on="0"/>
        <pt x="162" y="466" on="0"/>
      </contour>
    </TTGlyph>
    <TTGlyph name="Ccedilla" xMin="49" yMin="-221" xMax="630" yMax="712">
      <contour>
        <pt x="49" y="336" on="1"/>
        <pt x="49" y="509" on="0"/>
        <pt x="260" y="712" on="0"/>
        <pt x="432" y="712" on="1"/>
        <pt x="465" y="712" on="0"/>
        <pt x="570" y="688" on="0"/>
        <pt x="615" y="664" on="1"/>
        <pt x="603" y="601" on="0"/>
        <pt x="573" y="558" on="1"/>
        <pt x="471" y="641" on="0"/>
        <pt x="356" y="641" on="1"/>
        <pt x="314" y="641" on="0"/>
        <pt x="280" y="634" on="1"/>
        <pt x="162" y="544" on="0"/>
        <pt x="162" y="367" on="1"/>
        <pt x="162" y="246" on="0"/>
        <pt x="301" y="71" on="0"/>
        <pt x="415" y="71" on="1"/>
        <pt x="483" y="71" on="0"/>
        <pt x="603" y="139" on="1"/>
        <pt x="630" y="98" on="1"/>
        <pt x="525" y="22" on="0"/>
        <pt x="455" y="1" on="1"/>
        <pt x="422" y="-9" on="0"/>
        <pt x="391" y="-12" on="1"/>
        <pt x="359" y="-65" on="1"/>
        <pt x="369" y="-62" on="0"/>
        <pt x="423" y="-63" on="0"/>
        <pt x="470" y="-100" on="0"/>
        <pt x="470" y="-175" on="0"/>
        <pt x="406" y="-221" on="0"/>
        <pt x="361" y="-221" on="1"/>
        <pt x="338" y="-221" on="0"/>
        <pt x="272" y="-200" on="0"/>
        <pt x="259" y="-192" on="1"/>
        <pt x="275" y="-160" on="1"/>
        <pt x="309" y="-177" on="0"/>
        <pt x="342" y="-177" on="1"/>
        <pt x="394" y="-177" on="0"/>
        <pt x="394" y="-132" on="1"/>
        <pt x="394" y="-111" on="0"/>
        <pt x="382" y="-99" on="1"/>
        <pt x="367" y="-92" on="0"/>
        <pt x="326" y="-92" on="0"/>
        <pt x="305" y="-96" on="1"/>
        <pt x="299" y="-87" on="1"/>
        <pt x="335" y="-11" on="1"/>
        <pt x="210" y="2" on="0"/>
        <pt x="49" y="189" on="0"/>
      </contour>
    </TTGlyph>
    <TTGlyph name="D" xMin="108" yMin="0" xMax="705" yMax="702">
      <contour>
        <pt x="166" y="698" on="1"/>
        <pt x="351" y="701" on="0"/>
        <pt x="354" y="701" on="1"/>
        <pt x="531" y="701" on="0"/>
        <pt x="705" y="540" on="0"/>
        <pt x="705" y="373" on="1"/>
        <pt x="705" y="268" on="0"/>
        <pt x="672" y="186" on="1"/>
        <pt x="597" y="0" on="0"/>
        <pt x="357" y="0" on="1"/>
        <pt x="167" y="1" on="1"/>
        <pt x="108" y="1" on="1"/>
        <pt x="108" y="8" on="1"/>
        <pt x="124" y="70" on="0"/>
        <pt x="124" y="211" on="1"/>
        <pt x="124" y="490" on="1"/>
        <pt x="124" y="631" on="0"/>
        <pt x="108" y="693" on="1"/>
        <pt x="108" y="700" on="1"/>
      </contour>
      <contour>
        <pt x="353" y="68" on="1"/>
        <pt x="474" y="68" on="0"/>
        <pt x="526" y="99" on="1"/>
        <pt x="592" y="174" on="0"/>
        <pt x="592" y="513" on="0"/>
        <pt x="471" y="641" on="0"/>
        <pt x="328" y="641" on="1"/>
        <pt x="325" y="641" on="0"/>
        <pt x="229" y="640" on="1"/>
        <pt x="227" y="602" on="0"/>
        <pt x="227" y="394" on="1"/>
        <pt x="227" y="334" on="1"/>
        <pt x="227" y="104" on="0"/>
        <pt x="231" y="74" on="1"/>
        <pt x="291" y="68" on="0"/>
      </contour>
    </TTGlyph>
    <TTGlyph name="E" xMin="108" yMin="0" xMax="545" yMax="703">
      <contour>
        <pt x="480" y="628" on="1"/>
        <pt x="421" y="643" on="0"/>
        <pt x="254" y="643" on="0"/>
        <pt x="231" y="641" on="1"/>
        <pt x="229" y="603" on="0"/>
        <pt x="229" y="395" on="1"/>
        <pt x="467" y="400" on="1"/>
        <pt x="438" y="331" on="1"/>
        <pt x="431" y="331" on="1"/>
        <pt x="363" y="339" on="0"/>
        <pt x="283" y="339" on="0"/>
        <pt x="229" y="336" on="1"/>
        <pt x="229" y="93" on="0"/>
        <pt x="233" y="63" on="1"/>
        <pt x="256" y="60" on="0"/>
        <pt x="309" y="60" on="1"/>
        <pt x="466" y="60" on="0"/>
        <pt x="538" y="92" on="1"/>
        <pt x="545" y="92" on="1"/>
        <pt x="527" y="0" on="1"/>
        <pt x="108" y="0" on="1"/>
        <pt x="108" y="7" on="1"/>
        <pt x="124" y="69" on="0"/>
        <pt x="124" y="210" on="1"/>
        <pt x="124" y="490" on="1"/>
        <pt x="124" y="631" on="0"/>
        <pt x="108" y="693" on="1"/>
        <pt x="108" y="700" on="1"/>
        <pt x="512" y="703" on="1"/>
        <pt x="487" y="628" on="1"/>
      </contour>
    </TTGlyph>
    <TTGlyph name="Eacute" xMin="108" yMin="0" xMax="545" yMax="887">
      <contour>
        <pt x="480" y="628" on="1"/>
        <pt x="421" y="643" on="0"/>
        <pt x="254" y="643" on="0"/>
        <pt x="231" y="641" on="1"/>
        <pt x="229" y="603" on="0"/>
        <pt x="229" y="395" on="1"/>
        <pt x="467" y="400" on="1"/>
        <pt x="438" y="331" on="1"/>
        <pt x="431" y="331" on="1"/>
        <pt x="363" y="339" on="0"/>
        <pt x="283" y="339" on="0"/>
        <pt x="229" y="336" on="1"/>
        <pt x="229" y="93" on="0"/>
        <pt x="233" y="63" on="1"/>
        <pt x="256" y="60" on="0"/>
        <pt x="309" y="60" on="1"/>
        <pt x="466" y="60" on="0"/>
        <pt x="538" y="92" on="1"/>
        <pt x="545" y="92" on="1"/>
        <pt x="527" y="0" on="1"/>
        <pt x="108" y="0" on="1"/>
        <pt x="108" y="7" on="1"/>
        <pt x="124" y="69" on="0"/>
        <pt x="124" y="210" on="1"/>
        <pt x="124" y="490" on="1"/>
        <pt x="124" y="631" on="0"/>
        <pt x="108" y="693" on="1"/>
        <pt x="108" y="700" on="1"/>
        <pt x="512" y="703" on="1"/>
        <pt x="487" y="628" on="1"/>
      </contour>
      <contour>
        <pt x="248" y="751" on="1"/>
        <pt x="238" y="784" on="1"/>
        <pt x="353" y="821" on="0"/>
        <pt x="440" y="887" on="1"/>
        <pt x="471" y="852" on="0"/>
        <pt x="477" y="806" on="1"/>
        <pt x="362" y="760" on="0"/>
      </contour>
    </TTGlyph>
    <TTGlyph name="Ecircumflex" xMin="108" yMin="0" xMax="545" yMax="903">
      <contour>
        <pt x="480" y="628" on="1"/>
        <pt x="421" y="643" on="0"/>
        <pt x="254" y="643" on="0"/>
        <pt x="231" y="641" on="1"/>
        <pt x="229" y="603" on="0"/>
        <pt x="229" y="395" on="1"/>
        <pt x="467" y="400" on="1"/>
        <pt x="438" y="331" on="1"/>
        <pt x="431" y="331" on="1"/>
        <pt x="363" y="339" on="0"/>
        <pt x="283" y="339" on="0"/>
        <pt x="229" y="336" on="1"/>
        <pt x="229" y="93" on="0"/>
        <pt x="233" y="63" on="1"/>
        <pt x="256" y="60" on="0"/>
        <pt x="309" y="60" on="1"/>
        <pt x="466" y="60" on="0"/>
        <pt x="538" y="92" on="1"/>
        <pt x="545" y="92" on="1"/>
        <pt x="527" y="0" on="1"/>
        <pt x="108" y="0" on="1"/>
        <pt x="108" y="7" on="1"/>
        <pt x="124" y="69" on="0"/>
        <pt x="124" y="210" on="1"/>
        <pt x="124" y="490" on="1"/>
        <pt x="124" y="631" on="0"/>
        <pt x="108" y="693" on="1"/>
        <pt x="108" y="700" on="1"/>
        <pt x="512" y="703" on="1"/>
        <pt x="487" y="628" on="1"/>
      </contour>
      <contour>
        <pt x="292" y="903" on="1"/>
        <pt x="372" y="903" on="1"/>
        <pt x="398" y="850" on="0"/>
        <pt x="446" y="805" on="1"/>
        <pt x="464" y="789" on="0"/>
        <pt x="497" y="761" on="1"/>
        <pt x="469" y="730" on="1"/>
        <pt x="398" y="771" on="0"/>
        <pt x="329" y="845" on="1"/>
        <pt x="263" y="779" on="0"/>
        <pt x="201" y="735" on="1"/>
        <pt x="172" y="765" on="1"/>
        <pt x="259" y="841" on="0"/>
      </contour>
    </TTGlyph>
    <TTGlyph name="Edieresis" xMin="108" yMin="0" xMax="545" yMax="858">
      <contour>
        <pt x="480" y="628" on="1"/>
        <pt x="421" y="643" on="0"/>
        <pt x="254" y="643" on="0"/>
        <pt x="231" y="641" on="1"/>
        <pt x="229" y="603" on="0"/>
        <pt x="229" y="395" on="1"/>
        <pt x="467" y="400" on="1"/>
        <pt x="438" y="331" on="1"/>
        <pt x="431" y="331" on="1"/>
        <pt x="363" y="339" on="0"/>
        <pt x="283" y="339" on="0"/>
        <pt x="229" y="336" on="1"/>
        <pt x="229" y="93" on="0"/>
        <pt x="233" y="63" on="1"/>
        <pt x="256" y="60" on="0"/>
        <pt x="309" y="60" on="1"/>
        <pt x="466" y="60" on="0"/>
        <pt x="538" y="92" on="1"/>
        <pt x="545" y="92" on="1"/>
        <pt x="527" y="0" on="1"/>
        <pt x="108" y="0" on="1"/>
        <pt x="108" y="7" on="1"/>
        <pt x="124" y="69" on="0"/>
        <pt x="124" y="210" on="1"/>
        <pt x="124" y="490" on="1"/>
        <pt x="124" y="631" on="0"/>
        <pt x="108" y="693" on="1"/>
        <pt x="108" y="700" on="1"/>
        <pt x="512" y="703" on="1"/>
        <pt x="487" y="628" on="1"/>
      </contour>
      <contour>
        <pt x="474" y="854" on="1"/>
        <pt x="481" y="846" on="0"/>
        <pt x="488" y="804" on="0"/>
        <pt x="488" y="782" on="0"/>
        <pt x="487" y="776" on="1"/>
        <pt x="479" y="769" on="1"/>
        <pt x="443" y="757" on="0"/>
        <pt x="407" y="754" on="1"/>
        <pt x="395" y="754" on="1"/>
        <pt x="385" y="757" on="1"/>
        <pt x="370" y="787" on="0"/>
        <pt x="370" y="835" on="1"/>
        <pt x="380" y="843" on="1"/>
        <pt x="416" y="856" on="0"/>
        <pt x="450" y="858" on="1"/>
        <pt x="466" y="858" on="1"/>
      </contour>
      <contour>
        <pt x="276" y="845" on="1"/>
        <pt x="283" y="837" on="0"/>
        <pt x="290" y="794" on="0"/>
        <pt x="290" y="773" on="0"/>
        <pt x="289" y="767" on="1"/>
        <pt x="281" y="760" on="1"/>
        <pt x="245" y="748" on="0"/>
        <pt x="209" y="745" on="1"/>
        <pt x="197" y="745" on="1"/>
        <pt x="187" y="748" on="1"/>
        <pt x="172" y="778" on="0"/>
        <pt x="172" y="826" on="1"/>
        <pt x="182" y="834" on="1"/>
        <pt x="218" y="847" on="0"/>
        <pt x="252" y="849" on="1"/>
        <pt x="268" y="849" on="1"/>
      </contour>
    </TTGlyph>
    <TTGlyph name="Egrave" xMin="108" yMin="0" xMax="545" yMax="887">
      <contour>
        <pt x="480" y="628" on="1"/>
        <pt x="421" y="643" on="0"/>
        <pt x="254" y="643" on="0"/>
        <pt x="231" y="641" on="1"/>
        <pt x="229" y="603" on="0"/>
        <pt x="229" y="395" on="1"/>
        <pt x="467" y="400" on="1"/>
        <pt x="438" y="331" on="1"/>
        <pt x="431" y="331" on="1"/>
        <pt x="363" y="339" on="0"/>
        <pt x="283" y="339" on="0"/>
        <pt x="229" y="336" on="1"/>
        <pt x="229" y="93" on="0"/>
        <pt x="233" y="63" on="1"/>
        <pt x="256" y="60" on="0"/>
        <pt x="309" y="60" on="1"/>
        <pt x="466" y="60" on="0"/>
        <pt x="538" y="92" on="1"/>
        <pt x="545" y="92" on="1"/>
        <pt x="527" y="0" on="1"/>
        <pt x="108" y="0" on="1"/>
        <pt x="108" y="7" on="1"/>
        <pt x="124" y="69" on="0"/>
        <pt x="124" y="210" on="1"/>
        <pt x="124" y="490" on="1"/>
        <pt x="124" y="631" on="0"/>
        <pt x="108" y="693" on="1"/>
        <pt x="108" y="700" on="1"/>
        <pt x="512" y="703" on="1"/>
        <pt x="487" y="628" on="1"/>
      </contour>
      <contour>
        <pt x="407" y="784" on="1"/>
        <pt x="397" y="751" on="1"/>
        <pt x="283" y="760" on="0"/>
        <pt x="168" y="806" on="1"/>
        <pt x="174" y="852" on="0"/>
        <pt x="205" y="887" on="1"/>
        <pt x="292" y="821" on="0"/>
      </contour>
    </TTGlyph>
    <TTGlyph name="Eth" xMin="2" yMin="0" xMax="693" yMax="702">
      <contour>
        <pt x="154" y="698" on="1"/>
        <pt x="339" y="701" on="0"/>
        <pt x="342" y="701" on="1"/>
        <pt x="519" y="701" on="0"/>
        <pt x="693" y="540" on="0"/>
        <pt x="693" y="373" on="1"/>
        <pt x="693" y="268" on="0"/>
        <pt x="660" y="186" on="1"/>
        <pt x="585" y="0" on="0"/>
        <pt x="345" y="0" on="1"/>
        <pt x="155" y="1" on="1"/>
        <pt x="96" y="1" on="1"/>
        <pt x="96" y="8" on="1"/>
        <pt x="112" y="70" on="0"/>
        <pt x="112" y="211" on="1"/>
        <pt x="112" y="351" on="1"/>
        <pt x="2" y="346" on="1"/>
        <pt x="25" y="402" on="1"/>
        <pt x="32" y="402" on="1"/>
        <pt x="68" y="399" on="0"/>
        <pt x="112" y="399" on="1"/>
        <pt x="112" y="490" on="1"/>
        <pt x="112" y="631" on="0"/>
        <pt x="96" y="693" on="1"/>
        <pt x="96" y="700" on="1"/>
      </contour>
      <contour>
        <pt x="341" y="68" on="1"/>
        <pt x="462" y="68" on="0"/>
        <pt x="514" y="99" on="1"/>
        <pt x="580" y="174" on="0"/>
        <pt x="580" y="513" on="0"/>
        <pt x="459" y="641" on="0"/>
        <pt x="316" y="641" on="1"/>
        <pt x="313" y="641" on="0"/>
        <pt x="217" y="640" on="1"/>
        <pt x="215" y="603" on="0"/>
        <pt x="215" y="400" on="1"/>
        <pt x="226" y="400" on="1"/>
        <pt x="259" y="400" on="0"/>
        <pt x="375" y="404" on="1"/>
        <pt x="350" y="346" on="1"/>
        <pt x="343" y="346" on="1"/>
        <pt x="270" y="351" on="0"/>
        <pt x="215" y="352" on="1"/>
        <pt x="215" y="334" on="1"/>
        <pt x="215" y="104" on="0"/>
        <pt x="219" y="74" on="1"/>
        <pt x="279" y="68" on="0"/>
      </contour>
    </TTGlyph>
    <TTGlyph name="Euro" xMin="5" yMin="-12" xMax="620" yMax="712">
      <contour>
        <pt x="124" y="569" on="0"/>
        <pt x="315" y="712" on="0"/>
        <pt x="542" y="712" on="0"/>
        <pt x="604" y="680" on="1"/>
        <pt x="603" y="661" on="0"/>
        <pt x="574" y="598" on="0"/>
        <pt x="562" y="580" on="1"/>
        <pt x="475" y="641" on="0"/>
        <pt x="375" y="641" on="1"/>
        <pt x="323" y="641" on="0"/>
        <pt x="299" y="633" on="1"/>
        <pt x="221" y="561" on="0"/>
        <pt x="200" y="451" on="1"/>
        <pt x="395" y="451" on="1"/>
        <pt x="439" y="451" on="0"/>
        <pt x="534" y="458" on="1"/>
        <pt x="511" y="397" on="1"/>
        <pt x="194" y="397" on="1"/>
        <pt x="194" y="378" on="1"/>
        <pt x="194" y="349" on="0"/>
        <pt x="197" y="322" on="1"/>
        <pt x="391" y="322" on="1"/>
        <pt x="436" y="322" on="0"/>
        <pt x="530" y="329" on="1"/>
        <pt x="507" y="268" on="1"/>
        <pt x="207" y="268" on="1"/>
        <pt x="230" y="178" on="0"/>
        <pt x="341" y="63" on="0"/>
        <pt x="505" y="63" on="0"/>
        <pt x="595" y="116" on="1"/>
        <pt x="620" y="77" on="1"/>
        <pt x="494" y="-12" on="0"/>
        <pt x="278" y="-12" on="0"/>
        <pt x="108" y="129" on="0"/>
        <pt x="87" y="269" on="1"/>
        <pt x="5" y="269" on="1"/>
        <pt x="28" y="322" on="1"/>
        <pt x="82" y="322" on="1"/>
        <pt x="81" y="332" on="0"/>
        <pt x="81" y="370" on="0"/>
        <pt x="83" y="398" on="1"/>
        <pt x="15" y="398" on="1"/>
        <pt x="38" y="451" on="1"/>
        <pt x="93" y="451" on="1"/>
      </contour>
    </TTGlyph>
    <TTGlyph name="F" xMin="108" yMin="0" xMax="513" yMax="702">
      <contour>
        <pt x="422" y="320" on="1"/>
        <pt x="368" y="328" on="0"/>
        <pt x="263" y="328" on="0"/>
        <pt x="227" y="326" on="1"/>
        <pt x="227" y="211" on="1"/>
        <pt x="227" y="69" on="0"/>
        <pt x="243" y="7" on="1"/>
        <pt x="243" y="0" on="1"/>
        <pt x="108" y="0" on="1"/>
        <pt x="108" y="7" on="1"/>
        <pt x="124" y="69" on="0"/>
        <pt x="124" y="210" on="1"/>
        <pt x="124" y="489" on="1"/>
        <pt x="124" y="630" on="0"/>
        <pt x="108" y="692" on="1"/>
        <pt x="108" y="699" on="1"/>
        <pt x="513" y="702" on="1"/>
        <pt x="488" y="626" on="1"/>
        <pt x="481" y="626" on="1"/>
        <pt x="418" y="642" on="0"/>
        <pt x="254" y="642" on="0"/>
        <pt x="231" y="640" on="1"/>
        <pt x="227" y="610" on="0"/>
        <pt x="227" y="387" on="1"/>
        <pt x="461" y="392" on="1"/>
        <pt x="429" y="320" on="1"/>
      </contour>
    </TTGlyph>
    <TTGlyph name="G" xMin="49" yMin="-12" xMax="684" yMax="712">
      <contour>
        <pt x="626" y="273" on="1"/>
        <pt x="626" y="135" on="0"/>
        <pt x="633" y="78" on="1"/>
        <pt x="490" y="-12" on="0"/>
        <pt x="222" y="-12" on="0"/>
        <pt x="49" y="179" on="0"/>
        <pt x="49" y="494" on="0"/>
        <pt x="240" y="712" on="0"/>
        <pt x="398" y="712" on="1"/>
        <pt x="525" y="712" on="0"/>
        <pt x="640" y="626" on="1"/>
        <pt x="603" y="587" on="0"/>
        <pt x="545" y="551" on="1"/>
        <pt x="477" y="641" on="0"/>
        <pt x="346" y="641" on="1"/>
        <pt x="291" y="641" on="0"/>
        <pt x="259" y="631" on="1"/>
        <pt x="162" y="549" on="0"/>
        <pt x="162" y="367" on="1"/>
        <pt x="162" y="62" on="0"/>
        <pt x="399" y="62" on="1"/>
        <pt x="484" y="62" on="0"/>
        <pt x="525" y="88" on="1"/>
        <pt x="537" y="150" on="0"/>
        <pt x="537" y="266" on="1"/>
        <pt x="406" y="266" on="1"/>
        <pt x="448" y="332" on="1"/>
        <pt x="527" y="326" on="0"/>
        <pt x="643" y="326" on="0"/>
        <pt x="684" y="328" on="1"/>
        <pt x="656" y="273" on="1"/>
      </contour>
    </TTGlyph>
    <TTGlyph name="H" xMin="108" yMin="0" xMax="659" yMax="700">
      <contour>
        <pt x="541" y="336" on="1"/>
        <pt x="383" y="337" on="1"/>
        <pt x="284" y="337" on="0"/>
        <pt x="226" y="336" on="1"/>
        <pt x="226" y="209" on="1"/>
        <pt x="226" y="172" on="0"/>
        <pt x="235" y="30" on="0"/>
        <pt x="241" y="7" on="1"/>
        <pt x="241" y="0" on="1"/>
        <pt x="108" y="0" on="1"/>
        <pt x="108" y="7" on="1"/>
        <pt x="123" y="65" on="0"/>
        <pt x="123" y="210" on="1"/>
        <pt x="123" y="490" on="1"/>
        <pt x="123" y="635" on="0"/>
        <pt x="108" y="693" on="1"/>
        <pt x="108" y="700" on="1"/>
        <pt x="241" y="700" on="1"/>
        <pt x="241" y="693" on="1"/>
        <pt x="235" y="670" on="0"/>
        <pt x="226" y="527" on="0"/>
        <pt x="226" y="490" on="1"/>
        <pt x="226" y="399" on="1"/>
        <pt x="541" y="399" on="1"/>
        <pt x="541" y="490" on="1"/>
        <pt x="541" y="527" on="0"/>
        <pt x="532" y="670" on="0"/>
        <pt x="526" y="693" on="1"/>
        <pt x="526" y="700" on="1"/>
        <pt x="659" y="700" on="1"/>
        <pt x="659" y="693" on="1"/>
        <pt x="644" y="635" on="0"/>
        <pt x="644" y="490" on="1"/>
        <pt x="644" y="210" on="1"/>
        <pt x="644" y="65" on="0"/>
        <pt x="659" y="7" on="1"/>
        <pt x="659" y="0" on="1"/>
        <pt x="526" y="0" on="1"/>
        <pt x="526" y="7" on="1"/>
        <pt x="532" y="30" on="0"/>
        <pt x="541" y="172" on="0"/>
        <pt x="541" y="209" on="1"/>
      </contour>
    </TTGlyph>
    <TTGlyph name="I" xMin="108" yMin="0" xMax="241" yMax="700">
      <contour>
        <pt x="226" y="480" on="1"/>
        <pt x="226" y="210" on="1"/>
        <pt x="226" y="173" on="0"/>
        <pt x="235" y="30" on="0"/>
        <pt x="241" y="7" on="1"/>
        <pt x="241" y="0" on="1"/>
        <pt x="108" y="0" on="1"/>
        <pt x="108" y="7" on="1"/>
        <pt x="123" y="65" on="0"/>
        <pt x="123" y="220" on="1"/>
        <pt x="123" y="490" on="1"/>
        <pt x="123" y="635" on="0"/>
        <pt x="108" y="693" on="1"/>
        <pt x="108" y="700" on="1"/>
        <pt x="241" y="700" on="1"/>
        <pt x="241" y="693" on="1"/>
        <pt x="235" y="670" on="0"/>
        <pt x="226" y="518" on="0"/>
      </contour>
    </TTGlyph>
    <TTGlyph name="IJ" xMin="108" yMin="-247" xMax="597" yMax="700">
      <contour>
        <pt x="226" y="480" on="1"/>
        <pt x="226" y="210" on="1"/>
        <pt x="226" y="173" on="0"/>
        <pt x="235" y="30" on="0"/>
        <pt x="241" y="7" on="1"/>
        <pt x="241" y="0" on="1"/>
        <pt x="108" y="0" on="1"/>
        <pt x="108" y="7" on="1"/>
        <pt x="123" y="65" on="0"/>
        <pt x="123" y="220" on="1"/>
        <pt x="123" y="490" on="1"/>
        <pt x="123" y="635" on="0"/>
        <pt x="108" y="693" on="1"/>
        <pt x="108" y="700" on="1"/>
        <pt x="241" y="700" on="1"/>
        <pt x="241" y="693" on="1"/>
        <pt x="235" y="670" on="0"/>
        <pt x="226" y="518" on="0"/>
      </contour>
      <contour>
        <pt x="479" y="199" on="1"/>
        <pt x="479" y="490" on="1"/>
        <pt x="479" y="643" on="0"/>
        <pt x="462" y="693" on="1"/>
        <pt x="462" y="700" on="1"/>
        <pt x="597" y="700" on="1"/>
        <pt x="597" y="693" on="1"/>
        <pt x="582" y="645" on="0"/>
        <pt x="582" y="490" on="1"/>
        <pt x="582" y="156" on="1"/>
        <pt x="582" y="73" on="0"/>
        <pt x="564" y="-14" on="1"/>
        <pt x="555" y="-54" on="0"/>
        <pt x="513" y="-121" on="1"/>
        <pt x="503" y="-137" on="0"/>
        <pt x="477" y="-161" on="1"/>
        <pt x="447" y="-189" on="0"/>
        <pt x="372" y="-247" on="1"/>
        <pt x="336" y="-213" on="1"/>
        <pt x="350" y="-204" on="0"/>
        <pt x="382" y="-174" on="1"/>
        <pt x="442" y="-120" on="0"/>
        <pt x="479" y="30" on="0"/>
      </contour>
    </TTGlyph>
    <TTGlyph name="Iacute" xMin="101" yMin="0" xMax="340" yMax="887">
      <contour>
        <pt x="232" y="480" on="1"/>
        <pt x="232" y="210" on="1"/>
        <pt x="232" y="173" on="0"/>
        <pt x="241" y="30" on="0"/>
        <pt x="247" y="7" on="1"/>
        <pt x="247" y="0" on="1"/>
        <pt x="114" y="0" on="1"/>
        <pt x="114" y="7" on="1"/>
        <pt x="129" y="65" on="0"/>
        <pt x="129" y="220" on="1"/>
        <pt x="129" y="490" on="1"/>
        <pt x="129" y="635" on="0"/>
        <pt x="114" y="693" on="1"/>
        <pt x="114" y="700" on="1"/>
        <pt x="247" y="700" on="1"/>
        <pt x="247" y="693" on="1"/>
        <pt x="241" y="670" on="0"/>
        <pt x="232" y="518" on="0"/>
      </contour>
      <contour>
        <pt x="111" y="751" on="1"/>
        <pt x="101" y="784" on="1"/>
        <pt x="216" y="821" on="0"/>
        <pt x="303" y="887" on="1"/>
        <pt x="334" y="852" on="0"/>
        <pt x="340" y="806" on="1"/>
        <pt x="225" y="760" on="0"/>
      </contour>
    </TTGlyph>
    <TTGlyph name="Icircumflex" xMin="13" yMin="0" xMax="338" yMax="903">
      <contour>
        <pt x="226" y="480" on="1"/>
        <pt x="226" y="210" on="1"/>
        <pt x="226" y="173" on="0"/>
        <pt x="235" y="30" on="0"/>
        <pt x="241" y="7" on="1"/>
        <pt x="241" y="0" on="1"/>
        <pt x="108" y="0" on="1"/>
        <pt x="108" y="7" on="1"/>
        <pt x="123" y="65" on="0"/>
        <pt x="123" y="220" on="1"/>
        <pt x="123" y="490" on="1"/>
        <pt x="123" y="635" on="0"/>
        <pt x="108" y="693" on="1"/>
        <pt x="108" y="700" on="1"/>
        <pt x="241" y="700" on="1"/>
        <pt x="241" y="693" on="1"/>
        <pt x="235" y="670" on="0"/>
        <pt x="226" y="518" on="0"/>
      </contour>
      <contour>
        <pt x="133" y="903" on="1"/>
        <pt x="213" y="903" on="1"/>
        <pt x="239" y="850" on="0"/>
        <pt x="288" y="805" on="1"/>
        <pt x="305" y="789" on="0"/>
        <pt x="338" y="761" on="1"/>
        <pt x="310" y="730" on="1"/>
        <pt x="239" y="771" on="0"/>
        <pt x="170" y="845" on="1"/>
        <pt x="104" y="779" on="0"/>
        <pt x="42" y="735" on="1"/>
        <pt x="13" y="765" on="1"/>
        <pt x="100" y="841" on="0"/>
      </contour>
    </TTGlyph>
    <TTGlyph name="Idieresis" xMin="18" yMin="0" xMax="334" yMax="860">
      <contour>
        <pt x="230" y="480" on="1"/>
        <pt x="230" y="210" on="1"/>
        <pt x="230" y="173" on="0"/>
        <pt x="239" y="30" on="0"/>
        <pt x="245" y="7" on="1"/>
        <pt x="245" y="0" on="1"/>
        <pt x="112" y="0" on="1"/>
        <pt x="112" y="7" on="1"/>
        <pt x="127" y="65" on="0"/>
        <pt x="127" y="220" on="1"/>
        <pt x="127" y="490" on="1"/>
        <pt x="127" y="635" on="0"/>
        <pt x="112" y="693" on="1"/>
        <pt x="112" y="700" on="1"/>
        <pt x="245" y="700" on="1"/>
        <pt x="245" y="693" on="1"/>
        <pt x="239" y="670" on="0"/>
        <pt x="230" y="518" on="0"/>
      </contour>
      <contour>
        <pt x="320" y="856" on="1"/>
        <pt x="327" y="848" on="0"/>
        <pt x="334" y="806" on="0"/>
        <pt x="334" y="784" on="0"/>
        <pt x="333" y="778" on="1"/>
        <pt x="325" y="771" on="1"/>
        <pt x="289" y="759" on="0"/>
        <pt x="253" y="756" on="1"/>
        <pt x="241" y="756" on="1"/>
        <pt x="231" y="759" on="1"/>
        <pt x="216" y="789" on="0"/>
        <pt x="216" y="837" on="1"/>
        <pt x="226" y="845" on="1"/>
        <pt x="262" y="858" on="0"/>
        <pt x="296" y="860" on="1"/>
        <pt x="312" y="860" on="1"/>
      </contour>
      <contour>
        <pt x="122" y="847" on="1"/>
        <pt x="129" y="839" on="0"/>
        <pt x="136" y="796" on="0"/>
        <pt x="136" y="775" on="0"/>
        <pt x="135" y="769" on="1"/>
        <pt x="127" y="762" on="1"/>
        <pt x="91" y="750" on="0"/>
        <pt x="55" y="747" on="1"/>
        <pt x="43" y="747" on="1"/>
        <pt x="33" y="750" on="1"/>
        <pt x="18" y="780" on="0"/>
        <pt x="18" y="828" on="1"/>
        <pt x="28" y="836" on="1"/>
        <pt x="64" y="849" on="0"/>
        <pt x="98" y="851" on="1"/>
        <pt x="114" y="851" on="1"/>
      </contour>
    </TTGlyph>
    <TTGlyph name="Igrave" xMin="14" yMin="0" xMax="253" yMax="887">
      <contour>
        <pt x="226" y="480" on="1"/>
        <pt x="226" y="210" on="1"/>
        <pt x="226" y="173" on="0"/>
        <pt x="235" y="30" on="0"/>
        <pt x="241" y="7" on="1"/>
        <pt x="241" y="0" on="1"/>
        <pt x="108" y="0" on="1"/>
        <pt x="108" y="7" on="1"/>
        <pt x="123" y="65" on="0"/>
        <pt x="123" y="220" on="1"/>
        <pt x="123" y="490" on="1"/>
        <pt x="123" y="635" on="0"/>
        <pt x="108" y="693" on="1"/>
        <pt x="108" y="700" on="1"/>
        <pt x="241" y="700" on="1"/>
        <pt x="241" y="693" on="1"/>
        <pt x="235" y="670" on="0"/>
        <pt x="226" y="518" on="0"/>
      </contour>
      <contour>
        <pt x="253" y="784" on="1"/>
        <pt x="243" y="751" on="1"/>
        <pt x="129" y="760" on="0"/>
        <pt x="14" y="806" on="1"/>
        <pt x="20" y="852" on="0"/>
        <pt x="51" y="887" on="1"/>
        <pt x="138" y="821" on="0"/>
      </contour>
    </TTGlyph>
    <TTGlyph name="Itilde" xMin="-11" yMin="0" xMax="360" yMax="909">
      <contour>
        <pt x="226" y="480" on="1"/>
        <pt x="226" y="210" on="1"/>
        <pt x="226" y="173" on="0"/>
        <pt x="235" y="30" on="0"/>
        <pt x="241" y="7" on="1"/>
        <pt x="241" y="0" on="1"/>
        <pt x="108" y="0" on="1"/>
        <pt x="108" y="7" on="1"/>
        <pt x="123" y="65" on="0"/>
        <pt x="123" y="220" on="1"/>
        <pt x="123" y="490" on="1"/>
        <pt x="123" y="635" on="0"/>
        <pt x="108" y="693" on="1"/>
        <pt x="108" y="700" on="1"/>
        <pt x="241" y="700" on="1"/>
        <pt x="241" y="693" on="1"/>
        <pt x="235" y="670" on="0"/>
        <pt x="226" y="518" on="0"/>
      </contour>
      <contour>
        <pt x="246" y="786" on="1"/>
        <pt x="222" y="786" on="0"/>
        <pt x="121" y="834" on="0"/>
        <pt x="96" y="834" on="1"/>
        <pt x="63" y="834" on="0"/>
        <pt x="20" y="803" on="1"/>
        <pt x="11" y="797" on="0"/>
        <pt x="9" y="796" on="1"/>
        <pt x="-11" y="814" on="1"/>
        <pt x="13" y="844" on="0"/>
        <pt x="86" y="909" on="0"/>
        <pt x="131" y="909" on="0"/>
        <pt x="228" y="866" on="0"/>
        <pt x="279" y="866" on="0"/>
        <pt x="341" y="903" on="1"/>
        <pt x="360" y="886" on="1"/>
        <pt x="283" y="786" on="0"/>
      </contour>
    </TTGlyph>
    <TTGlyph name="J" xMin="-13" yMin="-247" xMax="248" yMax="700">
      <contour>
        <pt x="130" y="199" on="1"/>
        <pt x="130" y="490" on="1"/>
        <pt x="130" y="643" on="0"/>
        <pt x="113" y="693" on="1"/>
        <pt x="113" y="700" on="1"/>
        <pt x="248" y="700" on="1"/>
        <pt x="248" y="693" on="1"/>
        <pt x="233" y="645" on="0"/>
        <pt x="233" y="490" on="1"/>
        <pt x="233" y="156" on="1"/>
        <pt x="233" y="73" on="0"/>
        <pt x="214" y="-14" on="1"/>
        <pt x="206" y="-54" on="0"/>
        <pt x="164" y="-121" on="1"/>
        <pt x="154" y="-137" on="0"/>
        <pt x="128" y="-161" on="1"/>
        <pt x="98" y="-189" on="0"/>
        <pt x="23" y="-247" on="1"/>
        <pt x="-13" y="-213" on="1"/>
        <pt x="1" y="-204" on="0"/>
        <pt x="33" y="-174" on="1"/>
        <pt x="93" y="-120" on="0"/>
        <pt x="130" y="30" on="0"/>
      </contour>
    </TTGlyph>
    <TTGlyph name="Jcircumflex" xMin="-13" yMin="-247" xMax="341" yMax="920">
      <contour>
        <pt x="130" y="199" on="1"/>
        <pt x="130" y="490" on="1"/>
        <pt x="130" y="643" on="0"/>
        <pt x="113" y="693" on="1"/>
        <pt x="113" y="700" on="1"/>
        <pt x="248" y="700" on="1"/>
        <pt x="248" y="693" on="1"/>
        <pt x="233" y="645" on="0"/>
        <pt x="233" y="490" on="1"/>
        <pt x="233" y="156" on="1"/>
        <pt x="233" y="73" on="0"/>
        <pt x="214" y="-14" on="1"/>
        <pt x="206" y="-54" on="0"/>
        <pt x="164" y="-121" on="1"/>
        <pt x="154" y="-137" on="0"/>
        <pt x="128" y="-161" on="1"/>
        <pt x="98" y="-189" on="0"/>
        <pt x="23" y="-247" on="1"/>
        <pt x="-13" y="-213" on="1"/>
        <pt x="1" y="-204" on="0"/>
        <pt x="33" y="-174" on="1"/>
        <pt x="93" y="-120" on="0"/>
        <pt x="130" y="30" on="0"/>
      </contour>
      <contour>
        <pt x="136" y="920" on="1"/>
        <pt x="216" y="920" on="1"/>
        <pt x="242" y="867" on="0"/>
        <pt x="290" y="822" on="1"/>
        <pt x="308" y="806" on="0"/>
        <pt x="341" y="778" on="1"/>
        <pt x="313" y="747" on="1"/>
        <pt x="242" y="788" on="0"/>
        <pt x="173" y="862" on="1"/>
        <pt x="107" y="796" on="0"/>
        <pt x="45" y="752" on="1"/>
        <pt x="16" y="782" on="1"/>
        <pt x="103" y="858" on="0"/>
      </contour>
    </TTGlyph>
    <TTGlyph name="K" xMin="108" yMin="0" xMax="649" yMax="700">
      <contour>
        <pt x="649" y="0" on="1"/>
        <pt x="485" y="0" on="1"/>
        <pt x="450" y="43" on="0"/>
        <pt x="226" y="346" on="1"/>
        <pt x="226" y="210" on="1"/>
        <pt x="226" y="173" on="0"/>
        <pt x="235" y="30" on="0"/>
        <pt x="241" y="7" on="1"/>
        <pt x="241" y="0" on="1"/>
        <pt x="108" y="0" on="1"/>
        <pt x="108" y="7" on="1"/>
        <pt x="123" y="65" on="0"/>
        <pt x="123" y="210" on="1"/>
        <pt x="123" y="489" on="1"/>
        <pt x="123" y="635" on="0"/>
        <pt x="108" y="693" on="1"/>
        <pt x="108" y="700" on="1"/>
        <pt x="241" y="700" on="1"/>
        <pt x="241" y="693" on="1"/>
        <pt x="235" y="670" on="0"/>
        <pt x="226" y="526" on="0"/>
        <pt x="226" y="489" on="1"/>
        <pt x="226" y="369" on="1"/>
        <pt x="389" y="580" on="1"/>
        <pt x="453" y="663" on="0"/>
        <pt x="453" y="700" on="1"/>
        <pt x="579" y="700" on="1"/>
        <pt x="579" y="690" on="1"/>
        <pt x="537" y="683" on="0"/>
        <pt x="462" y="585" on="1"/>
        <pt x="307" y="385" on="1"/>
        <pt x="437" y="217" on="1"/>
        <pt x="515" y="117" on="0"/>
        <pt x="614" y="20" on="0"/>
        <pt x="649" y="10" on="1"/>
      </contour>
    </TTGlyph>
    <TTGlyph name="L" xMin="108" yMin="0" xMax="543" yMax="700">
      <contour>
        <pt x="108" y="0" on="1"/>
        <pt x="108" y="7" on="1"/>
        <pt x="123" y="65" on="0"/>
        <pt x="123" y="210" on="1"/>
        <pt x="123" y="490" on="1"/>
        <pt x="123" y="635" on="0"/>
        <pt x="108" y="693" on="1"/>
        <pt x="108" y="700" on="1"/>
        <pt x="241" y="700" on="1"/>
        <pt x="241" y="693" on="1"/>
        <pt x="235" y="669" on="0"/>
        <pt x="226" y="524" on="0"/>
        <pt x="226" y="487" on="1"/>
        <pt x="226" y="206" on="1"/>
        <pt x="226" y="140" on="0"/>
        <pt x="232" y="63" on="1"/>
        <pt x="254" y="60" on="0"/>
        <pt x="312" y="60" on="1"/>
        <pt x="465" y="60" on="0"/>
        <pt x="536" y="92" on="1"/>
        <pt x="543" y="92" on="1"/>
        <pt x="525" y="0" on="1"/>
      </contour>
    </TTGlyph>
    <TTGlyph name="Ldotaccent" xMin="108" yMin="0" xMax="543" yMax="700">
      <contour>
        <pt x="108" y="0" on="1"/>
        <pt x="108" y="7" on="1"/>
        <pt x="123" y="65" on="0"/>
        <pt x="123" y="210" on="1"/>
        <pt x="123" y="490" on="1"/>
        <pt x="123" y="635" on="0"/>
        <pt x="108" y="693" on="1"/>
        <pt x="108" y="700" on="1"/>
        <pt x="241" y="700" on="1"/>
        <pt x="241" y="693" on="1"/>
        <pt x="235" y="669" on="0"/>
        <pt x="226" y="524" on="0"/>
        <pt x="226" y="487" on="1"/>
        <pt x="226" y="206" on="1"/>
        <pt x="226" y="140" on="0"/>
        <pt x="232" y="63" on="1"/>
        <pt x="254" y="60" on="0"/>
        <pt x="312" y="60" on="1"/>
        <pt x="465" y="60" on="0"/>
        <pt x="536" y="92" on="1"/>
        <pt x="543" y="92" on="1"/>
        <pt x="525" y="0" on="1"/>
      </contour>
      <contour>
        <pt x="430" y="322" on="1"/>
        <pt x="444" y="308" on="0"/>
        <pt x="444" y="262" on="1"/>
        <pt x="444" y="250" on="0"/>
        <pt x="443" y="241" on="1"/>
        <pt x="434" y="234" on="1"/>
        <pt x="394" y="222" on="0"/>
        <pt x="336" y="217" on="1"/>
        <pt x="326" y="221" on="1"/>
        <pt x="311" y="249" on="0"/>
        <pt x="311" y="292" on="1"/>
        <pt x="311" y="297" on="0"/>
        <pt x="311" y="302" on="1"/>
        <pt x="320" y="310" on="1"/>
        <pt x="366" y="327" on="0"/>
        <pt x="411" y="327" on="1"/>
        <pt x="415" y="327" on="0"/>
        <pt x="420" y="327" on="1"/>
      </contour>
    </TTGlyph>
    <TTGlyph name="Lslash" xMin="0" yMin="0" xMax="534" yMax="700">
      <contour>
        <pt x="99" y="0" on="1"/>
        <pt x="99" y="7" on="1"/>
        <pt x="114" y="65" on="0"/>
        <pt x="114" y="210" on="1"/>
        <pt x="114" y="326" on="1"/>
        <pt x="27" y="293" on="0"/>
        <pt x="0" y="280" on="1"/>
        <pt x="5" y="344" on="1"/>
        <pt x="73" y="366" on="0"/>
        <pt x="114" y="381" on="1"/>
        <pt x="114" y="490" on="1"/>
        <pt x="114" y="635" on="0"/>
        <pt x="99" y="693" on="1"/>
        <pt x="99" y="700" on="1"/>
        <pt x="232" y="700" on="1"/>
        <pt x="232" y="693" on="1"/>
        <pt x="226" y="669" on="0"/>
        <pt x="217" y="524" on="0"/>
        <pt x="217" y="487" on="1"/>
        <pt x="217" y="420" on="1"/>
        <pt x="289" y="448" on="0"/>
        <pt x="365" y="481" on="1"/>
        <pt x="361" y="419" on="1"/>
        <pt x="314" y="404" on="0"/>
        <pt x="217" y="366" on="1"/>
        <pt x="217" y="206" on="1"/>
        <pt x="217" y="140" on="0"/>
        <pt x="223" y="63" on="1"/>
        <pt x="245" y="60" on="0"/>
        <pt x="303" y="60" on="1"/>
        <pt x="456" y="60" on="0"/>
        <pt x="527" y="92" on="1"/>
        <pt x="534" y="92" on="1"/>
        <pt x="516" y="0" on="1"/>
      </contour>
    </TTGlyph>
    <TTGlyph name="M" xMin="75" yMin="-9" xMax="820" yMax="715">
      <contour>
        <pt x="75" y="10" on="1"/>
        <pt x="112" y="290" on="0"/>
        <pt x="112" y="563" on="1"/>
        <pt x="112" y="644" on="0"/>
        <pt x="107" y="692" on="1"/>
        <pt x="107" y="702" on="1"/>
        <pt x="246" y="713" on="1"/>
        <pt x="252" y="674" on="0"/>
        <pt x="270" y="618" on="1"/>
        <pt x="304" y="510" on="0"/>
        <pt x="447" y="96" on="1"/>
        <pt x="529" y="345" on="0"/>
        <pt x="620" y="664" on="0"/>
        <pt x="626" y="700" on="1"/>
        <pt x="774" y="715" on="1"/>
        <pt x="774" y="705" on="1"/>
        <pt x="773" y="678" on="0"/>
        <pt x="773" y="538" on="0"/>
        <pt x="796" y="160" on="0"/>
        <pt x="820" y="7" on="1"/>
        <pt x="820" y="0" on="1"/>
        <pt x="690" y="0" on="1"/>
        <pt x="690" y="17" on="1"/>
        <pt x="692" y="105" on="0"/>
        <pt x="692" y="262" on="0"/>
        <pt x="686" y="394" on="0"/>
        <pt x="678" y="493" on="0"/>
        <pt x="670" y="560" on="0"/>
        <pt x="669" y="578" on="1"/>
        <pt x="640" y="492" on="0"/>
        <pt x="518" y="108" on="0"/>
        <pt x="489" y="1" on="1"/>
        <pt x="380" y="-9" on="1"/>
        <pt x="380" y="37" on="0"/>
        <pt x="219" y="492" on="1"/>
        <pt x="188" y="580" on="0"/>
        <pt x="185" y="586" on="1"/>
        <pt x="185" y="585" on="0"/>
        <pt x="183" y="548" on="1"/>
        <pt x="172" y="343" on="0"/>
        <pt x="172" y="126" on="0"/>
        <pt x="174" y="17" on="1"/>
        <pt x="174" y="0" on="1"/>
        <pt x="75" y="0" on="1"/>
      </contour>
    </TTGlyph>
    <TTGlyph name="N" xMin="72" yMin="-10" xMax="629" yMax="709">
      <contour>
        <pt x="173" y="0" on="1"/>
        <pt x="72" y="0" on="1"/>
        <pt x="72" y="7" on="1"/>
        <pt x="87" y="73" on="0"/>
        <pt x="87" y="239" on="1"/>
        <pt x="87" y="463" on="1"/>
        <pt x="87" y="617" on="0"/>
        <pt x="74" y="693" on="1"/>
        <pt x="74" y="700" on="1"/>
        <pt x="195" y="709" on="1"/>
        <pt x="545" y="165" on="1"/>
        <pt x="545" y="490" on="1"/>
        <pt x="545" y="543" on="0"/>
        <pt x="533" y="668" on="0"/>
        <pt x="524" y="693" on="1"/>
        <pt x="524" y="700" on="1"/>
        <pt x="629" y="700" on="1"/>
        <pt x="629" y="693" on="1"/>
        <pt x="614" y="627" on="0"/>
        <pt x="614" y="461" on="1"/>
        <pt x="614" y="210" on="1"/>
        <pt x="614" y="150" on="0"/>
        <pt x="623" y="13" on="0"/>
        <pt x="627" y="0" on="1"/>
        <pt x="533" y="-10" on="1"/>
        <pt x="155" y="575" on="1"/>
        <pt x="155" y="210" on="1"/>
        <pt x="155" y="77" on="0"/>
        <pt x="173" y="7" on="1"/>
      </contour>
    </TTGlyph>
    <TTGlyph name="Nacute" xMin="72" yMin="-10" xMax="629" yMax="949">
      <contour>
        <pt x="173" y="0" on="1"/>
        <pt x="72" y="0" on="1"/>
        <pt x="72" y="7" on="1"/>
        <pt x="87" y="73" on="0"/>
        <pt x="87" y="239" on="1"/>
        <pt x="87" y="463" on="1"/>
        <pt x="87" y="617" on="0"/>
        <pt x="74" y="693" on="1"/>
        <pt x="74" y="700" on="1"/>
        <pt x="195" y="709" on="1"/>
        <pt x="545" y="165" on="1"/>
        <pt x="545" y="490" on="1"/>
        <pt x="545" y="543" on="0"/>
        <pt x="533" y="668" on="0"/>
        <pt x="524" y="693" on="1"/>
        <pt x="524" y="700" on="1"/>
        <pt x="629" y="700" on="1"/>
        <pt x="629" y="693" on="1"/>
        <pt x="614" y="627" on="0"/>
        <pt x="614" y="461" on="1"/>
        <pt x="614" y="210" on="1"/>
        <pt x="614" y="150" on="0"/>
        <pt x="623" y="13" on="0"/>
        <pt x="627" y="0" on="1"/>
        <pt x="533" y="-10" on="1"/>
        <pt x="155" y="575" on="1"/>
        <pt x="155" y="210" on="1"/>
        <pt x="155" y="77" on="0"/>
        <pt x="173" y="7" on="1"/>
      </contour>
      <contour>
        <pt x="460" y="891" on="1"/>
        <pt x="368" y="799" on="0"/>
        <pt x="273" y="747" on="1"/>
        <pt x="250" y="773" on="1"/>
        <pt x="338" y="853" on="0"/>
        <pt x="392" y="949" on="1"/>
        <pt x="435" y="932" on="0"/>
      </contour>
    </TTGlyph>
    <TTGlyph name="Ntilde" xMin="79" yMin="-10" xMax="636" yMax="904">
      <contour>
        <pt x="180" y="0" on="1"/>
        <pt x="79" y="0" on="1"/>
        <pt x="79" y="7" on="1"/>
        <pt x="94" y="73" on="0"/>
        <pt x="94" y="239" on="1"/>
        <pt x="94" y="463" on="1"/>
        <pt x="94" y="617" on="0"/>
        <pt x="81" y="693" on="1"/>
        <pt x="81" y="700" on="1"/>
        <pt x="202" y="709" on="1"/>
        <pt x="552" y="165" on="1"/>
        <pt x="552" y="490" on="1"/>
        <pt x="552" y="543" on="0"/>
        <pt x="540" y="668" on="0"/>
        <pt x="531" y="693" on="1"/>
        <pt x="531" y="700" on="1"/>
        <pt x="636" y="700" on="1"/>
        <pt x="636" y="693" on="1"/>
        <pt x="621" y="627" on="0"/>
        <pt x="621" y="461" on="1"/>
        <pt x="621" y="210" on="1"/>
        <pt x="621" y="150" on="0"/>
        <pt x="630" y="13" on="0"/>
        <pt x="634" y="0" on="1"/>
        <pt x="540" y="-10" on="1"/>
        <pt x="162" y="575" on="1"/>
        <pt x="162" y="210" on="1"/>
        <pt x="162" y="77" on="0"/>
        <pt x="180" y="7" on="1"/>
      </contour>
      <contour>
        <pt x="442" y="781" on="1"/>
        <pt x="418" y="781" on="0"/>
        <pt x="317" y="829" on="0"/>
        <pt x="268" y="829" on="0"/>
        <pt x="232" y="812" on="0"/>
        <pt x="205" y="791" on="1"/>
        <pt x="185" y="809" on="1"/>
        <pt x="209" y="839" on="0"/>
        <pt x="282" y="904" on="0"/>
        <pt x="327" y="904" on="0"/>
        <pt x="424" y="861" on="0"/>
        <pt x="445" y="861" on="1"/>
        <pt x="484" y="861" on="0"/>
        <pt x="537" y="898" on="1"/>
        <pt x="556" y="881" on="1"/>
        <pt x="479" y="781" on="0"/>
      </contour>
    </TTGlyph>
    <TTGlyph name="O" xMin="49" yMin="-12" xMax="704" yMax="714">
      <contour>
        <pt x="220" y="-12" on="0"/>
        <pt x="49" y="190" on="0"/>
        <pt x="49" y="499" on="0"/>
        <pt x="243" y="714" on="0"/>
        <pt x="396" y="714" on="1"/>
        <pt x="495" y="714" on="0"/>
        <pt x="566" y="665" on="1"/>
        <pt x="704" y="570" on="0"/>
        <pt x="704" y="368" on="1"/>
        <pt x="704" y="203" on="0"/>
        <pt x="509" y="-12" on="0"/>
      </contour>
      <contour>
        <pt x="591" y="341" on="1"/>
        <pt x="591" y="469" on="0"/>
        <pt x="543" y="550" on="1"/>
        <pt x="490" y="641" on="0"/>
        <pt x="365" y="641" on="1"/>
        <pt x="277" y="641" on="0"/>
        <pt x="227" y="610" on="1"/>
        <pt x="198" y="574" on="0"/>
        <pt x="162" y="443" on="0"/>
        <pt x="162" y="280" on="0"/>
        <pt x="204" y="149" on="0"/>
        <pt x="313" y="59" on="0"/>
        <pt x="472" y="59" on="0"/>
        <pt x="524" y="92" on="1"/>
        <pt x="591" y="167" on="0"/>
      </contour>
    </TTGlyph>
    <TTGlyph name="OE" xMin="49" yMin="-12" xMax="1027" yMax="714">
      <contour>
        <pt x="962" y="628" on="1"/>
        <pt x="903" y="643" on="0"/>
        <pt x="730" y="643" on="0"/>
        <pt x="707" y="641" on="1"/>
        <pt x="705" y="603" on="0"/>
        <pt x="705" y="395" on="1"/>
        <pt x="944" y="399" on="1"/>
        <pt x="928" y="331" on="1"/>
        <pt x="921" y="331" on="1"/>
        <pt x="853" y="339" on="0"/>
        <pt x="759" y="339" on="0"/>
        <pt x="705" y="336" on="1"/>
        <pt x="705" y="93" on="0"/>
        <pt x="709" y="63" on="1"/>
        <pt x="732" y="60" on="0"/>
        <pt x="791" y="60" on="1"/>
        <pt x="948" y="60" on="0"/>
        <pt x="1020" y="92" on="1"/>
        <pt x="1027" y="92" on="1"/>
        <pt x="1009" y="0" on="1"/>
        <pt x="584" y="0" on="1"/>
        <pt x="584" y="7" on="1"/>
        <pt x="593" y="41" on="0"/>
        <pt x="597" y="89" on="1"/>
        <pt x="498" y="-12" on="0"/>
        <pt x="219" y="-12" on="0"/>
        <pt x="49" y="188" on="0"/>
        <pt x="49" y="501" on="0"/>
        <pt x="242" y="714" on="0"/>
        <pt x="393" y="714" on="1"/>
        <pt x="513" y="714" on="0"/>
        <pt x="597" y="628" on="1"/>
        <pt x="592" y="676" on="0"/>
        <pt x="588" y="693" on="1"/>
        <pt x="588" y="700" on="1"/>
        <pt x="994" y="703" on="1"/>
        <pt x="969" y="628" on="1"/>
      </contour>
      <contour>
        <pt x="591" y="333" on="1"/>
        <pt x="591" y="641" on="0"/>
        <pt x="359" y="641" on="1"/>
        <pt x="325" y="641" on="0"/>
        <pt x="246" y="623" on="0"/>
        <pt x="227" y="610" on="1"/>
        <pt x="198" y="574" on="0"/>
        <pt x="162" y="439" on="0"/>
        <pt x="162" y="371" on="1"/>
        <pt x="162" y="59" on="0"/>
        <pt x="405" y="59" on="1"/>
        <pt x="474" y="59" on="0"/>
        <pt x="524" y="92" on="1"/>
        <pt x="557" y="128" on="0"/>
        <pt x="591" y="263" on="0"/>
      </contour>
    </TTGlyph>
    <TTGlyph name="Oacute" xMin="49" yMin="-12" xMax="704" yMax="887">
      <contour>
        <pt x="220" y="-12" on="0"/>
        <pt x="49" y="190" on="0"/>
        <pt x="49" y="499" on="0"/>
        <pt x="243" y="714" on="0"/>
        <pt x="396" y="714" on="1"/>
        <pt x="495" y="714" on="0"/>
        <pt x="566" y="665" on="1"/>
        <pt x="704" y="570" on="0"/>
        <pt x="704" y="368" on="1"/>
        <pt x="704" y="203" on="0"/>
        <pt x="509" y="-12" on="0"/>
      </contour>
      <contour>
        <pt x="591" y="341" on="1"/>
        <pt x="591" y="469" on="0"/>
        <pt x="543" y="550" on="1"/>
        <pt x="490" y="641" on="0"/>
        <pt x="365" y="641" on="1"/>
        <pt x="277" y="641" on="0"/>
        <pt x="227" y="610" on="1"/>
        <pt x="198" y="574" on="0"/>
        <pt x="162" y="443" on="0"/>
        <pt x="162" y="280" on="0"/>
        <pt x="204" y="149" on="0"/>
        <pt x="313" y="59" on="0"/>
        <pt x="472" y="59" on="0"/>
        <pt x="524" y="92" on="1"/>
        <pt x="591" y="167" on="0"/>
      </contour>
      <contour>
        <pt x="295" y="751" on="1"/>
        <pt x="285" y="784" on="1"/>
        <pt x="400" y="821" on="0"/>
        <pt x="487" y="887" on="1"/>
        <pt x="518" y="852" on="0"/>
        <pt x="524" y="806" on="1"/>
        <pt x="409" y="760" on="0"/>
      </contour>
    </TTGlyph>
    <TTGlyph name="Ocircumflex" xMin="49" yMin="-12" xMax="704" yMax="903">
      <contour>
        <pt x="220" y="-12" on="0"/>
        <pt x="49" y="190" on="0"/>
        <pt x="49" y="499" on="0"/>
        <pt x="243" y="714" on="0"/>
        <pt x="396" y="714" on="1"/>
        <pt x="495" y="714" on="0"/>
        <pt x="566" y="665" on="1"/>
        <pt x="704" y="570" on="0"/>
        <pt x="704" y="368" on="1"/>
        <pt x="704" y="203" on="0"/>
        <pt x="509" y="-12" on="0"/>
      </contour>
      <contour>
        <pt x="591" y="341" on="1"/>
        <pt x="591" y="469" on="0"/>
        <pt x="543" y="550" on="1"/>
        <pt x="490" y="641" on="0"/>
        <pt x="365" y="641" on="1"/>
        <pt x="277" y="641" on="0"/>
        <pt x="227" y="610" on="1"/>
        <pt x="198" y="574" on="0"/>
        <pt x="162" y="443" on="0"/>
        <pt x="162" y="280" on="0"/>
        <pt x="204" y="149" on="0"/>
        <pt x="313" y="59" on="0"/>
        <pt x="472" y="59" on="0"/>
        <pt x="524" y="92" on="1"/>
        <pt x="591" y="167" on="0"/>
      </contour>
      <contour>
        <pt x="335" y="903" on="1"/>
        <pt x="415" y="903" on="1"/>
        <pt x="441" y="850" on="0"/>
        <pt x="490" y="805" on="1"/>
        <pt x="507" y="789" on="0"/>
        <pt x="540" y="761" on="1"/>
        <pt x="512" y="730" on="1"/>
        <pt x="441" y="771" on="0"/>
        <pt x="372" y="845" on="1"/>
        <pt x="306" y="779" on="0"/>
        <pt x="244" y="735" on="1"/>
        <pt x="215" y="765" on="1"/>
        <pt x="302" y="841" on="0"/>
      </contour>
    </TTGlyph>
    <TTGlyph name="Odieresis" xMin="49" yMin="-12" xMax="704" yMax="859">
      <contour>
        <pt x="220" y="-12" on="0"/>
        <pt x="49" y="190" on="0"/>
        <pt x="49" y="499" on="0"/>
        <pt x="243" y="714" on="0"/>
        <pt x="396" y="714" on="1"/>
        <pt x="495" y="714" on="0"/>
        <pt x="566" y="665" on="1"/>
        <pt x="704" y="570" on="0"/>
        <pt x="704" y="368" on="1"/>
        <pt x="704" y="203" on="0"/>
        <pt x="509" y="-12" on="0"/>
      </contour>
      <contour>
        <pt x="591" y="341" on="1"/>
        <pt x="591" y="469" on="0"/>
        <pt x="543" y="550" on="1"/>
        <pt x="490" y="641" on="0"/>
        <pt x="365" y="641" on="1"/>
        <pt x="277" y="641" on="0"/>
        <pt x="227" y="610" on="1"/>
        <pt x="198" y="574" on="0"/>
        <pt x="162" y="443" on="0"/>
        <pt x="162" y="280" on="0"/>
        <pt x="204" y="149" on="0"/>
        <pt x="313" y="59" on="0"/>
        <pt x="472" y="59" on="0"/>
        <pt x="524" y="92" on="1"/>
        <pt x="591" y="167" on="0"/>
      </contour>
      <contour>
        <pt x="320" y="846" on="1"/>
        <pt x="327" y="838" on="0"/>
        <pt x="334" y="796" on="0"/>
        <pt x="334" y="774" on="0"/>
        <pt x="333" y="768" on="1"/>
        <pt x="325" y="761" on="1"/>
        <pt x="289" y="749" on="0"/>
        <pt x="253" y="746" on="1"/>
        <pt x="241" y="746" on="1"/>
        <pt x="231" y="749" on="1"/>
        <pt x="216" y="779" on="0"/>
        <pt x="216" y="827" on="1"/>
        <pt x="226" y="835" on="1"/>
        <pt x="262" y="848" on="0"/>
        <pt x="296" y="850" on="1"/>
        <pt x="312" y="850" on="1"/>
      </contour>
      <contour>
        <pt x="518" y="855" on="1"/>
        <pt x="525" y="847" on="0"/>
        <pt x="532" y="804" on="0"/>
        <pt x="532" y="783" on="0"/>
        <pt x="531" y="777" on="1"/>
        <pt x="523" y="770" on="1"/>
        <pt x="487" y="758" on="0"/>
        <pt x="451" y="755" on="1"/>
        <pt x="439" y="755" on="1"/>
        <pt x="429" y="758" on="1"/>
        <pt x="414" y="788" on="0"/>
        <pt x="414" y="836" on="1"/>
        <pt x="424" y="844" on="1"/>
        <pt x="460" y="857" on="0"/>
        <pt x="494" y="859" on="1"/>
        <pt x="510" y="859" on="1"/>
      </contour>
    </TTGlyph>
    <TTGlyph name="Ograve" xMin="49" yMin="-12" xMax="704" yMax="887">
      <contour>
        <pt x="220" y="-12" on="0"/>
        <pt x="49" y="190" on="0"/>
        <pt x="49" y="499" on="0"/>
        <pt x="243" y="714" on="0"/>
        <pt x="396" y="714" on="1"/>
        <pt x="495" y="714" on="0"/>
        <pt x="566" y="665" on="1"/>
        <pt x="704" y="570" on="0"/>
        <pt x="704" y="368" on="1"/>
        <pt x="704" y="203" on="0"/>
        <pt x="509" y="-12" on="0"/>
      </contour>
      <contour>
        <pt x="591" y="341" on="1"/>
        <pt x="591" y="469" on="0"/>
        <pt x="543" y="550" on="1"/>
        <pt x="490" y="641" on="0"/>
        <pt x="365" y="641" on="1"/>
        <pt x="277" y="641" on="0"/>
        <pt x="227" y="610" on="1"/>
        <pt x="198" y="574" on="0"/>
        <pt x="162" y="443" on="0"/>
        <pt x="162" y="280" on="0"/>
        <pt x="204" y="149" on="0"/>
        <pt x="313" y="59" on="0"/>
        <pt x="472" y="59" on="0"/>
        <pt x="524" y="92" on="1"/>
        <pt x="591" y="167" on="0"/>
      </contour>
      <contour>
        <pt x="463" y="784" on="1"/>
        <pt x="453" y="751" on="1"/>
        <pt x="339" y="760" on="0"/>
        <pt x="224" y="806" on="1"/>
        <pt x="230" y="852" on="0"/>
        <pt x="261" y="887" on="1"/>
        <pt x="348" y="821" on="0"/>
      </contour>
    </TTGlyph>
    <TTGlyph name="Oslash" xMin="49" yMin="-77" xMax="727" yMax="741">
      <contour>
        <pt x="49" y="347" on="1"/>
        <pt x="49" y="498" on="0"/>
        <pt x="245" y="714" on="0"/>
        <pt x="388" y="714" on="1"/>
        <pt x="510" y="714" on="0"/>
        <pt x="590" y="648" on="1"/>
        <pt x="640" y="728" on="1"/>
        <pt x="727" y="741" on="1"/>
        <pt x="727" y="735" on="1"/>
        <pt x="691" y="693" on="0"/>
        <pt x="626" y="611" on="1"/>
        <pt x="704" y="516" on="0"/>
        <pt x="704" y="204" on="0"/>
        <pt x="508" y="-12" on="0"/>
        <pt x="365" y="-12" on="1"/>
        <pt x="274" y="-12" on="0"/>
        <pt x="204" y="30" on="1"/>
        <pt x="167" y="-23" on="0"/>
        <pt x="145" y="-61" on="1"/>
        <pt x="53" y="-77" on="1"/>
        <pt x="53" y="-71" on="1"/>
        <pt x="84" y="-35" on="0"/>
        <pt x="159" y="63" on="1"/>
        <pt x="49" y="162" on="0"/>
      </contour>
      <contour>
        <pt x="359" y="641" on="1"/>
        <pt x="325" y="641" on="0"/>
        <pt x="246" y="623" on="0"/>
        <pt x="227" y="610" on="1"/>
        <pt x="198" y="574" on="0"/>
        <pt x="162" y="439" on="0"/>
        <pt x="162" y="371" on="1"/>
        <pt x="162" y="214" on="0"/>
        <pt x="218" y="139" on="1"/>
        <pt x="311" y="260" on="0"/>
        <pt x="535" y="570" on="1"/>
        <pt x="477" y="641" on="0"/>
      </contour>
      <contour>
        <pt x="591" y="333" on="1"/>
        <pt x="591" y="460" on="0"/>
        <pt x="561" y="526" on="1"/>
        <pt x="496" y="440" on="0"/>
        <pt x="255" y="101" on="1"/>
        <pt x="311" y="59" on="0"/>
        <pt x="405" y="59" on="1"/>
        <pt x="474" y="59" on="0"/>
        <pt x="524" y="92" on="1"/>
        <pt x="557" y="128" on="0"/>
        <pt x="591" y="263" on="0"/>
      </contour>
    </TTGlyph>
    <TTGlyph name="Otilde" xMin="49" yMin="-12" xMax="704" yMax="904">
      <contour>
        <pt x="220" y="-12" on="0"/>
        <pt x="49" y="190" on="0"/>
        <pt x="49" y="499" on="0"/>
        <pt x="243" y="714" on="0"/>
        <pt x="396" y="714" on="1"/>
        <pt x="495" y="714" on="0"/>
        <pt x="566" y="665" on="1"/>
        <pt x="704" y="570" on="0"/>
        <pt x="704" y="368" on="1"/>
        <pt x="704" y="203" on="0"/>
        <pt x="509" y="-12" on="0"/>
      </contour>
      <contour>
        <pt x="591" y="341" on="1"/>
        <pt x="591" y="469" on="0"/>
        <pt x="543" y="550" on="1"/>
        <pt x="490" y="641" on="0"/>
        <pt x="365" y="641" on="1"/>
        <pt x="277" y="641" on="0"/>
        <pt x="227" y="610" on="1"/>
        <pt x="198" y="574" on="0"/>
        <pt x="162" y="443" on="0"/>
        <pt x="162" y="280" on="0"/>
        <pt x="204" y="149" on="0"/>
        <pt x="313" y="59" on="0"/>
        <pt x="472" y="59" on="0"/>
        <pt x="524" y="92" on="1"/>
        <pt x="591" y="167" on="0"/>
      </contour>
      <contour>
        <pt x="447" y="781" on="1"/>
        <pt x="423" y="781" on="0"/>
        <pt x="322" y="829" on="0"/>
        <pt x="273" y="829" on="0"/>
        <pt x="237" y="812" on="0"/>
        <pt x="210" y="791" on="1"/>
        <pt x="190" y="809" on="1"/>
        <pt x="214" y="839" on="0"/>
        <pt x="287" y="904" on="0"/>
        <pt x="332" y="904" on="0"/>
        <pt x="429" y="861" on="0"/>
        <pt x="450" y="861" on="1"/>
        <pt x="489" y="861" on="0"/>
        <pt x="542" y="898" on="1"/>
        <pt x="561" y="881" on="1"/>
        <pt x="484" y="781" on="0"/>
      </contour>
    </TTGlyph>
    <TTGlyph name="P" xMin="108" yMin="0" xMax="585" yMax="700">
      <contour>
        <pt x="170" y="698" on="1"/>
        <pt x="327" y="700" on="1"/>
        <pt x="585" y="700" on="0"/>
        <pt x="585" y="509" on="1"/>
        <pt x="585" y="399" on="0"/>
        <pt x="434" y="277" on="0"/>
        <pt x="316" y="277" on="1"/>
        <pt x="275" y="277" on="0"/>
        <pt x="230" y="286" on="1"/>
        <pt x="230" y="135" on="1"/>
        <pt x="230" y="53" on="0"/>
        <pt x="249" y="6" on="1"/>
        <pt x="249" y="0" on="1"/>
        <pt x="108" y="0" on="1"/>
        <pt x="108" y="7" on="1"/>
        <pt x="127" y="58" on="0"/>
        <pt x="127" y="150" on="1"/>
        <pt x="127" y="533" on="1"/>
        <pt x="127" y="638" on="0"/>
        <pt x="111" y="693" on="1"/>
        <pt x="111" y="700" on="1"/>
      </contour>
      <contour>
        <pt x="472" y="499" on="1"/>
        <pt x="472" y="649" on="0"/>
        <pt x="328" y="649" on="1"/>
        <pt x="255" y="649" on="0"/>
        <pt x="232" y="646" on="1"/>
        <pt x="230" y="619" on="0"/>
        <pt x="230" y="470" on="1"/>
        <pt x="230" y="333" on="1"/>
        <pt x="269" y="322" on="0"/>
        <pt x="311" y="322" on="1"/>
        <pt x="390" y="322" on="0"/>
        <pt x="472" y="415" on="0"/>
      </contour>
    </TTGlyph>
    <TTGlyph name="Q" xMin="49" yMin="-99" xMax="724" yMax="714">
      <contour>
        <pt x="220" y="-12" on="0"/>
        <pt x="49" y="189" on="0"/>
        <pt x="49" y="500" on="0"/>
        <pt x="244" y="714" on="0"/>
        <pt x="540" y="714" on="0"/>
        <pt x="704" y="518" on="0"/>
        <pt x="704" y="365" on="1"/>
        <pt x="704" y="175" on="0"/>
        <pt x="571" y="62" on="1"/>
        <pt x="659" y="-20" on="0"/>
        <pt x="723" y="-53" on="1"/>
        <pt x="724" y="-59" on="1"/>
        <pt x="612" y="-99" on="1"/>
        <pt x="554" y="-28" on="0"/>
        <pt x="508" y="21" on="1"/>
        <pt x="440" y="-12" on="0"/>
        <pt x="363" y="-12" on="1"/>
      </contour>
      <contour>
        <pt x="591" y="344" on="1"/>
        <pt x="591" y="465" on="0"/>
        <pt x="546" y="547" on="1"/>
        <pt x="521" y="591" on="0"/>
        <pt x="429" y="641" on="0"/>
        <pt x="277" y="641" on="0"/>
        <pt x="227" y="610" on="1"/>
        <pt x="162" y="528" on="0"/>
        <pt x="162" y="362" on="1"/>
        <pt x="162" y="239" on="0"/>
        <pt x="210" y="154" on="1"/>
        <pt x="235" y="109" on="0"/>
        <pt x="332" y="56" on="0"/>
        <pt x="399" y="56" on="1"/>
        <pt x="434" y="56" on="0"/>
        <pt x="465" y="65" on="1"/>
        <pt x="440" y="91" on="0"/>
        <pt x="370" y="156" on="1"/>
        <pt x="370" y="160" on="1"/>
        <pt x="439" y="190" on="1"/>
        <pt x="470" y="153" on="0"/>
        <pt x="530" y="99" on="1"/>
        <pt x="591" y="187" on="0"/>
      </contour>
    </TTGlyph>
    <TTGlyph name="R" xMin="108" yMin="0" xMax="645" yMax="700">
      <contour>
        <pt x="174" y="698" on="1"/>
        <pt x="323" y="700" on="1"/>
        <pt x="563" y="700" on="0"/>
        <pt x="563" y="527" on="1"/>
        <pt x="563" y="443" on="0"/>
        <pt x="452" y="330" on="0"/>
        <pt x="360" y="319" on="1"/>
        <pt x="475" y="174" on="1"/>
        <pt x="547" y="83" on="0"/>
        <pt x="619" y="17" on="0"/>
        <pt x="645" y="10" on="1"/>
        <pt x="645" y="0" on="1"/>
        <pt x="481" y="0" on="1"/>
        <pt x="462" y="31" on="0"/>
        <pt x="421" y="89" on="1"/>
        <pt x="259" y="316" on="1"/>
        <pt x="230" y="318" on="1"/>
        <pt x="230" y="161" on="1"/>
        <pt x="230" y="56" on="0"/>
        <pt x="245" y="7" on="1"/>
        <pt x="245" y="0" on="1"/>
        <pt x="108" y="0" on="1"/>
        <pt x="108" y="7" on="1"/>
        <pt x="127" y="58" on="0"/>
        <pt x="127" y="150" on="1"/>
        <pt x="127" y="538" on="1"/>
        <pt x="127" y="642" on="0"/>
        <pt x="112" y="693" on="1"/>
        <pt x="112" y="700" on="1"/>
        <pt x="112" y="700" on="0"/>
      </contour>
      <contour>
        <pt x="310" y="649" on="1"/>
        <pt x="262" y="649" on="0"/>
        <pt x="233" y="645" on="1"/>
        <pt x="230" y="623" on="0"/>
        <pt x="230" y="367" on="1"/>
        <pt x="266" y="363" on="0"/>
        <pt x="299" y="363" on="1"/>
        <pt x="383" y="363" on="0"/>
        <pt x="452" y="440" on="0"/>
        <pt x="452" y="591" on="0"/>
        <pt x="388" y="649" on="0"/>
      </contour>
    </TTGlyph>
    <TTGlyph name="Racute" xMin="108" yMin="0" xMax="645" yMax="949">
      <contour>
        <pt x="174" y="698" on="1"/>
        <pt x="323" y="700" on="1"/>
        <pt x="563" y="700" on="0"/>
        <pt x="563" y="527" on="1"/>
        <pt x="563" y="443" on="0"/>
        <pt x="452" y="330" on="0"/>
        <pt x="360" y="319" on="1"/>
        <pt x="475" y="174" on="1"/>
        <pt x="547" y="83" on="0"/>
        <pt x="619" y="17" on="0"/>
        <pt x="645" y="10" on="1"/>
        <pt x="645" y="0" on="1"/>
        <pt x="481" y="0" on="1"/>
        <pt x="462" y="31" on="0"/>
        <pt x="421" y="89" on="1"/>
        <pt x="259" y="316" on="1"/>
        <pt x="230" y="318" on="1"/>
        <pt x="230" y="161" on="1"/>
        <pt x="230" y="56" on="0"/>
        <pt x="245" y="7" on="1"/>
        <pt x="245" y="0" on="1"/>
        <pt x="108" y="0" on="1"/>
        <pt x="108" y="7" on="1"/>
        <pt x="127" y="58" on="0"/>
        <pt x="127" y="150" on="1"/>
        <pt x="127" y="538" on="1"/>
        <pt x="127" y="642" on="0"/>
        <pt x="112" y="693" on="1"/>
        <pt x="112" y="700" on="1"/>
        <pt x="112" y="700" on="0"/>
      </contour>
      <contour>
        <pt x="310" y="649" on="1"/>
        <pt x="262" y="649" on="0"/>
        <pt x="233" y="645" on="1"/>
        <pt x="230" y="623" on="0"/>
        <pt x="230" y="367" on="1"/>
        <pt x="266" y="363" on="0"/>
        <pt x="299" y="363" on="1"/>
        <pt x="383" y="363" on="0"/>
        <pt x="452" y="440" on="0"/>
        <pt x="452" y="591" on="0"/>
        <pt x="388" y="649" on="0"/>
      </contour>
      <contour>
        <pt x="425" y="891" on="1"/>
        <pt x="333" y="799" on="0"/>
        <pt x="238" y="747" on="1"/>
        <pt x="215" y="773" on="1"/>
        <pt x="303" y="853" on="0"/>
        <pt x="357" y="949" on="1"/>
        <pt x="400" y="932" on="0"/>
      </contour>
    </TTGlyph>
    <TTGlyph name="Rcaron" xMin="108" yMin="0" xMax="645" yMax="919">
      <contour>
        <pt x="174" y="698" on="1"/>
        <pt x="323" y="700" on="1"/>
        <pt x="563" y="700" on="0"/>
        <pt x="563" y="527" on="1"/>
        <pt x="563" y="443" on="0"/>
        <pt x="452" y="330" on="0"/>
        <pt x="360" y="319" on="1"/>
        <pt x="475" y="174" on="1"/>
        <pt x="547" y="83" on="0"/>
        <pt x="619" y="17" on="0"/>
        <pt x="645" y="10" on="1"/>
        <pt x="645" y="0" on="1"/>
        <pt x="481" y="0" on="1"/>
        <pt x="462" y="31" on="0"/>
        <pt x="421" y="89" on="1"/>
        <pt x="259" y="316" on="1"/>
        <pt x="230" y="318" on="1"/>
        <pt x="230" y="161" on="1"/>
        <pt x="230" y="56" on="0"/>
        <pt x="245" y="7" on="1"/>
        <pt x="245" y="0" on="1"/>
        <pt x="108" y="0" on="1"/>
        <pt x="108" y="7" on="1"/>
        <pt x="127" y="58" on="0"/>
        <pt x="127" y="150" on="1"/>
        <pt x="127" y="538" on="1"/>
        <pt x="127" y="642" on="0"/>
        <pt x="112" y="693" on="1"/>
        <pt x="112" y="700" on="1"/>
        <pt x="112" y="700" on="0"/>
      </contour>
      <contour>
        <pt x="310" y="649" on="1"/>
        <pt x="262" y="649" on="0"/>
        <pt x="233" y="645" on="1"/>
        <pt x="230" y="623" on="0"/>
        <pt x="230" y="367" on="1"/>
        <pt x="266" y="363" on="0"/>
        <pt x="299" y="363" on="1"/>
        <pt x="383" y="363" on="0"/>
        <pt x="452" y="440" on="0"/>
        <pt x="452" y="591" on="0"/>
        <pt x="388" y="649" on="0"/>
      </contour>
      <contour>
        <pt x="373" y="747" on="1"/>
        <pt x="273" y="737" on="1"/>
        <pt x="231" y="822" on="0"/>
        <pt x="162" y="888" on="1"/>
        <pt x="193" y="919" on="1"/>
        <pt x="226" y="893" on="0"/>
        <pt x="298" y="822" on="0"/>
        <pt x="318" y="793" on="1"/>
        <pt x="360" y="858" on="0"/>
        <pt x="446" y="919" on="1"/>
        <pt x="478" y="891" on="1"/>
        <pt x="411" y="832" on="0"/>
      </contour>
    </TTGlyph>
    <TTGlyph name="Rcommaaccent" xMin="108" yMin="-236" xMax="645" yMax="700">
      <contour>
        <pt x="380" y="-83" on="1"/>
        <pt x="380" y="-154" on="0"/>
        <pt x="307" y="-236" on="1"/>
        <pt x="270" y="-221" on="1"/>
        <pt x="292" y="-186" on="0"/>
        <pt x="308" y="-135" on="0"/>
        <pt x="308" y="-73" on="0"/>
        <pt x="291" y="-43" on="1"/>
        <pt x="293" y="-37" on="0"/>
        <pt x="296" y="-34" on="1"/>
        <pt x="317" y="-22" on="0"/>
        <pt x="355" y="-22" on="1"/>
        <pt x="360" y="-22" on="0"/>
        <pt x="363" y="-23" on="1"/>
        <pt x="370" y="-30" on="1"/>
        <pt x="380" y="-56" on="0"/>
      </contour>
      <contour>
        <pt x="174" y="698" on="1"/>
        <pt x="323" y="700" on="1"/>
        <pt x="563" y="700" on="0"/>
        <pt x="563" y="527" on="1"/>
        <pt x="563" y="443" on="0"/>
        <pt x="452" y="330" on="0"/>
        <pt x="360" y="319" on="1"/>
        <pt x="475" y="174" on="1"/>
        <pt x="547" y="83" on="0"/>
        <pt x="619" y="17" on="0"/>
        <pt x="645" y="10" on="1"/>
        <pt x="645" y="0" on="1"/>
        <pt x="481" y="0" on="1"/>
        <pt x="462" y="31" on="0"/>
        <pt x="421" y="89" on="1"/>
        <pt x="259" y="316" on="1"/>
        <pt x="230" y="318" on="1"/>
        <pt x="230" y="161" on="1"/>
        <pt x="230" y="56" on="0"/>
        <pt x="245" y="7" on="1"/>
        <pt x="245" y="0" on="1"/>
        <pt x="108" y="0" on="1"/>
        <pt x="108" y="7" on="1"/>
        <pt x="127" y="58" on="0"/>
        <pt x="127" y="150" on="1"/>
        <pt x="127" y="538" on="1"/>
        <pt x="127" y="642" on="0"/>
        <pt x="112" y="693" on="1"/>
        <pt x="112" y="700" on="1"/>
      </contour>
      <contour>
        <pt x="310" y="649" on="1"/>
        <pt x="262" y="649" on="0"/>
        <pt x="233" y="645" on="1"/>
        <pt x="230" y="623" on="0"/>
        <pt x="230" y="367" on="1"/>
        <pt x="266" y="363" on="0"/>
        <pt x="299" y="363" on="1"/>
        <pt x="383" y="363" on="0"/>
        <pt x="452" y="440" on="0"/>
        <pt x="452" y="591" on="0"/>
        <pt x="388" y="649" on="0"/>
      </contour>
    </TTGlyph>
    <TTGlyph name="S" xMin="54" yMin="-11" xMax="500" yMax="712">
      <contour>
        <pt x="173" y="632" on="1"/>
        <pt x="152" y="605" on="0"/>
        <pt x="152" y="528" on="0"/>
        <pt x="190" y="478" on="0"/>
        <pt x="252" y="445" on="0"/>
        <pt x="326" y="414" on="0"/>
        <pt x="400" y="377" on="0"/>
        <pt x="462" y="328" on="0"/>
        <pt x="500" y="247" on="0"/>
        <pt x="500" y="194" on="1"/>
        <pt x="500" y="93" on="0"/>
        <pt x="370" y="-11" on="0"/>
        <pt x="144" y="-11" on="0"/>
        <pt x="54" y="53" on="1"/>
        <pt x="57" y="119" on="0"/>
        <pt x="90" y="168" on="1"/>
        <pt x="130" y="120" on="0"/>
        <pt x="244" y="58" on="0"/>
        <pt x="348" y="58" on="0"/>
        <pt x="385" y="81" on="1"/>
        <pt x="410" y="111" on="0"/>
        <pt x="410" y="209" on="0"/>
        <pt x="359" y="271" on="0"/>
        <pt x="284" y="306" on="0"/>
        <pt x="195" y="349" on="0"/>
        <pt x="120" y="393" on="0"/>
        <pt x="69" y="475" on="0"/>
        <pt x="69" y="530" on="1"/>
        <pt x="69" y="622" on="0"/>
        <pt x="194" y="712" on="0"/>
        <pt x="383" y="712" on="0"/>
        <pt x="482" y="666" on="1"/>
        <pt x="471" y="607" on="0"/>
        <pt x="446" y="554" on="1"/>
        <pt x="405" y="595" on="0"/>
        <pt x="298" y="648" on="0"/>
        <pt x="202" y="648" on="0"/>
      </contour>
    </TTGlyph>
    <TTGlyph name="T" xMin="-15" yMin="0" xMax="502" yMax="703">
      <contour>
        <pt x="-10" y="614" on="1"/>
        <pt x="-10" y="659" on="0"/>
        <pt x="-15" y="703" on="1"/>
        <pt x="186" y="700" on="0"/>
        <pt x="301" y="700" on="0"/>
        <pt x="502" y="703" on="1"/>
        <pt x="495" y="642" on="0"/>
        <pt x="495" y="614" on="1"/>
        <pt x="488" y="614" on="1"/>
        <pt x="377" y="642" on="0"/>
        <pt x="299" y="644" on="1"/>
        <pt x="294" y="592" on="0"/>
        <pt x="294" y="483" on="1"/>
        <pt x="294" y="208" on="1"/>
        <pt x="294" y="73" on="0"/>
        <pt x="309" y="7" on="1"/>
        <pt x="309" y="0" on="1"/>
        <pt x="178" y="0" on="1"/>
        <pt x="178" y="7" on="1"/>
        <pt x="191" y="72" on="0"/>
        <pt x="191" y="204" on="1"/>
        <pt x="191" y="479" on="1"/>
        <pt x="191" y="592" on="0"/>
        <pt x="186" y="644" on="1"/>
        <pt x="110" y="642" on="0"/>
        <pt x="-3" y="614" on="1"/>
      </contour>
    </TTGlyph>
    <TTGlyph name="Thorn" xMin="108" yMin="0" xMax="582" yMax="699">
      <contour>
        <pt x="230" y="136" on="1"/>
        <pt x="230" y="53" on="0"/>
        <pt x="249" y="6" on="1"/>
        <pt x="249" y="0" on="1"/>
        <pt x="108" y="0" on="1"/>
        <pt x="108" y="7" on="1"/>
        <pt x="127" y="58" on="0"/>
        <pt x="127" y="150" on="1"/>
        <pt x="127" y="512" on="1"/>
        <pt x="125" y="639" on="0"/>
        <pt x="112" y="692" on="1"/>
        <pt x="112" y="699" on="1"/>
        <pt x="245" y="699" on="1"/>
        <pt x="245" y="692" on="1"/>
        <pt x="242" y="676" on="0"/>
        <pt x="236" y="615" on="1"/>
        <pt x="326" y="615" on="1"/>
        <pt x="582" y="615" on="0"/>
        <pt x="582" y="424" on="1"/>
        <pt x="582" y="316" on="0"/>
        <pt x="431" y="195" on="0"/>
        <pt x="312" y="195" on="1"/>
        <pt x="294" y="195" on="0"/>
        <pt x="230" y="203" on="1"/>
      </contour>
      <contour>
        <pt x="469" y="489" on="0"/>
        <pt x="398" y="564" on="0"/>
        <pt x="247" y="564" on="0"/>
        <pt x="232" y="562" on="1"/>
        <pt x="230" y="535" on="0"/>
        <pt x="230" y="387" on="1"/>
        <pt x="230" y="251" on="1"/>
        <pt x="269" y="240" on="0"/>
        <pt x="311" y="240" on="1"/>
        <pt x="388" y="240" on="0"/>
        <pt x="469" y="331" on="0"/>
      </contour>
    </TTGlyph>
    <TTGlyph name="U" xMin="73" yMin="-12" xMax="624" yMax="700">
      <contour>
        <pt x="609" y="501" on="1"/>
        <pt x="609" y="311" on="1"/>
        <pt x="609" y="129" on="0"/>
        <pt x="491" y="-12" on="0"/>
        <pt x="212" y="-12" on="0"/>
        <pt x="88" y="125" on="0"/>
        <pt x="88" y="275" on="1"/>
        <pt x="88" y="486" on="1"/>
        <pt x="88" y="635" on="0"/>
        <pt x="73" y="693" on="1"/>
        <pt x="73" y="700" on="1"/>
        <pt x="203" y="700" on="1"/>
        <pt x="203" y="693" on="1"/>
        <pt x="190" y="608" on="0"/>
        <pt x="190" y="455" on="1"/>
        <pt x="190" y="321" on="1"/>
        <pt x="190" y="153" on="0"/>
        <pt x="234" y="104" on="1"/>
        <pt x="276" y="57" on="0"/>
        <pt x="452" y="57" on="0"/>
        <pt x="495" y="87" on="1"/>
        <pt x="521" y="129" on="0"/>
        <pt x="535" y="275" on="0"/>
        <pt x="535" y="609" on="0"/>
        <pt x="520" y="693" on="1"/>
        <pt x="520" y="700" on="1"/>
        <pt x="624" y="700" on="1"/>
        <pt x="624" y="693" on="1"/>
        <pt x="618" y="669" on="0"/>
        <pt x="609" y="536" on="0"/>
      </contour>
    </TTGlyph>
    <TTGlyph name="Uacute" xMin="73" yMin="-12" xMax="624" yMax="887">
      <contour>
        <pt x="609" y="501" on="1"/>
        <pt x="609" y="311" on="1"/>
        <pt x="609" y="215" on="0"/>
        <pt x="580" y="91" on="0"/>
        <pt x="513" y="17" on="0"/>
        <pt x="417" y="-12" on="0"/>
        <pt x="344" y="-12" on="1"/>
        <pt x="202" y="-12" on="0"/>
        <pt x="88" y="123" on="0"/>
        <pt x="88" y="275" on="1"/>
        <pt x="88" y="486" on="1"/>
        <pt x="88" y="635" on="0"/>
        <pt x="73" y="693" on="1"/>
        <pt x="73" y="700" on="1"/>
        <pt x="203" y="700" on="1"/>
        <pt x="203" y="693" on="1"/>
        <pt x="190" y="608" on="0"/>
        <pt x="190" y="367" on="1"/>
        <pt x="190" y="367" on="0"/>
        <pt x="190" y="302" on="1"/>
        <pt x="190" y="219" on="0"/>
        <pt x="206" y="135" on="0"/>
        <pt x="218" y="113" on="0"/>
        <pt x="237" y="83" on="0"/>
        <pt x="261" y="70" on="0"/>
        <pt x="278" y="63" on="1"/>
        <pt x="303" y="52" on="0"/>
        <pt x="360" y="52" on="1"/>
        <pt x="450" y="52" on="0"/>
        <pt x="495" y="82" on="1"/>
        <pt x="521" y="124" on="0"/>
        <pt x="535" y="270" on="0"/>
        <pt x="535" y="609" on="0"/>
        <pt x="520" y="693" on="1"/>
        <pt x="520" y="700" on="1"/>
        <pt x="624" y="700" on="1"/>
        <pt x="624" y="693" on="1"/>
        <pt x="618" y="669" on="0"/>
        <pt x="609" y="536" on="0"/>
      </contour>
      <contour>
        <pt x="284" y="751" on="1"/>
        <pt x="274" y="784" on="1"/>
        <pt x="389" y="821" on="0"/>
        <pt x="476" y="887" on="1"/>
        <pt x="507" y="852" on="0"/>
        <pt x="513" y="806" on="1"/>
        <pt x="398" y="760" on="0"/>
      </contour>
    </TTGlyph>
    <TTGlyph name="Ucircumflex" xMin="73" yMin="-12" xMax="624" yMax="903">
      <contour>
        <pt x="609" y="501" on="1"/>
        <pt x="609" y="311" on="1"/>
        <pt x="609" y="215" on="0"/>
        <pt x="580" y="91" on="0"/>
        <pt x="513" y="17" on="0"/>
        <pt x="417" y="-12" on="0"/>
        <pt x="344" y="-12" on="1"/>
        <pt x="202" y="-12" on="0"/>
        <pt x="88" y="123" on="0"/>
        <pt x="88" y="275" on="1"/>
        <pt x="88" y="486" on="1"/>
        <pt x="88" y="635" on="0"/>
        <pt x="73" y="693" on="1"/>
        <pt x="73" y="700" on="1"/>
        <pt x="203" y="700" on="1"/>
        <pt x="203" y="693" on="1"/>
        <pt x="190" y="608" on="0"/>
        <pt x="190" y="367" on="1"/>
        <pt x="190" y="367" on="0"/>
        <pt x="190" y="302" on="1"/>
        <pt x="190" y="219" on="0"/>
        <pt x="206" y="135" on="0"/>
        <pt x="218" y="113" on="0"/>
        <pt x="237" y="83" on="0"/>
        <pt x="261" y="70" on="0"/>
        <pt x="278" y="63" on="1"/>
        <pt x="303" y="52" on="0"/>
        <pt x="360" y="52" on="1"/>
        <pt x="450" y="52" on="0"/>
        <pt x="495" y="82" on="1"/>
        <pt x="521" y="124" on="0"/>
        <pt x="535" y="270" on="0"/>
        <pt x="535" y="609" on="0"/>
        <pt x="520" y="693" on="1"/>
        <pt x="520" y="700" on="1"/>
        <pt x="624" y="700" on="1"/>
        <pt x="624" y="693" on="1"/>
        <pt x="618" y="669" on="0"/>
        <pt x="609" y="536" on="0"/>
      </contour>
      <contour>
        <pt x="315" y="903" on="1"/>
        <pt x="395" y="903" on="1"/>
        <pt x="421" y="850" on="0"/>
        <pt x="470" y="805" on="1"/>
        <pt x="487" y="789" on="0"/>
        <pt x="520" y="761" on="1"/>
        <pt x="492" y="730" on="1"/>
        <pt x="421" y="771" on="0"/>
        <pt x="352" y="845" on="1"/>
        <pt x="286" y="779" on="0"/>
        <pt x="224" y="735" on="1"/>
        <pt x="195" y="765" on="1"/>
        <pt x="282" y="841" on="0"/>
      </contour>
    </TTGlyph>
    <TTGlyph name="Udieresis" xMin="107" yMin="-12" xMax="658" yMax="859">
      <contour>
        <pt x="643" y="501" on="1"/>
        <pt x="643" y="311" on="1"/>
        <pt x="643" y="215" on="0"/>
        <pt x="614" y="91" on="0"/>
        <pt x="547" y="17" on="0"/>
        <pt x="451" y="-12" on="0"/>
        <pt x="378" y="-12" on="1"/>
        <pt x="236" y="-12" on="0"/>
        <pt x="122" y="123" on="0"/>
        <pt x="122" y="275" on="1"/>
        <pt x="122" y="486" on="1"/>
        <pt x="122" y="635" on="0"/>
        <pt x="107" y="693" on="1"/>
        <pt x="107" y="700" on="1"/>
        <pt x="237" y="700" on="1"/>
        <pt x="237" y="693" on="1"/>
        <pt x="224" y="609" on="0"/>
        <pt x="224" y="367" on="1"/>
        <pt x="224" y="367" on="0"/>
        <pt x="224" y="302" on="1"/>
        <pt x="224" y="219" on="0"/>
        <pt x="240" y="135" on="0"/>
        <pt x="252" y="113" on="0"/>
        <pt x="271" y="83" on="0"/>
        <pt x="295" y="70" on="0"/>
        <pt x="312" y="63" on="1"/>
        <pt x="337" y="52" on="0"/>
        <pt x="394" y="52" on="1"/>
        <pt x="484" y="52" on="0"/>
        <pt x="529" y="82" on="1"/>
        <pt x="555" y="124" on="0"/>
        <pt x="569" y="270" on="0"/>
        <pt x="569" y="609" on="0"/>
        <pt x="554" y="693" on="1"/>
        <pt x="554" y="700" on="1"/>
        <pt x="658" y="700" on="1"/>
        <pt x="658" y="693" on="1"/>
        <pt x="652" y="669" on="0"/>
        <pt x="643" y="536" on="0"/>
      </contour>
      <contour>
        <pt x="537" y="855" on="1"/>
        <pt x="544" y="847" on="0"/>
        <pt x="551" y="804" on="0"/>
        <pt x="551" y="783" on="0"/>
        <pt x="550" y="777" on="1"/>
        <pt x="542" y="770" on="1"/>
        <pt x="506" y="758" on="0"/>
        <pt x="470" y="755" on="1"/>
        <pt x="458" y="755" on="1"/>
        <pt x="448" y="758" on="1"/>
        <pt x="433" y="788" on="0"/>
        <pt x="433" y="836" on="1"/>
        <pt x="443" y="844" on="1"/>
        <pt x="479" y="857" on="0"/>
        <pt x="513" y="859" on="1"/>
        <pt x="529" y="859" on="1"/>
      </contour>
      <contour>
        <pt x="339" y="846" on="1"/>
        <pt x="346" y="838" on="0"/>
        <pt x="353" y="796" on="0"/>
        <pt x="353" y="774" on="0"/>
        <pt x="352" y="768" on="1"/>
        <pt x="344" y="761" on="1"/>
        <pt x="308" y="749" on="0"/>
        <pt x="272" y="746" on="1"/>
        <pt x="260" y="746" on="1"/>
        <pt x="250" y="749" on="1"/>
        <pt x="235" y="779" on="0"/>
        <pt x="235" y="827" on="1"/>
        <pt x="245" y="835" on="1"/>
        <pt x="281" y="848" on="0"/>
        <pt x="315" y="850" on="1"/>
        <pt x="331" y="850" on="1"/>
      </contour>
    </TTGlyph>
    <TTGlyph name="Ugrave" xMin="73" yMin="-12" xMax="624" yMax="887">
      <contour>
        <pt x="609" y="501" on="1"/>
        <pt x="609" y="311" on="1"/>
        <pt x="609" y="215" on="0"/>
        <pt x="580" y="91" on="0"/>
        <pt x="513" y="17" on="0"/>
        <pt x="417" y="-12" on="0"/>
        <pt x="344" y="-12" on="1"/>
        <pt x="202" y="-12" on="0"/>
        <pt x="88" y="123" on="0"/>
        <pt x="88" y="275" on="1"/>
        <pt x="88" y="486" on="1"/>
        <pt x="88" y="635" on="0"/>
        <pt x="73" y="693" on="1"/>
        <pt x="73" y="700" on="1"/>
        <pt x="203" y="700" on="1"/>
        <pt x="203" y="693" on="1"/>
        <pt x="190" y="608" on="0"/>
        <pt x="190" y="367" on="1"/>
        <pt x="190" y="367" on="0"/>
        <pt x="190" y="302" on="1"/>
        <pt x="190" y="219" on="0"/>
        <pt x="206" y="135" on="0"/>
        <pt x="218" y="113" on="0"/>
        <pt x="237" y="83" on="0"/>
        <pt x="261" y="70" on="0"/>
        <pt x="278" y="63" on="1"/>
        <pt x="303" y="52" on="0"/>
        <pt x="360" y="52" on="1"/>
        <pt x="450" y="52" on="0"/>
        <pt x="495" y="82" on="1"/>
        <pt x="521" y="124" on="0"/>
        <pt x="535" y="270" on="0"/>
        <pt x="535" y="609" on="0"/>
        <pt x="520" y="693" on="1"/>
        <pt x="520" y="700" on="1"/>
        <pt x="624" y="700" on="1"/>
        <pt x="624" y="693" on="1"/>
        <pt x="618" y="669" on="0"/>
        <pt x="609" y="536" on="0"/>
      </contour>
      <contour>
        <pt x="436" y="784" on="1"/>
        <pt x="426" y="751" on="1"/>
        <pt x="312" y="760" on="0"/>
        <pt x="197" y="806" on="1"/>
        <pt x="203" y="852" on="0"/>
        <pt x="234" y="887" on="1"/>
        <pt x="321" y="821" on="0"/>
      </contour>
    </TTGlyph>
    <TTGlyph name="V" xMin="-5" yMin="-13" xMax="630" yMax="700">
      <contour>
        <pt x="484" y="700" on="1"/>
        <pt x="630" y="700" on="1"/>
        <pt x="630" y="690" on="1"/>
        <pt x="580" y="651" on="0"/>
        <pt x="496" y="399" on="1"/>
        <pt x="391" y="68" on="0"/>
        <pt x="372" y="-1" on="1"/>
        <pt x="250" y="-13" on="1"/>
        <pt x="250" y="20" on="0"/>
        <pt x="186" y="214" on="1"/>
        <pt x="40" y="659" on="0"/>
        <pt x="-5" y="690" on="1"/>
        <pt x="-5" y="700" on="1"/>
        <pt x="158" y="700" on="1"/>
        <pt x="158" y="683" on="1"/>
        <pt x="158" y="630" on="0"/>
        <pt x="199" y="498" on="1"/>
        <pt x="330" y="75" on="1"/>
        <pt x="419" y="382" on="0"/>
        <pt x="435" y="443" on="0"/>
        <pt x="445" y="478" on="1"/>
        <pt x="470" y="566" on="0"/>
        <pt x="482" y="635" on="0"/>
        <pt x="484" y="683" on="1"/>
      </contour>
    </TTGlyph>
    <TTGlyph name="W" xMin="-4" yMin="-13" xMax="961" yMax="700">
      <contour>
        <pt x="826" y="683" on="1"/>
        <pt x="826" y="700" on="1"/>
        <pt x="961" y="700" on="1"/>
        <pt x="961" y="690" on="1"/>
        <pt x="890" y="538" on="0"/>
        <pt x="804" y="194" on="1"/>
        <pt x="761" y="25" on="0"/>
        <pt x="754" y="-1" on="1"/>
        <pt x="626" y="-13" on="1"/>
        <pt x="626" y="42" on="0"/>
        <pt x="521" y="410" on="1"/>
        <pt x="517" y="424" on="0"/>
        <pt x="507" y="463" on="0"/>
        <pt x="490" y="526" on="0"/>
        <pt x="483" y="552" on="1"/>
        <pt x="481" y="552" on="1"/>
        <pt x="474" y="525" on="0"/>
        <pt x="444" y="430" on="0"/>
        <pt x="379" y="204" on="0"/>
        <pt x="350" y="80" on="0"/>
        <pt x="327" y="-1" on="1"/>
        <pt x="199" y="-13" on="1"/>
        <pt x="199" y="35" on="0"/>
        <pt x="69" y="492" on="1"/>
        <pt x="38" y="601" on="0"/>
        <pt x="12" y="671" on="0"/>
        <pt x="-4" y="690" on="1"/>
        <pt x="-4" y="700" on="1"/>
        <pt x="145" y="700" on="1"/>
        <pt x="145" y="683" on="1"/>
        <pt x="145" y="617" on="0"/>
        <pt x="176" y="498" on="1"/>
        <pt x="282" y="75" on="1"/>
        <pt x="375" y="389" on="0"/>
        <pt x="410" y="590" on="1"/>
        <pt x="422" y="661" on="0"/>
        <pt x="423" y="700" on="1"/>
        <pt x="546" y="700" on="1"/>
        <pt x="556" y="605" on="0"/>
        <pt x="608" y="420" on="1"/>
        <pt x="627" y="353" on="0"/>
        <pt x="706" y="75" on="1"/>
        <pt x="710" y="94" on="0"/>
        <pt x="736" y="186" on="1"/>
        <pt x="826" y="513" on="0"/>
      </contour>
    </TTGlyph>
    <TTGlyph name="X" xMin="-14" yMin="-1" xMax="602" yMax="700">
      <contour>
        <pt x="281" y="302" on="1"/>
        <pt x="129" y="73" on="0"/>
        <pt x="129" y="-1" on="1"/>
        <pt x="-14" y="0" on="1"/>
        <pt x="-14" y="10" on="1"/>
        <pt x="37" y="39" on="0"/>
        <pt x="103" y="143" on="1"/>
        <pt x="214" y="312" on="0"/>
        <pt x="240" y="355" on="1"/>
        <pt x="161" y="488" on="1"/>
        <pt x="56" y="665" on="0"/>
        <pt x="3" y="690" on="1"/>
        <pt x="3" y="700" on="1"/>
        <pt x="177" y="700" on="1"/>
        <pt x="177" y="689" on="1"/>
        <pt x="177" y="655" on="0"/>
        <pt x="200" y="609" on="1"/>
        <pt x="223" y="560" on="0"/>
        <pt x="302" y="430" on="1"/>
        <pt x="358" y="514" on="0"/>
        <pt x="385" y="567" on="1"/>
        <pt x="434" y="661" on="0"/>
        <pt x="434" y="700" on="1"/>
        <pt x="578" y="700" on="1"/>
        <pt x="578" y="690" on="1"/>
        <pt x="545" y="669" on="0"/>
        <pt x="498" y="613" on="0"/>
        <pt x="358" y="403" on="0"/>
        <pt x="342" y="378" on="1"/>
        <pt x="425" y="245" on="1"/>
        <pt x="499" y="121" on="0"/>
        <pt x="572" y="26" on="0"/>
        <pt x="602" y="10" on="1"/>
        <pt x="602" y="0" on="1"/>
        <pt x="425" y="0" on="1"/>
        <pt x="425" y="8" on="1"/>
        <pt x="425" y="41" on="0"/>
        <pt x="391" y="104" on="1"/>
        <pt x="342" y="193" on="0"/>
        <pt x="321" y="233" on="1"/>
      </contour>
    </TTGlyph>
    <TTGlyph name="Y" xMin="-15" yMin="0" xMax="520" yMax="700">
      <contour>
        <pt x="277" y="348" on="1"/>
        <pt x="404" y="623" on="0"/>
        <pt x="404" y="683" on="1"/>
        <pt x="404" y="700" on="1"/>
        <pt x="520" y="700" on="1"/>
        <pt x="520" y="690" on="1"/>
        <pt x="479" y="660" on="0"/>
        <pt x="311" y="290" on="1"/>
        <pt x="311" y="210" on="1"/>
        <pt x="311" y="175" on="0"/>
        <pt x="320" y="31" on="0"/>
        <pt x="325" y="7" on="1"/>
        <pt x="325" y="0" on="1"/>
        <pt x="197" y="0" on="1"/>
        <pt x="197" y="7" on="1"/>
        <pt x="211" y="68" on="0"/>
        <pt x="211" y="183" on="1"/>
        <pt x="211" y="293" on="1"/>
        <pt x="115" y="482" on="1"/>
        <pt x="16" y="671" on="0"/>
        <pt x="-15" y="690" on="1"/>
        <pt x="-15" y="700" on="1"/>
        <pt x="133" y="700" on="1"/>
        <pt x="133" y="683" on="1"/>
        <pt x="133" y="644" on="0"/>
        <pt x="198" y="504" on="0"/>
        <pt x="230" y="436" on="0"/>
        <pt x="234" y="429" on="1"/>
        <pt x="247" y="409" on="0"/>
      </contour>
    </TTGlyph>
    <TTGlyph name="Yacute" xMin="-15" yMin="0" xMax="520" yMax="887">
      <contour>
        <pt x="277" y="348" on="1"/>
        <pt x="404" y="623" on="0"/>
        <pt x="404" y="683" on="1"/>
        <pt x="404" y="700" on="1"/>
        <pt x="520" y="700" on="1"/>
        <pt x="520" y="690" on="1"/>
        <pt x="479" y="660" on="0"/>
        <pt x="311" y="290" on="1"/>
        <pt x="311" y="210" on="1"/>
        <pt x="311" y="175" on="0"/>
        <pt x="320" y="31" on="0"/>
        <pt x="325" y="7" on="1"/>
        <pt x="325" y="0" on="1"/>
        <pt x="197" y="0" on="1"/>
        <pt x="197" y="7" on="1"/>
        <pt x="211" y="68" on="0"/>
        <pt x="211" y="183" on="1"/>
        <pt x="211" y="293" on="1"/>
        <pt x="115" y="482" on="1"/>
        <pt x="16" y="671" on="0"/>
        <pt x="-15" y="690" on="1"/>
        <pt x="-15" y="700" on="1"/>
        <pt x="133" y="700" on="1"/>
        <pt x="133" y="683" on="1"/>
        <pt x="133" y="644" on="0"/>
        <pt x="198" y="504" on="0"/>
        <pt x="230" y="436" on="0"/>
        <pt x="234" y="429" on="1"/>
        <pt x="247" y="409" on="0"/>
      </contour>
      <contour>
        <pt x="189" y="751" on="1"/>
        <pt x="179" y="784" on="1"/>
        <pt x="294" y="821" on="0"/>
        <pt x="381" y="887" on="1"/>
        <pt x="412" y="852" on="0"/>
        <pt x="418" y="806" on="1"/>
        <pt x="303" y="760" on="0"/>
      </contour>
    </TTGlyph>
    <TTGlyph name="Z" xMin="-4" yMin="0" xMax="519" yMax="705">
      <contour>
        <pt x="124" y="63" on="1"/>
        <pt x="147" y="60" on="0"/>
        <pt x="319" y="60" on="0"/>
        <pt x="481" y="78" on="0"/>
        <pt x="512" y="92" on="1"/>
        <pt x="519" y="92" on="1"/>
        <pt x="501" y="0" on="1"/>
        <pt x="25" y="0" on="1"/>
        <pt x="-4" y="51" on="1"/>
        <pt x="384" y="638" on="1"/>
        <pt x="361" y="641" on="0"/>
        <pt x="214" y="641" on="0"/>
        <pt x="74" y="618" on="0"/>
        <pt x="38" y="602" on="1"/>
        <pt x="31" y="602" on="1"/>
        <pt x="48" y="698" on="1"/>
        <pt x="475" y="705" on="1"/>
        <pt x="509" y="645" on="1"/>
      </contour>
    </TTGlyph>
    <TTGlyph name="a" xMin="45" yMin="-14" xMax="476" yMax="492">
      <contour>
        <pt x="330" y="200" on="1"/>
        <pt x="289" y="215" on="0"/>
        <pt x="182" y="215" on="0"/>
        <pt x="158" y="198" on="1"/>
        <pt x="143" y="175" on="0"/>
        <pt x="143" y="98" on="0"/>
        <pt x="185" y="54" on="0"/>
        <pt x="248" y="54" on="0"/>
        <pt x="314" y="87" on="0"/>
        <pt x="330" y="106" on="1"/>
      </contour>
      <contour>
        <pt x="346" y="56" on="1"/>
        <pt x="285" y="-11" on="0"/>
        <pt x="132" y="-11" on="0"/>
        <pt x="45" y="55" on="0"/>
        <pt x="45" y="202" on="0"/>
        <pt x="148" y="266" on="0"/>
        <pt x="242" y="266" on="1"/>
        <pt x="330" y="263" on="1"/>
        <pt x="330" y="320" on="1"/>
        <pt x="330" y="373" on="0"/>
        <pt x="278" y="439" on="0"/>
        <pt x="225" y="439" on="1"/>
        <pt x="186" y="438" on="0"/>
        <pt x="100" y="364" on="1"/>
        <pt x="71" y="401" on="0"/>
        <pt x="59" y="460" on="1"/>
        <pt x="158" y="492" on="0"/>
        <pt x="324" y="492" on="0"/>
        <pt x="424" y="406" on="0"/>
        <pt x="424" y="327" on="1"/>
        <pt x="424" y="159" on="1"/>
        <pt x="425" y="114" on="0"/>
        <pt x="452" y="37" on="0"/>
        <pt x="474" y="22" on="1"/>
        <pt x="476" y="12" on="1"/>
        <pt x="369" y="-14" on="1"/>
        <pt x="356" y="18" on="0"/>
      </contour>
    </TTGlyph>
    <TTGlyph name="aacute" xMin="45" yMin="-14" xMax="476" yMax="732">
      <contour>
        <pt x="402" y="674" on="1"/>
        <pt x="304" y="579" on="0"/>
        <pt x="215" y="530" on="1"/>
        <pt x="192" y="556" on="1"/>
        <pt x="280" y="636" on="0"/>
        <pt x="334" y="732" on="1"/>
        <pt x="377" y="715" on="0"/>
      </contour>
      <contour>
        <pt x="330" y="200" on="1"/>
        <pt x="289" y="215" on="0"/>
        <pt x="182" y="215" on="0"/>
        <pt x="158" y="198" on="1"/>
        <pt x="143" y="175" on="0"/>
        <pt x="143" y="98" on="0"/>
        <pt x="185" y="54" on="0"/>
        <pt x="248" y="54" on="0"/>
        <pt x="314" y="87" on="0"/>
        <pt x="330" y="106" on="1"/>
      </contour>
      <contour>
        <pt x="346" y="56" on="1"/>
        <pt x="285" y="-11" on="0"/>
        <pt x="132" y="-11" on="0"/>
        <pt x="45" y="55" on="0"/>
        <pt x="45" y="202" on="0"/>
        <pt x="148" y="266" on="0"/>
        <pt x="242" y="266" on="1"/>
        <pt x="330" y="263" on="1"/>
        <pt x="330" y="320" on="1"/>
        <pt x="330" y="373" on="0"/>
        <pt x="278" y="439" on="0"/>
        <pt x="225" y="439" on="1"/>
        <pt x="186" y="438" on="0"/>
        <pt x="100" y="364" on="1"/>
        <pt x="71" y="401" on="0"/>
        <pt x="59" y="460" on="1"/>
        <pt x="158" y="492" on="0"/>
        <pt x="324" y="492" on="0"/>
        <pt x="424" y="406" on="0"/>
        <pt x="424" y="327" on="1"/>
        <pt x="424" y="159" on="1"/>
        <pt x="425" y="114" on="0"/>
        <pt x="452" y="37" on="0"/>
        <pt x="474" y="22" on="1"/>
        <pt x="476" y="12" on="1"/>
        <pt x="369" y="-14" on="1"/>
        <pt x="356" y="18" on="0"/>
      </contour>
    </TTGlyph>
    <TTGlyph name="acircumflex" xMin="45" yMin="-14" xMax="476" yMax="729">
      <contour>
        <pt x="208" y="718" on="1"/>
        <pt x="278" y="729" on="1"/>
        <pt x="299" y="667" on="0"/>
        <pt x="342" y="616" on="1"/>
        <pt x="357" y="598" on="0"/>
        <pt x="387" y="564" on="1"/>
        <pt x="353" y="530" on="1"/>
        <pt x="328" y="550" on="0"/>
        <pt x="251" y="635" on="0"/>
        <pt x="235" y="661" on="1"/>
        <pt x="190" y="599" on="0"/>
        <pt x="131" y="538" on="1"/>
        <pt x="101" y="565" on="1"/>
        <pt x="132" y="600" on="0"/>
        <pt x="158" y="630" on="0"/>
        <pt x="198" y="690" on="0"/>
      </contour>
      <contour>
        <pt x="330" y="200" on="1"/>
        <pt x="289" y="215" on="0"/>
        <pt x="182" y="215" on="0"/>
        <pt x="158" y="198" on="1"/>
        <pt x="143" y="175" on="0"/>
        <pt x="143" y="98" on="0"/>
        <pt x="185" y="54" on="0"/>
        <pt x="248" y="54" on="0"/>
        <pt x="314" y="87" on="0"/>
        <pt x="330" y="106" on="1"/>
      </contour>
      <contour>
        <pt x="346" y="56" on="1"/>
        <pt x="285" y="-11" on="0"/>
        <pt x="132" y="-11" on="0"/>
        <pt x="45" y="55" on="0"/>
        <pt x="45" y="202" on="0"/>
        <pt x="148" y="266" on="0"/>
        <pt x="242" y="266" on="1"/>
        <pt x="330" y="263" on="1"/>
        <pt x="330" y="320" on="1"/>
        <pt x="330" y="373" on="0"/>
        <pt x="278" y="439" on="0"/>
        <pt x="225" y="439" on="1"/>
        <pt x="186" y="438" on="0"/>
        <pt x="100" y="364" on="1"/>
        <pt x="71" y="401" on="0"/>
        <pt x="59" y="460" on="1"/>
        <pt x="158" y="492" on="0"/>
        <pt x="324" y="492" on="0"/>
        <pt x="424" y="406" on="0"/>
        <pt x="424" y="327" on="1"/>
        <pt x="424" y="159" on="1"/>
        <pt x="425" y="114" on="0"/>
        <pt x="452" y="37" on="0"/>
        <pt x="474" y="22" on="1"/>
        <pt x="476" y="12" on="1"/>
        <pt x="369" y="-14" on="1"/>
        <pt x="356" y="18" on="0"/>
      </contour>
    </TTGlyph>
    <TTGlyph name="acute" xMin="145" yMin="530" xMax="355" yMax="732">
      <contour>
        <pt x="355" y="674" on="1"/>
        <pt x="257" y="579" on="0"/>
        <pt x="168" y="530" on="1"/>
        <pt x="145" y="556" on="1"/>
        <pt x="233" y="636" on="0"/>
        <pt x="287" y="732" on="1"/>
        <pt x="330" y="715" on="0"/>
      </contour>
    </TTGlyph>
    <TTGlyph name="acute.cap" xMin="132" yMin="751" xMax="371" yMax="887">
      <contour>
        <pt x="142" y="751" on="1"/>
        <pt x="132" y="784" on="1"/>
        <pt x="247" y="821" on="0"/>
        <pt x="334" y="887" on="1"/>
        <pt x="365" y="852" on="0"/>
        <pt x="371" y="806" on="1"/>
        <pt x="256" y="760" on="0"/>
      </contour>
    </TTGlyph>
    <TTGlyph name="adieresis" xMin="45" yMin="-14" xMax="476" yMax="691">
      <contour>
        <pt x="400" y="687" on="1"/>
        <pt x="407" y="679" on="0"/>
        <pt x="414" y="636" on="0"/>
        <pt x="414" y="614" on="0"/>
        <pt x="413" y="607" on="1"/>
        <pt x="405" y="600" on="1"/>
        <pt x="368" y="588" on="0"/>
        <pt x="331" y="585" on="1"/>
        <pt x="319" y="585" on="1"/>
        <pt x="309" y="588" on="1"/>
        <pt x="294" y="618" on="0"/>
        <pt x="294" y="668" on="1"/>
        <pt x="304" y="676" on="1"/>
        <pt x="340" y="689" on="0"/>
        <pt x="375" y="691" on="1"/>
        <pt x="392" y="691" on="1"/>
      </contour>
      <contour>
        <pt x="184" y="678" on="1"/>
        <pt x="191" y="670" on="0"/>
        <pt x="198" y="627" on="0"/>
        <pt x="198" y="605" on="0"/>
        <pt x="197" y="598" on="1"/>
        <pt x="189" y="591" on="1"/>
        <pt x="153" y="579" on="0"/>
        <pt x="116" y="576" on="1"/>
        <pt x="103" y="576" on="1"/>
        <pt x="93" y="579" on="1"/>
        <pt x="78" y="609" on="0"/>
        <pt x="78" y="658" on="1"/>
        <pt x="88" y="667" on="1"/>
        <pt x="126" y="680" on="0"/>
        <pt x="160" y="682" on="1"/>
        <pt x="176" y="682" on="1"/>
      </contour>
      <contour>
        <pt x="330" y="200" on="1"/>
        <pt x="289" y="215" on="0"/>
        <pt x="182" y="215" on="0"/>
        <pt x="158" y="198" on="1"/>
        <pt x="143" y="175" on="0"/>
        <pt x="143" y="98" on="0"/>
        <pt x="185" y="54" on="0"/>
        <pt x="248" y="54" on="0"/>
        <pt x="314" y="87" on="0"/>
        <pt x="330" y="106" on="1"/>
      </contour>
      <contour>
        <pt x="346" y="56" on="1"/>
        <pt x="285" y="-11" on="0"/>
        <pt x="132" y="-11" on="0"/>
        <pt x="45" y="55" on="0"/>
        <pt x="45" y="202" on="0"/>
        <pt x="148" y="266" on="0"/>
        <pt x="242" y="266" on="1"/>
        <pt x="330" y="263" on="1"/>
        <pt x="330" y="320" on="1"/>
        <pt x="330" y="373" on="0"/>
        <pt x="278" y="439" on="0"/>
        <pt x="225" y="439" on="1"/>
        <pt x="186" y="438" on="0"/>
        <pt x="100" y="364" on="1"/>
        <pt x="71" y="401" on="0"/>
        <pt x="59" y="460" on="1"/>
        <pt x="158" y="492" on="0"/>
        <pt x="324" y="492" on="0"/>
        <pt x="424" y="406" on="0"/>
        <pt x="424" y="327" on="1"/>
        <pt x="424" y="159" on="1"/>
        <pt x="425" y="114" on="0"/>
        <pt x="452" y="37" on="0"/>
        <pt x="474" y="22" on="1"/>
        <pt x="476" y="12" on="1"/>
        <pt x="369" y="-14" on="1"/>
        <pt x="356" y="18" on="0"/>
      </contour>
    </TTGlyph>
    <TTGlyph name="ae" xMin="45" yMin="-11" xMax="740" yMax="492">
      <contour>
        <pt x="676" y="31" on="0"/>
        <pt x="579" y="-11" on="0"/>
        <pt x="496" y="-11" on="0"/>
        <pt x="402" y="34" on="0"/>
        <pt x="376" y="74" on="1"/>
        <pt x="298" y="-11" on="0"/>
        <pt x="200" y="-11" on="1"/>
        <pt x="134" y="-11" on="0"/>
        <pt x="45" y="58" on="0"/>
        <pt x="45" y="126" on="1"/>
        <pt x="45" y="261" on="0"/>
        <pt x="242" y="261" on="1"/>
        <pt x="330" y="257" on="1"/>
        <pt x="330" y="320" on="1"/>
        <pt x="330" y="373" on="0"/>
        <pt x="278" y="439" on="0"/>
        <pt x="225" y="439" on="1"/>
        <pt x="186" y="438" on="0"/>
        <pt x="100" y="364" on="1"/>
        <pt x="71" y="401" on="0"/>
        <pt x="59" y="460" on="1"/>
        <pt x="158" y="492" on="0"/>
        <pt x="237" y="492" on="1"/>
        <pt x="354" y="492" on="0"/>
        <pt x="400" y="417" on="1"/>
        <pt x="467" y="492" on="0"/>
        <pt x="653" y="492" on="0"/>
        <pt x="739" y="374" on="0"/>
        <pt x="739" y="271" on="1"/>
        <pt x="702" y="235" on="1"/>
        <pt x="436" y="235" on="1"/>
        <pt x="436" y="153" on="0"/>
        <pt x="508" y="67" on="0"/>
        <pt x="629" y="67" on="0"/>
        <pt x="715" y="116" on="1"/>
        <pt x="740" y="78" on="1"/>
        <pt x="722" y="63" on="0"/>
      </contour>
      <contour>
        <pt x="546" y="442" on="1"/>
        <pt x="499" y="442" on="0"/>
        <pt x="476" y="423" on="1"/>
        <pt x="457" y="397" on="0"/>
        <pt x="435" y="317" on="0"/>
        <pt x="435" y="287" on="1"/>
        <pt x="640" y="295" on="1"/>
        <pt x="640" y="442" on="0"/>
      </contour>
      <contour>
        <pt x="333" y="196" on="1"/>
        <pt x="289" y="210" on="0"/>
        <pt x="183" y="210" on="0"/>
        <pt x="158" y="194" on="1"/>
        <pt x="143" y="172" on="0"/>
        <pt x="143" y="98" on="0"/>
        <pt x="187" y="54" on="0"/>
        <pt x="258" y="54" on="0"/>
        <pt x="328" y="92" on="0"/>
        <pt x="349" y="119" on="1"/>
        <pt x="337" y="158" on="0"/>
      </contour>
    </TTGlyph>
    <TTGlyph name="agrave" xMin="45" yMin="-14" xMax="476" yMax="732">
      <contour>
        <pt x="311" y="530" on="1"/>
        <pt x="216" y="582" on="0"/>
        <pt x="124" y="674" on="1"/>
        <pt x="149" y="715" on="0"/>
        <pt x="192" y="732" on="1"/>
        <pt x="246" y="636" on="0"/>
        <pt x="334" y="556" on="1"/>
      </contour>
      <contour>
        <pt x="330" y="200" on="1"/>
        <pt x="289" y="215" on="0"/>
        <pt x="182" y="215" on="0"/>
        <pt x="158" y="198" on="1"/>
        <pt x="143" y="175" on="0"/>
        <pt x="143" y="98" on="0"/>
        <pt x="185" y="54" on="0"/>
        <pt x="248" y="54" on="0"/>
        <pt x="314" y="87" on="0"/>
        <pt x="330" y="106" on="1"/>
      </contour>
      <contour>
        <pt x="346" y="56" on="1"/>
        <pt x="285" y="-11" on="0"/>
        <pt x="132" y="-11" on="0"/>
        <pt x="45" y="55" on="0"/>
        <pt x="45" y="202" on="0"/>
        <pt x="148" y="266" on="0"/>
        <pt x="242" y="266" on="1"/>
        <pt x="330" y="263" on="1"/>
        <pt x="330" y="320" on="1"/>
        <pt x="330" y="373" on="0"/>
        <pt x="278" y="439" on="0"/>
        <pt x="225" y="439" on="1"/>
        <pt x="186" y="438" on="0"/>
        <pt x="100" y="364" on="1"/>
        <pt x="71" y="401" on="0"/>
        <pt x="59" y="460" on="1"/>
        <pt x="158" y="492" on="0"/>
        <pt x="324" y="492" on="0"/>
        <pt x="424" y="406" on="0"/>
        <pt x="424" y="327" on="1"/>
        <pt x="424" y="159" on="1"/>
        <pt x="425" y="114" on="0"/>
        <pt x="452" y="37" on="0"/>
        <pt x="474" y="22" on="1"/>
        <pt x="476" y="12" on="1"/>
        <pt x="369" y="-14" on="1"/>
        <pt x="356" y="18" on="0"/>
      </contour>
    </TTGlyph>
    <TTGlyph name="ampersand" xMin="40" yMin="-57" xMax="777" yMax="711">
      <contour>
        <pt x="666" y="402" on="1"/>
        <pt x="599" y="402" on="1"/>
        <pt x="603" y="358" on="0"/>
        <pt x="603" y="322" on="1"/>
        <pt x="603" y="224" on="0"/>
        <pt x="571" y="154" on="1"/>
        <pt x="663" y="91" on="0"/>
        <pt x="777" y="32" on="1"/>
        <pt x="711" y="-57" on="1"/>
        <pt x="635" y="5" on="0"/>
        <pt x="602" y="28" on="1"/>
        <pt x="529" y="85" on="1"/>
        <pt x="447" y="-12" on="0"/>
        <pt x="298" y="-12" on="1"/>
        <pt x="169" y="-12" on="0"/>
        <pt x="40" y="116" on="0"/>
        <pt x="40" y="218" on="1"/>
        <pt x="40" y="267" on="0"/>
        <pt x="70" y="345" on="0"/>
        <pt x="93" y="366" on="1"/>
        <pt x="134" y="403" on="0"/>
        <pt x="173" y="414" on="1"/>
        <pt x="108" y="499" on="0"/>
        <pt x="108" y="575" on="1"/>
        <pt x="108" y="711" on="0"/>
        <pt x="287" y="711" on="1"/>
        <pt x="385" y="711" on="0"/>
        <pt x="472" y="682" on="1"/>
        <pt x="465" y="619" on="0"/>
        <pt x="435" y="580" on="1"/>
        <pt x="346" y="655" on="0"/>
        <pt x="280" y="655" on="1"/>
        <pt x="236" y="655" on="0"/>
        <pt x="187" y="606" on="0"/>
        <pt x="187" y="559" on="1"/>
        <pt x="187" y="467" on="0"/>
        <pt x="375" y="306" on="1"/>
        <pt x="446" y="244" on="0"/>
        <pt x="522" y="189" on="1"/>
        <pt x="532" y="236" on="0"/>
        <pt x="532" y="345" on="0"/>
        <pt x="513" y="405" on="1"/>
        <pt x="407" y="403" on="1"/>
        <pt x="447" y="461" on="1"/>
        <pt x="523" y="454" on="0"/>
        <pt x="558" y="454" on="1"/>
        <pt x="693" y="460" on="1"/>
      </contour>
      <contour>
        <pt x="490" y="117" on="1"/>
        <pt x="287" y="283" on="0"/>
        <pt x="202" y="380" on="1"/>
        <pt x="136" y="335" on="0"/>
        <pt x="136" y="238" on="1"/>
        <pt x="136" y="161" on="0"/>
        <pt x="230" y="53" on="0"/>
        <pt x="325" y="53" on="1"/>
        <pt x="440" y="53" on="0"/>
      </contour>
    </TTGlyph>
    <TTGlyph name="aring" xMin="45" yMin="-14" xMax="476" yMax="732">
      <contour>
        <pt x="292" y="732" on="0"/>
        <pt x="343" y="680" on="0"/>
        <pt x="343" y="599" on="0"/>
        <pt x="286" y="540" on="0"/>
        <pt x="203" y="540" on="0"/>
        <pt x="151" y="592" on="0"/>
        <pt x="151" y="673" on="0"/>
        <pt x="209" y="732" on="0"/>
      </contour>
      <contour>
        <pt x="295" y="637" on="1"/>
        <pt x="295" y="683" on="0"/>
        <pt x="249" y="683" on="1"/>
        <pt x="198" y="683" on="0"/>
        <pt x="198" y="631" on="1"/>
        <pt x="198" y="586" on="0"/>
        <pt x="245" y="586" on="1"/>
        <pt x="295" y="586" on="0"/>
      </contour>
      <contour>
        <pt x="330" y="200" on="1"/>
        <pt x="289" y="215" on="0"/>
        <pt x="182" y="215" on="0"/>
        <pt x="158" y="198" on="1"/>
        <pt x="143" y="175" on="0"/>
        <pt x="143" y="98" on="0"/>
        <pt x="185" y="54" on="0"/>
        <pt x="248" y="54" on="0"/>
        <pt x="314" y="87" on="0"/>
        <pt x="330" y="106" on="1"/>
      </contour>
      <contour>
        <pt x="346" y="56" on="1"/>
        <pt x="285" y="-11" on="0"/>
        <pt x="132" y="-11" on="0"/>
        <pt x="45" y="55" on="0"/>
        <pt x="45" y="202" on="0"/>
        <pt x="148" y="266" on="0"/>
        <pt x="242" y="266" on="1"/>
        <pt x="330" y="263" on="1"/>
        <pt x="330" y="320" on="1"/>
        <pt x="330" y="373" on="0"/>
        <pt x="278" y="439" on="0"/>
        <pt x="225" y="439" on="1"/>
        <pt x="186" y="438" on="0"/>
        <pt x="100" y="364" on="1"/>
        <pt x="71" y="401" on="0"/>
        <pt x="59" y="460" on="1"/>
        <pt x="158" y="492" on="0"/>
        <pt x="324" y="492" on="0"/>
        <pt x="424" y="406" on="0"/>
        <pt x="424" y="327" on="1"/>
        <pt x="424" y="159" on="1"/>
        <pt x="425" y="114" on="0"/>
        <pt x="452" y="37" on="0"/>
        <pt x="474" y="22" on="1"/>
        <pt x="476" y="12" on="1"/>
        <pt x="369" y="-14" on="1"/>
        <pt x="356" y="18" on="0"/>
      </contour>
    </TTGlyph>
    <TTGlyph name="asciicircum" xMin="118" yMin="379" xMax="484" yMax="682">
      <contour>
        <pt x="272" y="682" on="1"/>
        <pt x="336" y="682" on="1"/>
        <pt x="484" y="379" on="1"/>
        <pt x="403" y="379" on="1"/>
        <pt x="302" y="592" on="1"/>
        <pt x="196" y="379" on="1"/>
        <pt x="118" y="379" on="1"/>
      </contour>
    </TTGlyph>
    <TTGlyph name="asciitilde" xMin="80" yMin="222" xMax="560" yMax="340">
      <contour>
        <pt x="422" y="222" on="1"/>
        <pt x="389" y="222" on="0"/>
        <pt x="253" y="270" on="0"/>
        <pt x="221" y="270" on="1"/>
        <pt x="167" y="270" on="0"/>
        <pt x="112" y="231" on="1"/>
        <pt x="80" y="297" on="1"/>
        <pt x="162" y="340" on="0"/>
        <pt x="215" y="340" on="1"/>
        <pt x="246" y="340" on="0"/>
        <pt x="388" y="291" on="0"/>
        <pt x="421" y="291" on="1"/>
        <pt x="476" y="291" on="0"/>
        <pt x="528" y="327" on="1"/>
        <pt x="560" y="262" on="1"/>
        <pt x="484" y="222" on="0"/>
      </contour>
    </TTGlyph>
    <TTGlyph name="asterisk" xMin="37" yMin="361" xMax="382" yMax="700">
      <contour>
        <pt x="45" y="481" on="1"/>
        <pt x="38" y="484" on="1"/>
        <pt x="37" y="573" on="1"/>
        <pt x="44" y="574" on="1"/>
        <pt x="87" y="561" on="0"/>
        <pt x="170" y="555" on="1"/>
        <pt x="127" y="614" on="0"/>
        <pt x="89" y="646" on="1"/>
        <pt x="86" y="653" on="1"/>
        <pt x="162" y="700" on="1"/>
        <pt x="168" y="695" on="1"/>
        <pt x="182" y="625" on="0"/>
        <pt x="209" y="569" on="1"/>
        <pt x="253" y="645" on="0"/>
        <pt x="264" y="695" on="1"/>
        <pt x="269" y="700" on="1"/>
        <pt x="345" y="653" on="1"/>
        <pt x="344" y="646" on="1"/>
        <pt x="305" y="621" on="0"/>
        <pt x="246" y="553" on="1"/>
        <pt x="337" y="562" on="0"/>
        <pt x="375" y="574" on="1"/>
        <pt x="382" y="573" on="1"/>
        <pt x="381" y="482" on="1"/>
        <pt x="374" y="480" on="1"/>
        <pt x="322" y="503" on="0"/>
        <pt x="244" y="512" on="1"/>
        <pt x="295" y="448" on="0"/>
        <pt x="342" y="416" on="1"/>
        <pt x="345" y="409" on="1"/>
        <pt x="269" y="361" on="1"/>
        <pt x="264" y="366" on="1"/>
        <pt x="256" y="407" on="0"/>
        <pt x="209" y="490" on="1"/>
        <pt x="180" y="427" on="0"/>
        <pt x="168" y="367" on="1"/>
        <pt x="162" y="361" on="1"/>
        <pt x="87" y="408" on="1"/>
        <pt x="89" y="415" on="1"/>
        <pt x="136" y="456" on="0"/>
        <pt x="174" y="511" on="1"/>
        <pt x="88" y="501" on="0"/>
      </contour>
    </TTGlyph>
    <TTGlyph name="at" xMin="35" yMin="-43" xMax="769" yMax="713">
      <contour>
        <pt x="389" y="-43" on="1"/>
        <pt x="242" y="-43" on="0"/>
        <pt x="35" y="151" on="0"/>
        <pt x="35" y="485" on="0"/>
        <pt x="245" y="713" on="0"/>
        <pt x="426" y="713" on="1"/>
        <pt x="588" y="713" on="0"/>
        <pt x="769" y="531" on="0"/>
        <pt x="769" y="289" on="0"/>
        <pt x="629" y="132" on="0"/>
        <pt x="445" y="132" on="0"/>
        <pt x="445" y="214" on="1"/>
        <pt x="445" y="238" on="0"/>
        <pt x="449" y="261" on="1"/>
        <pt x="446" y="260" on="1"/>
        <pt x="341" y="132" on="0"/>
        <pt x="270" y="132" on="1"/>
        <pt x="205" y="132" on="0"/>
        <pt x="205" y="241" on="1"/>
        <pt x="205" y="316" on="0"/>
        <pt x="263" y="456" on="0"/>
        <pt x="391" y="555" on="0"/>
        <pt x="478" y="555" on="1"/>
        <pt x="544" y="555" on="0"/>
        <pt x="584" y="541" on="1"/>
        <pt x="516" y="295" on="1"/>
        <pt x="506" y="259" on="0"/>
        <pt x="506" y="229" on="1"/>
        <pt x="506" y="185" on="0"/>
        <pt x="546" y="185" on="1"/>
        <pt x="611" y="185" on="0"/>
        <pt x="705" y="314" on="0"/>
        <pt x="705" y="470" on="0"/>
        <pt x="641" y="575" on="0"/>
        <pt x="592" y="602" on="1"/>
        <pt x="493" y="657" on="0"/>
        <pt x="394" y="657" on="1"/>
        <pt x="332" y="657" on="0"/>
        <pt x="275" y="637" on="1"/>
        <pt x="119" y="542" on="0"/>
        <pt x="119" y="336" on="1"/>
        <pt x="119" y="177" on="0"/>
        <pt x="284" y="12" on="0"/>
        <pt x="405" y="12" on="1"/>
        <pt x="496" y="12" on="0"/>
        <pt x="596" y="64" on="1"/>
        <pt x="617" y="31" on="1"/>
        <pt x="514" y="-43" on="0"/>
      </contour>
      <contour>
        <pt x="498" y="495" on="1"/>
        <pt x="476" y="508" on="0"/>
        <pt x="404" y="508" on="0"/>
        <pt x="373" y="495" on="1"/>
        <pt x="323" y="432" on="0"/>
        <pt x="301" y="342" on="1"/>
        <pt x="288" y="290" on="0"/>
        <pt x="288" y="253" on="1"/>
        <pt x="288" y="201" on="0"/>
        <pt x="317" y="201" on="1"/>
        <pt x="341" y="201" on="0"/>
        <pt x="453" y="309" on="0"/>
        <pt x="463" y="355" on="1"/>
      </contour>
    </TTGlyph>
    <TTGlyph name="atilde" xMin="45" yMin="-14" xMax="476" yMax="692">
      <contour>
        <pt x="299" y="569" on="0"/>
        <pt x="198" y="617" on="0"/>
        <pt x="141" y="617" on="0"/>
        <pt x="86" y="579" on="1"/>
        <pt x="66" y="597" on="1"/>
        <pt x="90" y="627" on="0"/>
        <pt x="163" y="692" on="0"/>
        <pt x="208" y="692" on="0"/>
        <pt x="305" y="649" on="0"/>
        <pt x="356" y="649" on="0"/>
        <pt x="418" y="686" on="1"/>
        <pt x="437" y="669" on="1"/>
        <pt x="360" y="569" on="0"/>
        <pt x="323" y="569" on="1"/>
      </contour>
      <contour>
        <pt x="330" y="200" on="1"/>
        <pt x="289" y="215" on="0"/>
        <pt x="182" y="215" on="0"/>
        <pt x="158" y="198" on="1"/>
        <pt x="143" y="175" on="0"/>
        <pt x="143" y="98" on="0"/>
        <pt x="185" y="54" on="0"/>
        <pt x="248" y="54" on="0"/>
        <pt x="314" y="87" on="0"/>
        <pt x="330" y="106" on="1"/>
      </contour>
      <contour>
        <pt x="346" y="56" on="1"/>
        <pt x="285" y="-11" on="0"/>
        <pt x="132" y="-11" on="0"/>
        <pt x="45" y="55" on="0"/>
        <pt x="45" y="202" on="0"/>
        <pt x="148" y="266" on="0"/>
        <pt x="242" y="266" on="1"/>
        <pt x="330" y="263" on="1"/>
        <pt x="330" y="320" on="1"/>
        <pt x="330" y="373" on="0"/>
        <pt x="278" y="439" on="0"/>
        <pt x="225" y="439" on="1"/>
        <pt x="186" y="438" on="0"/>
        <pt x="100" y="364" on="1"/>
        <pt x="71" y="401" on="0"/>
        <pt x="59" y="460" on="1"/>
        <pt x="158" y="492" on="0"/>
        <pt x="324" y="492" on="0"/>
        <pt x="424" y="406" on="0"/>
        <pt x="424" y="327" on="1"/>
        <pt x="424" y="159" on="1"/>
        <pt x="425" y="114" on="0"/>
        <pt x="452" y="37" on="0"/>
        <pt x="474" y="22" on="1"/>
        <pt x="476" y="12" on="1"/>
        <pt x="369" y="-14" on="1"/>
        <pt x="356" y="18" on="0"/>
      </contour>
    </TTGlyph>
    <TTGlyph name="b" xMin="50" yMin="-11" xMax="544" yMax="747">
      <contour>
        <pt x="191" y="88" on="1"/>
        <pt x="257" y="54" on="0"/>
        <pt x="373" y="54" on="0"/>
        <pt x="394" y="66" on="1"/>
        <pt x="411" y="86" on="0"/>
        <pt x="437" y="198" on="0"/>
        <pt x="437" y="250" on="1"/>
        <pt x="437" y="417" on="0"/>
        <pt x="333" y="417" on="1"/>
        <pt x="275" y="417" on="0"/>
        <pt x="191" y="360" on="1"/>
      </contour>
      <contour>
        <pt x="191" y="654" on="1"/>
        <pt x="191" y="417" on="1"/>
        <pt x="274" y="491" on="0"/>
        <pt x="439" y="491" on="0"/>
        <pt x="544" y="361" on="0"/>
        <pt x="544" y="268" on="1"/>
        <pt x="544" y="151" on="0"/>
        <pt x="402" y="-11" on="0"/>
        <pt x="217" y="-11" on="0"/>
        <pt x="86" y="31" on="1"/>
        <pt x="86" y="37" on="1"/>
        <pt x="97" y="67" on="0"/>
        <pt x="97" y="174" on="1"/>
        <pt x="97" y="587" on="1"/>
        <pt x="97" y="666" on="0"/>
        <pt x="50" y="711" on="1"/>
        <pt x="50" y="723" on="1"/>
        <pt x="188" y="747" on="1"/>
        <pt x="194" y="737" on="1"/>
        <pt x="191" y="708" on="0"/>
      </contour>
    </TTGlyph>
    <TTGlyph name="backslash" xMin="-72" yMin="-146" xMax="370" yMax="731">
      <contour>
        <pt x="-72" y="654" on="1"/>
        <pt x="-26" y="731" on="1"/>
        <pt x="-21" y="727" on="1"/>
        <pt x="33" y="582" on="0"/>
        <pt x="303" y="65" on="1"/>
        <pt x="310" y="52" on="0"/>
        <pt x="356" y="-29" on="0"/>
        <pt x="370" y="-56" on="1"/>
        <pt x="324" y="-146" on="1"/>
        <pt x="320" y="-142" on="1"/>
        <pt x="296" y="-81" on="0"/>
        <pt x="95" y="339" on="0"/>
        <pt x="47" y="433" on="1"/>
      </contour>
    </TTGlyph>
    <TTGlyph name="bar" xMin="73" yMin="-177" xMax="154" yMax="739">
      <contour>
        <pt x="147" y="600" on="1"/>
        <pt x="147" y="-147" on="1"/>
        <pt x="74" y="-177" on="1"/>
        <pt x="73" y="702" on="1"/>
        <pt x="73" y="709" on="1"/>
        <pt x="154" y="739" on="1"/>
        <pt x="147" y="644" on="0"/>
      </contour>
    </TTGlyph>
    <TTGlyph name="braceleft" xMin="53" yMin="-173" xMax="379" yMax="756">
      <contour>
        <pt x="216" y="103" on="1"/>
        <pt x="216" y="29" on="1"/>
        <pt x="216" y="-71" on="0"/>
        <pt x="236" y="-98" on="1"/>
        <pt x="259" y="-130" on="0"/>
        <pt x="336" y="-130" on="0"/>
        <pt x="372" y="-126" on="1"/>
        <pt x="379" y="-160" on="1"/>
        <pt x="327" y="-173" on="0"/>
        <pt x="248" y="-173" on="0"/>
        <pt x="191" y="-150" on="0"/>
        <pt x="158" y="-114" on="0"/>
        <pt x="149" y="-84" on="1"/>
        <pt x="135" y="-36" on="0"/>
        <pt x="135" y="46" on="1"/>
        <pt x="135" y="139" on="1"/>
        <pt x="135" y="201" on="0"/>
        <pt x="104" y="231" on="1"/>
        <pt x="82" y="252" on="0"/>
        <pt x="53" y="268" on="1"/>
        <pt x="53" y="275" on="1"/>
        <pt x="77" y="290" on="0"/>
        <pt x="104" y="311" on="0"/>
        <pt x="136" y="372" on="0"/>
        <pt x="136" y="412" on="1"/>
        <pt x="136" y="537" on="1"/>
        <pt x="136" y="669" on="0"/>
        <pt x="172" y="712" on="1"/>
        <pt x="209" y="756" on="0"/>
        <pt x="287" y="756" on="1"/>
        <pt x="326" y="756" on="0"/>
        <pt x="378" y="743" on="1"/>
        <pt x="371" y="709" on="1"/>
        <pt x="335" y="713" on="0"/>
        <pt x="273" y="713" on="0"/>
        <pt x="236" y="690" on="0"/>
        <pt x="228" y="666" on="1"/>
        <pt x="216" y="629" on="0"/>
        <pt x="216" y="559" on="1"/>
        <pt x="216" y="436" on="1"/>
        <pt x="216" y="359" on="0"/>
        <pt x="184" y="321" on="1"/>
        <pt x="168" y="302" on="0"/>
        <pt x="148" y="286" on="0"/>
        <pt x="128" y="274" on="1"/>
        <pt x="128" y="271" on="1"/>
        <pt x="216" y="224" on="0"/>
      </contour>
    </TTGlyph>
    <TTGlyph name="braceright" xMin="35" yMin="-173" xMax="362" yMax="756">
      <contour>
        <pt x="199" y="29" on="1"/>
        <pt x="199" y="103" on="1"/>
        <pt x="199" y="224" on="0"/>
        <pt x="287" y="271" on="1"/>
        <pt x="287" y="274" on="1"/>
        <pt x="267" y="286" on="0"/>
        <pt x="247" y="302" on="0"/>
        <pt x="231" y="321" on="1"/>
        <pt x="199" y="359" on="0"/>
        <pt x="199" y="436" on="1"/>
        <pt x="199" y="559" on="1"/>
        <pt x="199" y="629" on="0"/>
        <pt x="179" y="690" on="0"/>
        <pt x="142" y="713" on="0"/>
        <pt x="80" y="713" on="0"/>
        <pt x="44" y="709" on="1"/>
        <pt x="42" y="713" on="0"/>
        <pt x="35" y="737" on="1"/>
        <pt x="36" y="743" on="1"/>
        <pt x="88" y="756" on="0"/>
        <pt x="170" y="756" on="0"/>
        <pt x="228" y="730" on="0"/>
        <pt x="259" y="693" on="0"/>
        <pt x="267" y="660" on="1"/>
        <pt x="279" y="612" on="0"/>
        <pt x="279" y="537" on="1"/>
        <pt x="279" y="412" on="1"/>
        <pt x="279" y="372" on="0"/>
        <pt x="311" y="311" on="0"/>
        <pt x="338" y="290" on="0"/>
        <pt x="362" y="275" on="1"/>
        <pt x="362" y="268" on="1"/>
        <pt x="302" y="236" on="0"/>
        <pt x="288" y="193" on="1"/>
        <pt x="280" y="170" on="0"/>
        <pt x="280" y="139" on="1"/>
        <pt x="280" y="46" on="1"/>
        <pt x="280" y="-86" on="0"/>
        <pt x="244" y="-128" on="1"/>
        <pt x="207" y="-173" on="0"/>
        <pt x="129" y="-173" on="1"/>
        <pt x="89" y="-173" on="0"/>
        <pt x="37" y="-160" on="1"/>
        <pt x="36" y="-154" on="1"/>
        <pt x="43" y="-130" on="0"/>
        <pt x="45" y="-126" on="1"/>
        <pt x="81" y="-130" on="0"/>
        <pt x="137" y="-130" on="0"/>
        <pt x="171" y="-111" on="0"/>
        <pt x="188" y="-86" on="0"/>
        <pt x="192" y="-62" on="1"/>
        <pt x="199" y="-27" on="0"/>
      </contour>
    </TTGlyph>
    <TTGlyph name="bracketleft" xMin="95" yMin="-176" xMax="356" yMax="760">
      <contour>
        <pt x="203" y="-135" on="1"/>
        <pt x="273" y="-135" on="0"/>
        <pt x="319" y="-116" on="1"/>
        <pt x="326" y="-116" on="1"/>
        <pt x="356" y="-176" on="1"/>
        <pt x="95" y="-173" on="1"/>
        <pt x="96" y="757" on="1"/>
        <pt x="356" y="760" on="1"/>
        <pt x="326" y="700" on="1"/>
        <pt x="319" y="700" on="1"/>
        <pt x="275" y="718" on="0"/>
        <pt x="204" y="718" on="1"/>
        <pt x="177" y="718" on="1"/>
        <pt x="177" y="-42" on="1"/>
        <pt x="177" y="-90" on="0"/>
        <pt x="180" y="-135" on="1"/>
      </contour>
    </TTGlyph>
    <TTGlyph name="bracketright" xMin="75" yMin="-176" xMax="336" yMax="760">
      <contour>
        <pt x="228" y="-135" on="1"/>
        <pt x="251" y="-135" on="1"/>
        <pt x="254" y="-90" on="0"/>
        <pt x="254" y="-42" on="1"/>
        <pt x="254" y="718" on="1"/>
        <pt x="227" y="718" on="1"/>
        <pt x="156" y="718" on="0"/>
        <pt x="112" y="700" on="1"/>
        <pt x="105" y="700" on="1"/>
        <pt x="75" y="760" on="1"/>
        <pt x="335" y="757" on="1"/>
        <pt x="336" y="-173" on="1"/>
        <pt x="75" y="-176" on="1"/>
        <pt x="105" y="-116" on="1"/>
        <pt x="112" y="-116" on="1"/>
        <pt x="158" y="-135" on="0"/>
      </contour>
    </TTGlyph>
    <TTGlyph name="brokenbar" xMin="73" yMin="-148" xMax="154" yMax="743">
      <contour>
        <pt x="147" y="233" on="1"/>
        <pt x="147" y="-118" on="1"/>
        <pt x="74" y="-148" on="1"/>
        <pt x="73" y="233" on="1"/>
      </contour>
      <contour>
        <pt x="147" y="368" on="1"/>
        <pt x="73" y="368" on="1"/>
        <pt x="73" y="713" on="1"/>
        <pt x="154" y="743" on="1"/>
        <pt x="147" y="648" on="0"/>
        <pt x="147" y="604" on="1"/>
      </contour>
    </TTGlyph>
    <TTGlyph name="bullet" xMin="141" yMin="214" xMax="387" yMax="459">
      <contour>
        <pt x="356" y="447" on="1"/>
        <pt x="374" y="420" on="0"/>
        <pt x="387" y="330" on="0"/>
        <pt x="387" y="281" on="0"/>
        <pt x="383" y="263" on="1"/>
        <pt x="366" y="248" on="1"/>
        <pt x="335" y="228" on="0"/>
        <pt x="245" y="214" on="0"/>
        <pt x="205" y="214" on="0"/>
        <pt x="193" y="216" on="1"/>
        <pt x="173" y="226" on="1"/>
        <pt x="155" y="250" on="0"/>
        <pt x="142" y="339" on="0"/>
        <pt x="142" y="388" on="0"/>
        <pt x="145" y="407" on="1"/>
        <pt x="161" y="423" on="1"/>
        <pt x="191" y="440" on="0"/>
        <pt x="282" y="459" on="0"/>
        <pt x="326" y="459" on="0"/>
        <pt x="339" y="457" on="1"/>
      </contour>
    </TTGlyph>
    <TTGlyph name="c" xMin="44" yMin="-11" xMax="453" yMax="493">
      <contour>
        <pt x="188" y="404" on="0"/>
        <pt x="150" y="305" on="0"/>
        <pt x="150" y="168" on="0"/>
        <pt x="205" y="66" on="0"/>
        <pt x="265" y="66" on="1"/>
        <pt x="305" y="66" on="0"/>
        <pt x="411" y="103" on="0"/>
        <pt x="428" y="116" on="1"/>
        <pt x="453" y="77" on="1"/>
        <pt x="325" y="-11" on="0"/>
        <pt x="259" y="-11" on="1"/>
        <pt x="159" y="-11" on="0"/>
        <pt x="44" y="125" on="0"/>
        <pt x="44" y="345" on="0"/>
        <pt x="193" y="493" on="0"/>
        <pt x="384" y="493" on="0"/>
        <pt x="447" y="450" on="1"/>
        <pt x="408" y="388" on="0"/>
        <pt x="396" y="375" on="1"/>
        <pt x="328" y="427" on="0"/>
        <pt x="266" y="427" on="1"/>
        <pt x="243" y="427" on="0"/>
        <pt x="221" y="424" on="1"/>
      </contour>
    </TTGlyph>
    <TTGlyph name="caron" xMin="92" yMin="520" xMax="408" yMax="702">
      <contour>
        <pt x="303" y="530" on="1"/>
        <pt x="203" y="520" on="1"/>
        <pt x="161" y="605" on="0"/>
        <pt x="92" y="671" on="1"/>
        <pt x="123" y="702" on="1"/>
        <pt x="156" y="676" on="0"/>
        <pt x="228" y="605" on="0"/>
        <pt x="248" y="576" on="1"/>
        <pt x="290" y="641" on="0"/>
        <pt x="376" y="702" on="1"/>
        <pt x="408" y="674" on="1"/>
        <pt x="341" y="615" on="0"/>
      </contour>
    </TTGlyph>
    <TTGlyph name="caron.cap" xMin="92" yMin="730" xMax="408" yMax="903">
      <contour>
        <pt x="303" y="740" on="1"/>
        <pt x="203" y="730" on="1"/>
        <pt x="160" y="811" on="0"/>
        <pt x="92" y="872" on="1"/>
        <pt x="123" y="903" on="1"/>
        <pt x="203" y="845" on="0"/>
        <pt x="248" y="786" on="1"/>
        <pt x="290" y="845" on="0"/>
        <pt x="376" y="903" on="1"/>
        <pt x="408" y="875" on="1"/>
        <pt x="341" y="820" on="0"/>
      </contour>
    </TTGlyph>
    <TTGlyph name="ccedilla" xMin="44" yMin="-224" xMax="453" yMax="493">
      <contour>
        <pt x="188" y="404" on="0"/>
        <pt x="150" y="305" on="0"/>
        <pt x="150" y="168" on="0"/>
        <pt x="205" y="66" on="0"/>
        <pt x="265" y="66" on="1"/>
        <pt x="305" y="66" on="0"/>
        <pt x="411" y="103" on="0"/>
        <pt x="428" y="116" on="1"/>
        <pt x="453" y="77" on="1"/>
        <pt x="356" y="8" on="0"/>
        <pt x="293" y="-7" on="1"/>
        <pt x="255" y="-68" on="1"/>
        <pt x="265" y="-65" on="0"/>
        <pt x="319" y="-66" on="0"/>
        <pt x="366" y="-103" on="0"/>
        <pt x="366" y="-178" on="0"/>
        <pt x="302" y="-224" on="0"/>
        <pt x="257" y="-224" on="1"/>
        <pt x="234" y="-224" on="0"/>
        <pt x="168" y="-203" on="0"/>
        <pt x="155" y="-195" on="1"/>
        <pt x="171" y="-163" on="1"/>
        <pt x="205" y="-180" on="0"/>
        <pt x="238" y="-180" on="1"/>
        <pt x="290" y="-180" on="0"/>
        <pt x="290" y="-135" on="1"/>
        <pt x="290" y="-114" on="0"/>
        <pt x="278" y="-102" on="1"/>
        <pt x="263" y="-95" on="0"/>
        <pt x="222" y="-95" on="0"/>
        <pt x="201" y="-99" on="1"/>
        <pt x="195" y="-90" on="1"/>
        <pt x="233" y="-10" on="1"/>
        <pt x="145" y="-1" on="0"/>
        <pt x="44" y="132" on="0"/>
        <pt x="44" y="345" on="0"/>
        <pt x="193" y="493" on="0"/>
        <pt x="384" y="493" on="0"/>
        <pt x="447" y="450" on="1"/>
        <pt x="408" y="388" on="0"/>
        <pt x="396" y="375" on="1"/>
        <pt x="328" y="427" on="0"/>
        <pt x="266" y="427" on="1"/>
        <pt x="243" y="427" on="0"/>
        <pt x="221" y="424" on="1"/>
      </contour>
    </TTGlyph>
    <TTGlyph name="cedilla" xMin="243" yMin="-224" xMax="454" yMax="-2">
      <contour>
        <pt x="407" y="-66" on="0"/>
        <pt x="454" y="-103" on="0"/>
        <pt x="454" y="-178" on="0"/>
        <pt x="390" y="-224" on="0"/>
        <pt x="345" y="-224" on="1"/>
        <pt x="322" y="-224" on="0"/>
        <pt x="256" y="-203" on="0"/>
        <pt x="243" y="-195" on="1"/>
        <pt x="259" y="-163" on="1"/>
        <pt x="293" y="-180" on="0"/>
        <pt x="326" y="-180" on="1"/>
        <pt x="378" y="-180" on="0"/>
        <pt x="378" y="-135" on="1"/>
        <pt x="378" y="-114" on="0"/>
        <pt x="366" y="-102" on="1"/>
        <pt x="351" y="-95" on="0"/>
        <pt x="310" y="-95" on="0"/>
        <pt x="289" y="-99" on="1"/>
        <pt x="283" y="-90" on="1"/>
        <pt x="325" y="-2" on="1"/>
        <pt x="379" y="-9" on="1"/>
        <pt x="343" y="-68" on="1"/>
        <pt x="353" y="-65" on="0"/>
      </contour>
    </TTGlyph>
    <TTGlyph name="cent" xMin="40" yMin="-131" xMax="449" yMax="610">
      <contour>
        <pt x="153" y="-10" on="0"/>
        <pt x="40" y="126" on="0"/>
        <pt x="40" y="334" on="0"/>
        <pt x="163" y="475" on="0"/>
        <pt x="252" y="490" on="1"/>
        <pt x="252" y="540" on="0"/>
        <pt x="248" y="584" on="1"/>
        <pt x="303" y="610" on="1"/>
        <pt x="307" y="603" on="1"/>
        <pt x="300" y="543" on="0"/>
        <pt x="300" y="493" on="1"/>
        <pt x="386" y="489" on="0"/>
        <pt x="443" y="450" on="1"/>
        <pt x="404" y="388" on="0"/>
        <pt x="392" y="375" on="1"/>
        <pt x="346" y="410" on="0"/>
        <pt x="300" y="422" on="1"/>
        <pt x="300" y="70" on="1"/>
        <pt x="337" y="77" on="0"/>
        <pt x="412" y="107" on="0"/>
        <pt x="424" y="116" on="1"/>
        <pt x="449" y="77" on="1"/>
        <pt x="444" y="73" on="1"/>
        <pt x="362" y="15" on="0"/>
        <pt x="300" y="-3" on="1"/>
        <pt x="300" y="-80" on="0"/>
        <pt x="304" y="-115" on="1"/>
        <pt x="245" y="-131" on="1"/>
        <pt x="241" y="-124" on="1"/>
        <pt x="250" y="-63" on="0"/>
        <pt x="251" y="-11" on="1"/>
      </contour>
      <contour>
        <pt x="184" y="404" on="0"/>
        <pt x="146" y="305" on="0"/>
        <pt x="146" y="171" on="0"/>
        <pt x="197" y="70" on="0"/>
        <pt x="252" y="66" on="1"/>
        <pt x="252" y="427" on="1"/>
        <pt x="241" y="427" on="0"/>
        <pt x="217" y="424" on="1"/>
      </contour>
    </TTGlyph>
    <TTGlyph name="circumflex" xMin="87" yMin="530" xMax="412" yMax="703">
      <contour>
        <pt x="207" y="703" on="1"/>
        <pt x="287" y="703" on="1"/>
        <pt x="313" y="650" on="0"/>
        <pt x="362" y="605" on="1"/>
        <pt x="379" y="589" on="0"/>
        <pt x="412" y="561" on="1"/>
        <pt x="384" y="530" on="1"/>
        <pt x="313" y="571" on="0"/>
        <pt x="244" y="645" on="1"/>
        <pt x="178" y="579" on="0"/>
        <pt x="116" y="535" on="1"/>
        <pt x="87" y="565" on="1"/>
        <pt x="174" y="641" on="0"/>
      </contour>
    </TTGlyph>
    <TTGlyph name="circumflex.cap" xMin="89" yMin="730" xMax="414" yMax="903">
      <contour>
        <pt x="209" y="903" on="1"/>
        <pt x="289" y="903" on="1"/>
        <pt x="315" y="850" on="0"/>
        <pt x="364" y="805" on="1"/>
        <pt x="381" y="789" on="0"/>
        <pt x="414" y="761" on="1"/>
        <pt x="386" y="730" on="1"/>
        <pt x="315" y="771" on="0"/>
        <pt x="246" y="845" on="1"/>
        <pt x="180" y="779" on="0"/>
        <pt x="118" y="735" on="1"/>
        <pt x="89" y="765" on="1"/>
        <pt x="176" y="841" on="0"/>
      </contour>
    </TTGlyph>
    <TTGlyph name="colon" xMin="90" yMin="-10" xMax="248" yMax="463">
      <contour>
        <pt x="204" y="462" on="0"/>
        <pt x="214" y="456" on="1"/>
        <pt x="229" y="442" on="0"/>
        <pt x="229" y="394" on="1"/>
        <pt x="229" y="382" on="0"/>
        <pt x="228" y="373" on="1"/>
        <pt x="219" y="364" on="1"/>
        <pt x="169" y="351" on="0"/>
        <pt x="117" y="347" on="1"/>
        <pt x="106" y="352" on="1"/>
        <pt x="91" y="382" on="0"/>
        <pt x="91" y="425" on="1"/>
        <pt x="91" y="431" on="0"/>
        <pt x="91" y="436" on="1"/>
        <pt x="100" y="445" on="1"/>
        <pt x="154" y="462" on="0"/>
        <pt x="199" y="462" on="1"/>
      </contour>
      <contour>
        <pt x="232" y="99" on="1"/>
        <pt x="247" y="85" on="0"/>
        <pt x="247" y="37" on="1"/>
        <pt x="247" y="25" on="0"/>
        <pt x="246" y="16" on="1"/>
        <pt x="237" y="7" on="1"/>
        <pt x="187" y="-6" on="0"/>
        <pt x="135" y="-10" on="1"/>
        <pt x="124" y="-5" on="1"/>
        <pt x="109" y="25" on="0"/>
        <pt x="109" y="68" on="1"/>
        <pt x="109" y="74" on="0"/>
        <pt x="109" y="79" on="1"/>
        <pt x="118" y="88" on="1"/>
        <pt x="172" y="105" on="0"/>
        <pt x="217" y="105" on="1"/>
        <pt x="222" y="105" on="0"/>
      </contour>
    </TTGlyph>
    <TTGlyph name="comma" xMin="32" yMin="-180" xMax="197" yMax="113">
      <contour>
        <pt x="174" y="112" on="1"/>
        <pt x="197" y="89" on="0"/>
        <pt x="197" y="-24" on="0"/>
        <pt x="138" y="-122" on="0"/>
        <pt x="84" y="-180" on="1"/>
        <pt x="32" y="-159" on="1"/>
        <pt x="66" y="-107" on="0"/>
        <pt x="96" y="-35" on="0"/>
        <pt x="96" y="47" on="0"/>
        <pt x="73" y="86" on="1"/>
        <pt x="75" y="92" on="0"/>
        <pt x="79" y="96" on="1"/>
        <pt x="120" y="113" on="0"/>
        <pt x="163" y="113" on="1"/>
        <pt x="169" y="113" on="0"/>
      </contour>
    </TTGlyph>
    <TTGlyph name="commaaccent" xMin="85" yMin="-236" xMax="195" yMax="-22">
      <contour>
        <pt x="195" y="-83" on="1"/>
        <pt x="195" y="-154" on="0"/>
        <pt x="122" y="-236" on="1"/>
        <pt x="85" y="-221" on="1"/>
        <pt x="107" y="-186" on="0"/>
        <pt x="123" y="-135" on="0"/>
        <pt x="123" y="-73" on="0"/>
        <pt x="106" y="-43" on="1"/>
        <pt x="108" y="-37" on="0"/>
        <pt x="111" y="-34" on="1"/>
        <pt x="132" y="-22" on="0"/>
        <pt x="170" y="-22" on="1"/>
        <pt x="175" y="-22" on="0"/>
        <pt x="178" y="-23" on="1"/>
        <pt x="185" y="-30" on="1"/>
        <pt x="195" y="-56" on="0"/>
      </contour>
    </TTGlyph>
    <TTGlyph name="copyright" xMin="31" yMin="-1" xMax="727" yMax="711">
      <contour>
        <pt x="524" y="711" on="0"/>
        <pt x="727" y="504" on="0"/>
        <pt x="727" y="208" on="0"/>
        <pt x="526" y="-1" on="0"/>
        <pt x="236" y="-1" on="0"/>
        <pt x="31" y="208" on="0"/>
        <pt x="31" y="502" on="0"/>
        <pt x="236" y="711" on="0"/>
      </contour>
      <contour>
        <pt x="497" y="56" on="0"/>
        <pt x="667" y="230" on="0"/>
        <pt x="667" y="478" on="0"/>
        <pt x="500" y="654" on="0"/>
        <pt x="262" y="654" on="0"/>
        <pt x="94" y="478" on="0"/>
        <pt x="94" y="231" on="0"/>
        <pt x="262" y="56" on="0"/>
      </contour>
      <contour>
        <pt x="325" y="488" on="0"/>
        <pt x="296" y="412" on="0"/>
        <pt x="296" y="307" on="0"/>
        <pt x="340" y="229" on="0"/>
        <pt x="387" y="229" on="1"/>
        <pt x="419" y="229" on="0"/>
        <pt x="505" y="258" on="0"/>
        <pt x="517" y="267" on="1"/>
        <pt x="536" y="237" on="1"/>
        <pt x="436" y="170" on="0"/>
        <pt x="380" y="170" on="1"/>
        <pt x="298" y="170" on="0"/>
        <pt x="203" y="274" on="0"/>
        <pt x="203" y="442" on="0"/>
        <pt x="327" y="555" on="0"/>
        <pt x="481" y="555" on="0"/>
        <pt x="531" y="522" on="1"/>
        <pt x="501" y="475" on="0"/>
        <pt x="491" y="465" on="1"/>
        <pt x="435" y="505" on="0"/>
        <pt x="388" y="505" on="1"/>
        <pt x="371" y="505" on="0"/>
        <pt x="351" y="502" on="1"/>
      </contour>
    </TTGlyph>
    <TTGlyph name="currency" xMin="45" yMin="129" xMax="508" yMax="572">
      <contour>
        <pt x="390" y="191" on="1"/>
        <pt x="340" y="155" on="0"/>
        <pt x="213" y="155" on="0"/>
        <pt x="162" y="192" on="1"/>
        <pt x="106" y="130" on="1"/>
        <pt x="45" y="156" on="1"/>
        <pt x="122" y="228" on="1"/>
        <pt x="80" y="287" on="0"/>
        <pt x="80" y="413" on="0"/>
        <pt x="122" y="473" on="1"/>
        <pt x="117" y="478" on="0"/>
        <pt x="59" y="532" on="0"/>
        <pt x="45" y="546" on="1"/>
        <pt x="106" y="571" on="1"/>
        <pt x="163" y="509" on="1"/>
        <pt x="210" y="546" on="0"/>
        <pt x="340" y="546" on="0"/>
        <pt x="390" y="510" on="1"/>
        <pt x="447" y="572" on="1"/>
        <pt x="508" y="547" on="1"/>
        <pt x="429" y="473" on="1"/>
        <pt x="430" y="473" on="1"/>
        <pt x="472" y="419" on="0"/>
        <pt x="472" y="280" on="0"/>
        <pt x="429" y="228" on="1"/>
        <pt x="508" y="154" on="1"/>
        <pt x="447" y="129" on="1"/>
      </contour>
      <contour>
        <pt x="329" y="221" on="0"/>
        <pt x="402" y="297" on="0"/>
        <pt x="402" y="406" on="0"/>
        <pt x="329" y="482" on="0"/>
        <pt x="221" y="482" on="0"/>
        <pt x="150" y="406" on="0"/>
        <pt x="150" y="297" on="0"/>
        <pt x="221" y="221" on="0"/>
      </contour>
    </TTGlyph>
    <TTGlyph name="d" xMin="49" yMin="-18" xMax="537" yMax="747">
      <contour>
        <pt x="255" y="-11" on="1"/>
        <pt x="151" y="-11" on="0"/>
        <pt x="49" y="130" on="0"/>
        <pt x="49" y="344" on="0"/>
        <pt x="180" y="492" on="0"/>
        <pt x="280" y="492" on="1"/>
        <pt x="336" y="492" on="0"/>
        <pt x="391" y="473" on="1"/>
        <pt x="391" y="587" on="1"/>
        <pt x="391" y="667" on="0"/>
        <pt x="345" y="711" on="1"/>
        <pt x="345" y="723" on="1"/>
        <pt x="482" y="747" on="1"/>
        <pt x="488" y="737" on="1"/>
        <pt x="485" y="708" on="0"/>
        <pt x="485" y="654" on="1"/>
        <pt x="485" y="159" on="1"/>
        <pt x="485" y="114" on="0"/>
        <pt x="513" y="33" on="0"/>
        <pt x="535" y="18" on="1"/>
        <pt x="537" y="8" on="1"/>
        <pt x="428" y="-18" on="1"/>
        <pt x="418" y="7" on="0"/>
        <pt x="403" y="64" on="1"/>
        <pt x="326" y="-11" on="0"/>
      </contour>
      <contour>
        <pt x="208" y="93" on="1"/>
        <pt x="237" y="63" on="0"/>
        <pt x="337" y="63" on="0"/>
        <pt x="391" y="111" on="1"/>
        <pt x="391" y="393" on="1"/>
        <pt x="339" y="431" on="0"/>
        <pt x="261" y="431" on="1"/>
        <pt x="216" y="431" on="0"/>
        <pt x="192" y="413" on="1"/>
        <pt x="155" y="354" on="0"/>
        <pt x="155" y="146" on="0"/>
      </contour>
    </TTGlyph>
    <TTGlyph name="degree" xMin="39" yMin="424" xMax="322" yMax="707">
      <contour>
        <pt x="118" y="707" on="0"/>
        <pt x="242" y="707" on="0"/>
        <pt x="322" y="629" on="0"/>
        <pt x="322" y="504" on="0"/>
        <pt x="245" y="424" on="0"/>
        <pt x="120" y="424" on="0"/>
        <pt x="39" y="501" on="0"/>
        <pt x="39" y="626" on="0"/>
      </contour>
      <contour>
        <pt x="85" y="519" on="0"/>
        <pt x="138" y="479" on="0"/>
        <pt x="242" y="479" on="0"/>
        <pt x="267" y="504" on="1"/>
        <pt x="277" y="525" on="0"/>
        <pt x="277" y="554" on="1"/>
        <pt x="277" y="652" on="0"/>
        <pt x="174" y="652" on="1"/>
        <pt x="120" y="652" on="0"/>
        <pt x="95" y="625" on="1"/>
        <pt x="85" y="604" on="0"/>
      </contour>
    </TTGlyph>
    <TTGlyph name="dieresis" xMin="82" yMin="576" xMax="418" yMax="691">
      <contour>
        <pt x="404" y="687" on="1"/>
        <pt x="411" y="679" on="0"/>
        <pt x="418" y="636" on="0"/>
        <pt x="418" y="614" on="0"/>
        <pt x="417" y="607" on="1"/>
        <pt x="409" y="600" on="1"/>
        <pt x="372" y="588" on="0"/>
        <pt x="335" y="585" on="1"/>
        <pt x="323" y="585" on="1"/>
        <pt x="313" y="588" on="1"/>
        <pt x="298" y="618" on="0"/>
        <pt x="298" y="668" on="1"/>
        <pt x="308" y="676" on="1"/>
        <pt x="344" y="689" on="0"/>
        <pt x="379" y="691" on="1"/>
        <pt x="396" y="691" on="1"/>
      </contour>
      <contour>
        <pt x="188" y="678" on="1"/>
        <pt x="195" y="670" on="0"/>
        <pt x="202" y="627" on="0"/>
        <pt x="202" y="605" on="0"/>
        <pt x="201" y="598" on="1"/>
        <pt x="193" y="591" on="1"/>
        <pt x="157" y="579" on="0"/>
        <pt x="120" y="576" on="1"/>
        <pt x="107" y="576" on="1"/>
        <pt x="97" y="579" on="1"/>
        <pt x="82" y="609" on="0"/>
        <pt x="82" y="658" on="1"/>
        <pt x="92" y="667" on="1"/>
        <pt x="130" y="680" on="0"/>
        <pt x="164" y="682" on="1"/>
        <pt x="180" y="682" on="1"/>
      </contour>
    </TTGlyph>
    <TTGlyph name="dieresis.cap" xMin="82" yMin="746" xMax="418" yMax="859">
      <contour>
        <pt x="186" y="846" on="1"/>
        <pt x="193" y="838" on="0"/>
        <pt x="200" y="796" on="0"/>
        <pt x="200" y="774" on="0"/>
        <pt x="199" y="768" on="1"/>
        <pt x="191" y="761" on="1"/>
        <pt x="155" y="749" on="0"/>
        <pt x="119" y="746" on="1"/>
        <pt x="107" y="746" on="1"/>
        <pt x="97" y="749" on="1"/>
        <pt x="82" y="779" on="0"/>
        <pt x="82" y="827" on="1"/>
        <pt x="92" y="835" on="1"/>
        <pt x="128" y="848" on="0"/>
        <pt x="162" y="850" on="1"/>
        <pt x="178" y="850" on="1"/>
      </contour>
      <contour>
        <pt x="404" y="855" on="1"/>
        <pt x="411" y="847" on="0"/>
        <pt x="418" y="804" on="0"/>
        <pt x="418" y="783" on="0"/>
        <pt x="417" y="777" on="1"/>
        <pt x="409" y="770" on="1"/>
        <pt x="373" y="758" on="0"/>
        <pt x="337" y="755" on="1"/>
        <pt x="325" y="755" on="1"/>
        <pt x="315" y="758" on="1"/>
        <pt x="300" y="788" on="0"/>
        <pt x="300" y="836" on="1"/>
        <pt x="310" y="844" on="1"/>
        <pt x="346" y="857" on="0"/>
        <pt x="380" y="859" on="1"/>
        <pt x="396" y="859" on="1"/>
      </contour>
    </TTGlyph>
    <TTGlyph name="divide" xMin="10" yMin="130" xMax="526" yMax="514">
      <contour>
        <pt x="216" y="446" on="0"/>
        <pt x="216" y="486" on="0"/>
        <pt x="243" y="514" on="0"/>
        <pt x="283" y="514" on="0"/>
        <pt x="311" y="486" on="0"/>
        <pt x="311" y="446" on="0"/>
        <pt x="283" y="419" on="0"/>
        <pt x="243" y="419" on="0"/>
      </contour>
      <contour>
        <pt x="216" y="157" on="0"/>
        <pt x="216" y="197" on="0"/>
        <pt x="243" y="225" on="0"/>
        <pt x="283" y="225" on="0"/>
        <pt x="311" y="197" on="0"/>
        <pt x="311" y="157" on="0"/>
        <pt x="283" y="130" on="0"/>
        <pt x="243" y="130" on="0"/>
      </contour>
      <contour>
        <pt x="526" y="354" on="1"/>
        <pt x="525" y="288" on="1"/>
        <pt x="10" y="288" on="1"/>
        <pt x="11" y="355" on="1"/>
      </contour>
    </TTGlyph>
    <TTGlyph name="dollar" xMin="54" yMin="-131" xMax="500" yMax="818">
      <contour>
        <pt x="500" y="205" on="1"/>
        <pt x="500" y="9" on="0"/>
        <pt x="303" y="-9" on="1"/>
        <pt x="303" y="-71" on="0"/>
        <pt x="307" y="-115" on="1"/>
        <pt x="248" y="-131" on="1"/>
        <pt x="244" y="-124" on="1"/>
        <pt x="253" y="-63" on="0"/>
        <pt x="254" y="-11" on="1"/>
        <pt x="136" y="-8" on="0"/>
        <pt x="54" y="48" on="1"/>
        <pt x="57" y="108" on="0"/>
        <pt x="90" y="153" on="1"/>
        <pt x="161" y="75" on="0"/>
        <pt x="255" y="57" on="1"/>
        <pt x="255" y="335" on="1"/>
        <pt x="217" y="352" on="0"/>
        <pt x="182" y="368" on="0"/>
        <pt x="121" y="406" on="0"/>
        <pt x="107" y="423" on="1"/>
        <pt x="69" y="469" on="0"/>
        <pt x="69" y="526" on="1"/>
        <pt x="69" y="613" on="0"/>
        <pt x="171" y="703" on="0"/>
        <pt x="255" y="710" on="1"/>
        <pt x="253" y="762" on="0"/>
        <pt x="251" y="792" on="1"/>
        <pt x="306" y="818" on="1"/>
        <pt x="310" y="811" on="1"/>
        <pt x="303" y="758" on="0"/>
        <pt x="303" y="712" on="1"/>
        <pt x="392" y="707" on="0"/>
        <pt x="482" y="666" on="1"/>
        <pt x="471" y="616" on="0"/>
        <pt x="446" y="569" on="1"/>
        <pt x="378" y="627" on="0"/>
        <pt x="303" y="646" on="1"/>
        <pt x="303" y="410" on="1"/>
        <pt x="343" y="392" on="0"/>
        <pt x="379" y="375" on="0"/>
        <pt x="444" y="334" on="0"/>
        <pt x="474" y="298" on="0"/>
        <pt x="500" y="239" on="0"/>
      </contour>
      <contour>
        <pt x="389" y="77" on="1"/>
        <pt x="415" y="110" on="0"/>
        <pt x="415" y="222" on="0"/>
        <pt x="357" y="286" on="0"/>
        <pt x="303" y="313" on="1"/>
        <pt x="303" y="53" on="1"/>
        <pt x="352" y="53" on="0"/>
      </contour>
      <contour>
        <pt x="169" y="636" on="1"/>
        <pt x="147" y="608" on="0"/>
        <pt x="147" y="515" on="0"/>
        <pt x="203" y="457" on="0"/>
        <pt x="255" y="431" on="1"/>
        <pt x="255" y="653" on="1"/>
        <pt x="252" y="653" on="1"/>
        <pt x="199" y="653" on="0"/>
      </contour>
    </TTGlyph>
    <TTGlyph name="dotaccentcmb" xMin="183" yMin="580" xMax="317" yMax="690">
      <contour>
        <pt x="302" y="684" on="1"/>
        <pt x="316" y="672" on="0"/>
        <pt x="316" y="624" on="1"/>
        <pt x="316" y="613" on="0"/>
        <pt x="315" y="604" on="1"/>
        <pt x="306" y="596" on="1"/>
        <pt x="264" y="585" on="0"/>
        <pt x="209" y="580" on="1"/>
        <pt x="199" y="584" on="1"/>
        <pt x="184" y="612" on="0"/>
        <pt x="184" y="655" on="1"/>
        <pt x="184" y="660" on="0"/>
        <pt x="184" y="665" on="1"/>
        <pt x="193" y="673" on="1"/>
        <pt x="239" y="689" on="0"/>
        <pt x="282" y="689" on="1"/>
        <pt x="287" y="689" on="0"/>
        <pt x="292" y="689" on="1"/>
      </contour>
    </TTGlyph>
    <TTGlyph name="dotaccentcmb.cap" xMin="183" yMin="786" xMax="317" yMax="896">
      <contour>
        <pt x="302" y="890" on="1"/>
        <pt x="316" y="878" on="0"/>
        <pt x="316" y="830" on="1"/>
        <pt x="316" y="819" on="0"/>
        <pt x="315" y="810" on="1"/>
        <pt x="306" y="802" on="1"/>
        <pt x="264" y="791" on="0"/>
        <pt x="209" y="786" on="1"/>
        <pt x="199" y="790" on="1"/>
        <pt x="184" y="818" on="0"/>
        <pt x="184" y="861" on="1"/>
        <pt x="184" y="866" on="0"/>
        <pt x="184" y="871" on="1"/>
        <pt x="193" y="879" on="1"/>
        <pt x="239" y="895" on="0"/>
        <pt x="282" y="895" on="1"/>
        <pt x="287" y="895" on="0"/>
        <pt x="292" y="895" on="1"/>
      </contour>
    </TTGlyph>
    <TTGlyph name="dotlessi" xMin="47" yMin="0" xMax="216" yMax="493">
      <contour>
        <pt x="97" y="139" on="1"/>
        <pt x="97" y="333" on="1"/>
        <pt x="97" y="422" on="0"/>
        <pt x="47" y="457" on="1"/>
        <pt x="47" y="469" on="1"/>
        <pt x="188" y="493" on="1"/>
        <pt x="194" y="483" on="1"/>
        <pt x="191" y="454" on="0"/>
        <pt x="191" y="400" on="1"/>
        <pt x="191" y="164" on="1"/>
        <pt x="191" y="64" on="0"/>
        <pt x="216" y="7" on="1"/>
        <pt x="216" y="0" on="1"/>
        <pt x="81" y="0" on="1"/>
        <pt x="81" y="7" on="1"/>
        <pt x="97" y="54" on="0"/>
      </contour>
    </TTGlyph>
    <TTGlyph name="dotlessj" xMin="-21" yMin="-248" xMax="189" yMax="493">
      <contour>
        <pt x="186" y="398" on="1"/>
        <pt x="186" y="110" on="1"/>
        <pt x="186" y="-42" on="0"/>
        <pt x="143" y="-112" on="1"/>
        <pt x="120" y="-150" on="0"/>
        <pt x="84" y="-189" on="0"/>
        <pt x="62" y="-207" on="1"/>
        <pt x="62" y="-208" on="0"/>
        <pt x="15" y="-248" on="1"/>
        <pt x="-21" y="-215" on="1"/>
        <pt x="53" y="-169" on="0"/>
        <pt x="76" y="-70" on="1"/>
        <pt x="92" y="-1" on="0"/>
        <pt x="92" y="149" on="1"/>
        <pt x="92" y="330" on="1"/>
        <pt x="92" y="421" on="0"/>
        <pt x="36" y="457" on="1"/>
        <pt x="36" y="469" on="1"/>
        <pt x="183" y="493" on="1"/>
        <pt x="189" y="483" on="1"/>
        <pt x="186" y="453" on="0"/>
      </contour>
    </TTGlyph>
    <TTGlyph name="e" xMin="44" yMin="-11" xMax="454" yMax="492">
      <contour>
        <pt x="267" y="-11" on="1"/>
        <pt x="162" y="-11" on="0"/>
        <pt x="44" y="119" on="0"/>
        <pt x="44" y="332" on="0"/>
        <pt x="176" y="492" on="0"/>
        <pt x="274" y="492" on="1"/>
        <pt x="453" y="492" on="0"/>
        <pt x="453" y="271" on="1"/>
        <pt x="416" y="235" on="1"/>
        <pt x="150" y="235" on="1"/>
        <pt x="150" y="151" on="0"/>
        <pt x="222" y="67" on="0"/>
        <pt x="283" y="67" on="1"/>
        <pt x="307" y="67" on="0"/>
        <pt x="395" y="96" on="0"/>
        <pt x="429" y="116" on="1"/>
        <pt x="454" y="78" on="1"/>
        <pt x="435" y="59" on="0"/>
        <pt x="308" y="-11" on="0"/>
      </contour>
      <contour>
        <pt x="256" y="442" on="1"/>
        <pt x="214" y="442" on="0"/>
        <pt x="191" y="423" on="1"/>
        <pt x="172" y="397" on="0"/>
        <pt x="150" y="317" on="0"/>
        <pt x="150" y="287" on="1"/>
        <pt x="355" y="295" on="1"/>
        <pt x="355" y="442" on="0"/>
      </contour>
    </TTGlyph>
    <TTGlyph name="eacute" xMin="44" yMin="-11" xMax="454" yMax="732">
      <contour>
        <pt x="391" y="674" on="1"/>
        <pt x="293" y="579" on="0"/>
        <pt x="204" y="530" on="1"/>
        <pt x="181" y="556" on="1"/>
        <pt x="269" y="636" on="0"/>
        <pt x="323" y="732" on="1"/>
        <pt x="366" y="715" on="0"/>
      </contour>
      <contour>
        <pt x="267" y="-11" on="1"/>
        <pt x="162" y="-11" on="0"/>
        <pt x="44" y="119" on="0"/>
        <pt x="44" y="332" on="0"/>
        <pt x="176" y="492" on="0"/>
        <pt x="274" y="492" on="1"/>
        <pt x="453" y="492" on="0"/>
        <pt x="453" y="271" on="1"/>
        <pt x="416" y="235" on="1"/>
        <pt x="150" y="235" on="1"/>
        <pt x="150" y="151" on="0"/>
        <pt x="222" y="67" on="0"/>
        <pt x="283" y="67" on="1"/>
        <pt x="307" y="67" on="0"/>
        <pt x="395" y="96" on="0"/>
        <pt x="429" y="116" on="1"/>
        <pt x="454" y="78" on="1"/>
        <pt x="435" y="59" on="0"/>
        <pt x="308" y="-11" on="0"/>
      </contour>
      <contour>
        <pt x="256" y="442" on="1"/>
        <pt x="214" y="442" on="0"/>
        <pt x="191" y="423" on="1"/>
        <pt x="172" y="397" on="0"/>
        <pt x="150" y="317" on="0"/>
        <pt x="150" y="287" on="1"/>
        <pt x="355" y="295" on="1"/>
        <pt x="355" y="442" on="0"/>
      </contour>
    </TTGlyph>
    <TTGlyph name="ecircumflex" xMin="44" yMin="-11" xMax="454" yMax="729">
      <contour>
        <pt x="229" y="718" on="1"/>
        <pt x="299" y="729" on="1"/>
        <pt x="320" y="667" on="0"/>
        <pt x="363" y="616" on="1"/>
        <pt x="378" y="598" on="0"/>
        <pt x="408" y="564" on="1"/>
        <pt x="374" y="530" on="1"/>
        <pt x="349" y="550" on="0"/>
        <pt x="272" y="635" on="0"/>
        <pt x="256" y="661" on="1"/>
        <pt x="211" y="599" on="0"/>
        <pt x="152" y="538" on="1"/>
        <pt x="122" y="565" on="1"/>
        <pt x="153" y="600" on="0"/>
        <pt x="179" y="630" on="0"/>
        <pt x="219" y="690" on="0"/>
      </contour>
      <contour>
        <pt x="267" y="-11" on="1"/>
        <pt x="162" y="-11" on="0"/>
        <pt x="44" y="119" on="0"/>
        <pt x="44" y="332" on="0"/>
        <pt x="176" y="492" on="0"/>
        <pt x="274" y="492" on="1"/>
        <pt x="453" y="492" on="0"/>
        <pt x="453" y="271" on="1"/>
        <pt x="416" y="235" on="1"/>
        <pt x="150" y="235" on="1"/>
        <pt x="150" y="151" on="0"/>
        <pt x="222" y="67" on="0"/>
        <pt x="283" y="67" on="1"/>
        <pt x="307" y="67" on="0"/>
        <pt x="395" y="96" on="0"/>
        <pt x="429" y="116" on="1"/>
        <pt x="454" y="78" on="1"/>
        <pt x="435" y="59" on="0"/>
        <pt x="308" y="-11" on="0"/>
      </contour>
      <contour>
        <pt x="256" y="442" on="1"/>
        <pt x="214" y="442" on="0"/>
        <pt x="191" y="423" on="1"/>
        <pt x="172" y="397" on="0"/>
        <pt x="150" y="317" on="0"/>
        <pt x="150" y="287" on="1"/>
        <pt x="355" y="295" on="1"/>
        <pt x="355" y="442" on="0"/>
      </contour>
    </TTGlyph>
    <TTGlyph name="edieresis" xMin="44" yMin="-11" xMax="454" yMax="691">
      <contour>
        <pt x="398" y="687" on="1"/>
        <pt x="405" y="679" on="0"/>
        <pt x="412" y="636" on="0"/>
        <pt x="412" y="614" on="0"/>
        <pt x="411" y="607" on="1"/>
        <pt x="403" y="600" on="1"/>
        <pt x="366" y="588" on="0"/>
        <pt x="330" y="585" on="1"/>
        <pt x="317" y="585" on="1"/>
        <pt x="307" y="588" on="1"/>
        <pt x="292" y="618" on="0"/>
        <pt x="292" y="668" on="1"/>
        <pt x="302" y="676" on="1"/>
        <pt x="340" y="689" on="0"/>
        <pt x="373" y="691" on="1"/>
        <pt x="390" y="691" on="1"/>
      </contour>
      <contour>
        <pt x="194" y="678" on="1"/>
        <pt x="201" y="670" on="0"/>
        <pt x="208" y="627" on="0"/>
        <pt x="208" y="605" on="0"/>
        <pt x="207" y="598" on="1"/>
        <pt x="199" y="591" on="1"/>
        <pt x="162" y="579" on="0"/>
        <pt x="126" y="576" on="1"/>
        <pt x="113" y="576" on="1"/>
        <pt x="103" y="579" on="1"/>
        <pt x="88" y="609" on="0"/>
        <pt x="88" y="658" on="1"/>
        <pt x="98" y="667" on="1"/>
        <pt x="136" y="680" on="0"/>
        <pt x="169" y="682" on="1"/>
        <pt x="186" y="682" on="1"/>
      </contour>
      <contour>
        <pt x="267" y="-11" on="1"/>
        <pt x="162" y="-11" on="0"/>
        <pt x="44" y="119" on="0"/>
        <pt x="44" y="332" on="0"/>
        <pt x="176" y="492" on="0"/>
        <pt x="274" y="492" on="1"/>
        <pt x="453" y="492" on="0"/>
        <pt x="453" y="271" on="1"/>
        <pt x="416" y="235" on="1"/>
        <pt x="150" y="235" on="1"/>
        <pt x="150" y="151" on="0"/>
        <pt x="222" y="67" on="0"/>
        <pt x="283" y="67" on="1"/>
        <pt x="307" y="67" on="0"/>
        <pt x="395" y="96" on="0"/>
        <pt x="429" y="116" on="1"/>
        <pt x="454" y="78" on="1"/>
        <pt x="435" y="59" on="0"/>
        <pt x="308" y="-11" on="0"/>
      </contour>
      <contour>
        <pt x="256" y="442" on="1"/>
        <pt x="214" y="442" on="0"/>
        <pt x="191" y="423" on="1"/>
        <pt x="172" y="397" on="0"/>
        <pt x="150" y="317" on="0"/>
        <pt x="150" y="287" on="1"/>
        <pt x="355" y="295" on="1"/>
        <pt x="355" y="442" on="0"/>
      </contour>
    </TTGlyph>
    <TTGlyph name="egrave" xMin="44" yMin="-11" xMax="454" yMax="732">
      <contour>
        <pt x="294" y="530" on="1"/>
        <pt x="205" y="579" on="0"/>
        <pt x="107" y="674" on="1"/>
        <pt x="132" y="715" on="0"/>
        <pt x="175" y="732" on="1"/>
        <pt x="229" y="636" on="0"/>
        <pt x="317" y="556" on="1"/>
      </contour>
      <contour>
        <pt x="267" y="-11" on="1"/>
        <pt x="162" y="-11" on="0"/>
        <pt x="44" y="119" on="0"/>
        <pt x="44" y="332" on="0"/>
        <pt x="176" y="492" on="0"/>
        <pt x="274" y="492" on="1"/>
        <pt x="453" y="492" on="0"/>
        <pt x="453" y="271" on="1"/>
        <pt x="416" y="235" on="1"/>
        <pt x="150" y="235" on="1"/>
        <pt x="150" y="151" on="0"/>
        <pt x="222" y="67" on="0"/>
        <pt x="283" y="67" on="1"/>
        <pt x="307" y="67" on="0"/>
        <pt x="395" y="96" on="0"/>
        <pt x="429" y="116" on="1"/>
        <pt x="454" y="78" on="1"/>
        <pt x="435" y="59" on="0"/>
        <pt x="308" y="-11" on="0"/>
      </contour>
      <contour>
        <pt x="256" y="442" on="1"/>
        <pt x="214" y="442" on="0"/>
        <pt x="191" y="423" on="1"/>
        <pt x="172" y="397" on="0"/>
        <pt x="150" y="317" on="0"/>
        <pt x="150" y="287" on="1"/>
        <pt x="355" y="295" on="1"/>
        <pt x="355" y="442" on="0"/>
      </contour>
    </TTGlyph>
    <TTGlyph name="eight" xMin="52" yMin="-12" xMax="522" yMax="712">
      <contour>
        <pt x="397" y="542" on="1"/>
        <pt x="397" y="661" on="0"/>
        <pt x="287" y="661" on="1"/>
        <pt x="248" y="661" on="0"/>
        <pt x="218" y="647" on="1"/>
        <pt x="185" y="615" on="0"/>
        <pt x="185" y="551" on="1"/>
        <pt x="185" y="509" on="0"/>
        <pt x="243" y="444" on="0"/>
        <pt x="328" y="398" on="1"/>
        <pt x="397" y="448" on="0"/>
      </contour>
      <contour>
        <pt x="158" y="191" on="1"/>
        <pt x="158" y="56" on="0"/>
        <pt x="293" y="56" on="1"/>
        <pt x="347" y="56" on="0"/>
        <pt x="377" y="69" on="1"/>
        <pt x="416" y="99" on="0"/>
        <pt x="416" y="163" on="1"/>
        <pt x="416" y="209" on="0"/>
        <pt x="346" y="279" on="0"/>
        <pt x="250" y="331" on="1"/>
        <pt x="158" y="291" on="0"/>
      </contour>
      <contour>
        <pt x="522" y="181" on="1"/>
        <pt x="522" y="90" on="0"/>
        <pt x="389" y="-12" on="0"/>
        <pt x="186" y="-12" on="0"/>
        <pt x="52" y="87" on="0"/>
        <pt x="52" y="179" on="1"/>
        <pt x="52" y="253" on="0"/>
        <pt x="136" y="342" on="0"/>
        <pt x="198" y="363" on="1"/>
        <pt x="143" y="400" on="0"/>
        <pt x="91" y="477" on="0"/>
        <pt x="91" y="534" on="1"/>
        <pt x="91" y="620" on="0"/>
        <pt x="201" y="712" on="0"/>
        <pt x="380" y="712" on="0"/>
        <pt x="491" y="633" on="0"/>
        <pt x="491" y="548" on="1"/>
        <pt x="491" y="482" on="0"/>
        <pt x="428" y="400" on="0"/>
        <pt x="376" y="367" on="1"/>
        <pt x="457" y="317" on="0"/>
        <pt x="522" y="242" on="0"/>
      </contour>
    </TTGlyph>
    <TTGlyph name="emdash" xMin="1" yMin="243" xMax="941" yMax="323">
      <contour>
        <pt x="38" y="323" on="1"/>
        <pt x="116" y="314" on="0"/>
        <pt x="620" y="314" on="0"/>
        <pt x="824" y="315" on="0"/>
        <pt x="917" y="319" on="0"/>
        <pt x="941" y="319" on="1"/>
        <pt x="911" y="243" on="1"/>
        <pt x="904" y="243" on="1"/>
        <pt x="831" y="252" on="0"/>
        <pt x="245" y="252" on="1"/>
        <pt x="1" y="246" on="1"/>
        <pt x="31" y="323" on="1"/>
      </contour>
    </TTGlyph>
    <TTGlyph name="endash" xMin="0" yMin="243" xMax="567" yMax="323">
      <contour>
        <pt x="37" y="323" on="1"/>
        <pt x="114" y="313" on="0"/>
        <pt x="230" y="313" on="1"/>
        <pt x="428" y="315" on="1"/>
        <pt x="450" y="315" on="0"/>
        <pt x="543" y="319" on="0"/>
        <pt x="567" y="319" on="1"/>
        <pt x="537" y="243" on="1"/>
        <pt x="530" y="243" on="1"/>
        <pt x="457" y="252" on="0"/>
        <pt x="244" y="252" on="1"/>
        <pt x="0" y="246" on="1"/>
        <pt x="30" y="323" on="1"/>
      </contour>
    </TTGlyph>
    <TTGlyph name="equal" xMin="10" yMin="213" xMax="526" yMax="447">
      <contour>
        <pt x="526" y="446" on="1"/>
        <pt x="525" y="380" on="1"/>
        <pt x="10" y="380" on="1"/>
        <pt x="11" y="447" on="1"/>
      </contour>
      <contour>
        <pt x="526" y="279" on="1"/>
        <pt x="525" y="213" on="1"/>
        <pt x="10" y="213" on="1"/>
        <pt x="11" y="280" on="1"/>
      </contour>
    </TTGlyph>
    <TTGlyph name="eth" xMin="44" yMin="-12" xMax="518" yMax="740">
      <contour>
        <pt x="518" y="250" on="1"/>
        <pt x="518" y="144" on="0"/>
        <pt x="376" y="-12" on="0"/>
        <pt x="166" y="-12" on="0"/>
        <pt x="44" y="121" on="0"/>
        <pt x="44" y="345" on="0"/>
        <pt x="177" y="492" on="0"/>
        <pt x="289" y="492" on="1"/>
        <pt x="292" y="492" on="0"/>
        <pt x="295" y="492" on="1"/>
        <pt x="264" y="531" on="0"/>
        <pt x="225" y="567" on="1"/>
        <pt x="120" y="527" on="0"/>
        <pt x="87" y="512" on="1"/>
        <pt x="91" y="570" on="1"/>
        <pt x="144" y="586" on="0"/>
        <pt x="187" y="603" on="1"/>
        <pt x="115" y="666" on="0"/>
        <pt x="48" y="700" on="1"/>
        <pt x="47" y="707" on="1"/>
        <pt x="191" y="740" on="1"/>
        <pt x="213" y="704" on="0"/>
        <pt x="268" y="634" on="1"/>
        <pt x="313" y="651" on="0"/>
        <pt x="403" y="687" on="1"/>
        <pt x="400" y="631" on="1"/>
        <pt x="367" y="621" on="0"/>
        <pt x="300" y="596" on="1"/>
        <pt x="356" y="537" on="0"/>
        <pt x="376" y="518" on="1"/>
        <pt x="464" y="433" on="0"/>
        <pt x="518" y="331" on="0"/>
      </contour>
      <contour>
        <pt x="412" y="228" on="1"/>
        <pt x="412" y="327" on="0"/>
        <pt x="350" y="435" on="0"/>
        <pt x="271" y="435" on="1"/>
        <pt x="220" y="435" on="0"/>
        <pt x="191" y="413" on="1"/>
        <pt x="173" y="390" on="0"/>
        <pt x="150" y="296" on="0"/>
        <pt x="150" y="253" on="1"/>
        <pt x="150" y="44" on="0"/>
        <pt x="298" y="44" on="1"/>
        <pt x="344" y="44" on="0"/>
        <pt x="373" y="65" on="1"/>
        <pt x="392" y="88" on="0"/>
        <pt x="412" y="184" on="0"/>
      </contour>
    </TTGlyph>
    <TTGlyph name="exclam" xMin="50" yMin="-11" xMax="205" yMax="714">
      <contour>
        <pt x="98" y="167" on="1"/>
        <pt x="99" y="175" on="0"/>
        <pt x="99" y="265" on="0"/>
        <pt x="95" y="445" on="0"/>
        <pt x="93" y="505" on="0"/>
        <pt x="91" y="544" on="0"/>
        <pt x="89" y="573" on="0"/>
        <pt x="88" y="588" on="1"/>
        <pt x="81" y="658" on="0"/>
        <pt x="50" y="680" on="1"/>
        <pt x="50" y="690" on="1"/>
        <pt x="187" y="714" on="1"/>
        <pt x="193" y="704" on="1"/>
        <pt x="187" y="659" on="0"/>
        <pt x="169" y="180" on="1"/>
      </contour>
      <contour>
        <pt x="204" y="20" on="1"/>
        <pt x="204" y="16" on="0"/>
        <pt x="204" y="12" on="1"/>
        <pt x="196" y="4" on="1"/>
        <pt x="145" y="-9" on="0"/>
        <pt x="112" y="-11" on="1"/>
        <pt x="102" y="-7" on="1"/>
        <pt x="89" y="21" on="0"/>
        <pt x="89" y="59" on="1"/>
        <pt x="89" y="64" on="0"/>
        <pt x="89" y="69" on="1"/>
        <pt x="97" y="77" on="1"/>
        <pt x="144" y="92" on="0"/>
        <pt x="179" y="92" on="1"/>
        <pt x="183" y="92" on="0"/>
        <pt x="192" y="87" on="1"/>
        <pt x="204" y="57" on="0"/>
      </contour>
    </TTGlyph>
    <TTGlyph name="exclamdown" xMin="63" yMin="-233" xMax="218" yMax="492">
      <contour>
        <pt x="170" y="314" on="1"/>
        <pt x="169" y="306" on="0"/>
        <pt x="169" y="216" on="0"/>
        <pt x="173" y="36" on="0"/>
        <pt x="175" y="-24" on="0"/>
        <pt x="177" y="-63" on="0"/>
        <pt x="179" y="-92" on="0"/>
        <pt x="180" y="-107" on="1"/>
        <pt x="187" y="-177" on="0"/>
        <pt x="218" y="-199" on="1"/>
        <pt x="218" y="-209" on="1"/>
        <pt x="81" y="-233" on="1"/>
        <pt x="75" y="-223" on="1"/>
        <pt x="81" y="-178" on="0"/>
        <pt x="99" y="301" on="1"/>
      </contour>
      <contour>
        <pt x="179" y="419" on="1"/>
        <pt x="179" y="415" on="0"/>
        <pt x="179" y="411" on="1"/>
        <pt x="171" y="403" on="1"/>
        <pt x="120" y="390" on="0"/>
        <pt x="87" y="388" on="1"/>
        <pt x="77" y="392" on="1"/>
        <pt x="64" y="420" on="0"/>
        <pt x="64" y="458" on="1"/>
        <pt x="64" y="463" on="0"/>
        <pt x="64" y="468" on="1"/>
        <pt x="72" y="476" on="1"/>
        <pt x="119" y="491" on="0"/>
        <pt x="154" y="491" on="1"/>
        <pt x="158" y="491" on="0"/>
        <pt x="167" y="486" on="1"/>
        <pt x="179" y="456" on="0"/>
      </contour>
    </TTGlyph>
    <TTGlyph name="f" xMin="40" yMin="0" xMax="449" yMax="740">
      <contour>
        <pt x="63" y="484" on="1"/>
        <pt x="120" y="481" on="1"/>
        <pt x="120" y="541" on="1"/>
        <pt x="120" y="626" on="0"/>
        <pt x="199" y="740" on="0"/>
        <pt x="365" y="740" on="0"/>
        <pt x="449" y="702" on="1"/>
        <pt x="423" y="639" on="0"/>
        <pt x="406" y="614" on="1"/>
        <pt x="335" y="678" on="0"/>
        <pt x="276" y="678" on="1"/>
        <pt x="257" y="678" on="0"/>
        <pt x="235" y="669" on="1"/>
        <pt x="214" y="642" on="0"/>
        <pt x="214" y="538" on="1"/>
        <pt x="214" y="480" on="1"/>
        <pt x="287" y="481" on="0"/>
        <pt x="359" y="488" on="1"/>
        <pt x="332" y="415" on="1"/>
        <pt x="273" y="424" on="0"/>
        <pt x="214" y="426" on="1"/>
        <pt x="214" y="193" on="1"/>
        <pt x="214" y="146" on="0"/>
        <pt x="232" y="32" on="0"/>
        <pt x="243" y="7" on="1"/>
        <pt x="243" y="0" on="1"/>
        <pt x="103" y="0" on="1"/>
        <pt x="103" y="7" on="1"/>
        <pt x="120" y="57" on="0"/>
        <pt x="120" y="170" on="1"/>
        <pt x="120" y="426" on="1"/>
        <pt x="40" y="423" on="1"/>
      </contour>
    </TTGlyph>
    <TTGlyph name="five" xMin="14" yMin="-12" xMax="490" yMax="703">
      <contour>
        <pt x="446" y="569" on="1"/>
        <pt x="385" y="628" on="0"/>
        <pt x="251" y="632" on="1"/>
        <pt x="201" y="632" on="1"/>
        <pt x="187" y="585" on="0"/>
        <pt x="158" y="425" on="1"/>
        <pt x="289" y="417" on="0"/>
        <pt x="369" y="400" on="0"/>
        <pt x="409" y="380" on="1"/>
        <pt x="490" y="340" on="0"/>
        <pt x="490" y="224" on="1"/>
        <pt x="490" y="123" on="0"/>
        <pt x="354" y="-12" on="0"/>
        <pt x="130" y="-12" on="0"/>
        <pt x="14" y="51" on="1"/>
        <pt x="17" y="71" on="0"/>
        <pt x="44" y="129" on="0"/>
        <pt x="56" y="141" on="1"/>
        <pt x="167" y="54" on="0"/>
        <pt x="267" y="54" on="1"/>
        <pt x="318" y="54" on="0"/>
        <pt x="350" y="70" on="1"/>
        <pt x="368" y="93" on="0"/>
        <pt x="389" y="174" on="0"/>
        <pt x="389" y="210" on="1"/>
        <pt x="389" y="337" on="0"/>
        <pt x="216" y="350" on="1"/>
        <pt x="99" y="359" on="1"/>
        <pt x="81" y="380" on="1"/>
        <pt x="94" y="491" on="0"/>
        <pt x="131" y="698" on="1"/>
        <pt x="434" y="703" on="1"/>
        <pt x="457" y="569" on="1"/>
      </contour>
    </TTGlyph>
    <TTGlyph name="four" xMin="16" yMin="0" xMax="513" yMax="712">
      <contour>
        <pt x="410" y="191" on="1"/>
        <pt x="410" y="64" on="0"/>
        <pt x="421" y="7" on="1"/>
        <pt x="421" y="0" on="1"/>
        <pt x="308" y="0" on="1"/>
        <pt x="308" y="7" on="1"/>
        <pt x="317" y="63" on="0"/>
        <pt x="319" y="181" on="1"/>
        <pt x="319" y="191" on="1"/>
        <pt x="73" y="191" on="0"/>
        <pt x="39" y="190" on="1"/>
        <pt x="16" y="238" on="1"/>
        <pt x="120" y="429" on="0"/>
        <pt x="293" y="700" on="1"/>
        <pt x="412" y="712" on="1"/>
        <pt x="408" y="624" on="0"/>
        <pt x="408" y="264" on="1"/>
        <pt x="429" y="264" on="0"/>
        <pt x="503" y="270" on="0"/>
        <pt x="513" y="270" on="1"/>
        <pt x="497" y="191" on="1"/>
      </contour>
      <contour>
        <pt x="321" y="262" on="1"/>
        <pt x="321" y="630" on="1"/>
        <pt x="146" y="345" on="0"/>
        <pt x="100" y="259" on="1"/>
        <pt x="108" y="259" on="0"/>
      </contour>
    </TTGlyph>
    <TTGlyph name="g" xMin="29" yMin="-228" xMax="518" yMax="489">
      <contour>
        <pt x="185" y="146" on="0"/>
        <pt x="157" y="118" on="0"/>
        <pt x="157" y="101" on="0"/>
        <pt x="165" y="91" on="0"/>
        <pt x="185" y="83" on="0"/>
        <pt x="205" y="78" on="0"/>
        <pt x="240" y="72" on="0"/>
        <pt x="267" y="68" on="0"/>
        <pt x="313" y="61" on="0"/>
        <pt x="328" y="59" on="1"/>
        <pt x="417" y="46" on="0"/>
        <pt x="497" y="-2" on="0"/>
        <pt x="497" y="-59" on="1"/>
        <pt x="497" y="-140" on="0"/>
        <pt x="347" y="-228" on="0"/>
        <pt x="243" y="-228" on="1"/>
        <pt x="168" y="-228" on="0"/>
        <pt x="106" y="-204" on="1"/>
        <pt x="71" y="-190" on="0"/>
        <pt x="29" y="-137" on="0"/>
        <pt x="29" y="-99" on="1"/>
        <pt x="29" y="-20" on="0"/>
        <pt x="122" y="19" on="1"/>
        <pt x="72" y="40" on="0"/>
        <pt x="72" y="127" on="0"/>
        <pt x="157" y="173" on="1"/>
        <pt x="69" y="218" on="0"/>
        <pt x="69" y="320" on="1"/>
        <pt x="69" y="400" on="0"/>
        <pt x="175" y="489" on="0"/>
        <pt x="327" y="489" on="0"/>
        <pt x="373" y="463" on="1"/>
        <pt x="409" y="463" on="0"/>
        <pt x="491" y="471" on="1"/>
        <pt x="518" y="414" on="1"/>
        <pt x="427" y="416" on="1"/>
        <pt x="453" y="377" on="0"/>
        <pt x="453" y="324" on="1"/>
        <pt x="453" y="243" on="0"/>
        <pt x="347" y="151" on="0"/>
        <pt x="263" y="151" on="1"/>
        <pt x="233" y="151" on="0"/>
        <pt x="206" y="157" on="1"/>
      </contour>
      <contour>
        <pt x="162" y="1" on="1"/>
        <pt x="93" y="-24" on="0"/>
        <pt x="93" y="-132" on="0"/>
        <pt x="203" y="-185" on="0"/>
        <pt x="267" y="-185" on="1"/>
        <pt x="345" y="-185" on="0"/>
        <pt x="387" y="-150" on="1"/>
        <pt x="412" y="-130" on="0"/>
        <pt x="412" y="-99" on="1"/>
        <pt x="412" y="-73" on="0"/>
        <pt x="389" y="-55" on="1"/>
        <pt x="369" y="-39" on="0"/>
        <pt x="274" y="-22" on="1"/>
        <pt x="254" y="-18" on="0"/>
        <pt x="173" y="-1" on="0"/>
      </contour>
      <contour>
        <pt x="182" y="257" on="1"/>
        <pt x="208" y="201" on="0"/>
        <pt x="269" y="201" on="1"/>
        <pt x="311" y="201" on="0"/>
        <pt x="327" y="215" on="1"/>
        <pt x="355" y="247" on="0"/>
        <pt x="355" y="380" on="0"/>
        <pt x="313" y="439" on="0"/>
        <pt x="217" y="439" on="0"/>
        <pt x="194" y="426" on="1"/>
        <pt x="167" y="389" on="0"/>
        <pt x="167" y="288" on="0"/>
      </contour>
    </TTGlyph>
    <TTGlyph name="germandbls" xMin="35" yMin="-12" xMax="575" yMax="741">
      <contour>
        <pt x="58" y="460" on="1"/>
        <pt x="115" y="457" on="1"/>
        <pt x="115" y="503" on="1"/>
        <pt x="115" y="606" on="0"/>
        <pt x="242" y="740" on="0"/>
        <pt x="336" y="740" on="1"/>
        <pt x="403" y="740" on="0"/>
        <pt x="486" y="677" on="0"/>
        <pt x="486" y="611" on="1"/>
        <pt x="486" y="557" on="0"/>
        <pt x="442" y="522" on="1"/>
        <pt x="424" y="507" on="0"/>
        <pt x="406" y="492" on="1"/>
        <pt x="362" y="457" on="0"/>
        <pt x="362" y="408" on="1"/>
        <pt x="362" y="354" on="0"/>
        <pt x="438" y="316" on="1"/>
        <pt x="469" y="301" on="0"/>
        <pt x="531" y="264" on="0"/>
        <pt x="575" y="195" on="0"/>
        <pt x="575" y="145" on="1"/>
        <pt x="575" y="74" on="0"/>
        <pt x="530" y="32" on="1"/>
        <pt x="484" y="-11" on="0"/>
        <pt x="327" y="-11" on="0"/>
        <pt x="273" y="30" on="1"/>
        <pt x="274" y="81" on="0"/>
        <pt x="292" y="115" on="1"/>
        <pt x="310" y="91" on="0"/>
        <pt x="385" y="50" on="0"/>
        <pt x="449" y="50" on="0"/>
        <pt x="463" y="59" on="1"/>
        <pt x="479" y="76" on="0"/>
        <pt x="479" y="138" on="1"/>
        <pt x="479" y="193" on="0"/>
        <pt x="408" y="232" on="1"/>
        <pt x="378" y="249" on="0"/>
        <pt x="319" y="286" on="0"/>
        <pt x="278" y="349" on="0"/>
        <pt x="278" y="434" on="0"/>
        <pt x="316" y="497" on="0"/>
        <pt x="338" y="513" on="1"/>
        <pt x="398" y="557" on="0"/>
        <pt x="398" y="603" on="1"/>
        <pt x="398" y="678" on="0"/>
        <pt x="293" y="678" on="1"/>
        <pt x="252" y="678" on="0"/>
        <pt x="230" y="661" on="1"/>
        <pt x="209" y="632" on="0"/>
        <pt x="209" y="538" on="1"/>
        <pt x="209" y="0" on="1"/>
        <pt x="98" y="0" on="1"/>
        <pt x="98" y="7" on="1"/>
        <pt x="115" y="57" on="0"/>
        <pt x="115" y="170" on="1"/>
        <pt x="115" y="402" on="1"/>
        <pt x="35" y="399" on="1"/>
      </contour>
    </TTGlyph>
    <TTGlyph name="grave" xMin="132" yMin="530" xMax="342" yMax="732">
      <contour>
        <pt x="319" y="530" on="1"/>
        <pt x="230" y="579" on="0"/>
        <pt x="132" y="674" on="1"/>
        <pt x="157" y="715" on="0"/>
        <pt x="200" y="732" on="1"/>
        <pt x="254" y="636" on="0"/>
        <pt x="342" y="556" on="1"/>
      </contour>
    </TTGlyph>
    <TTGlyph name="grave.cap" xMin="116" yMin="751" xMax="355" yMax="887">
      <contour>
        <pt x="355" y="784" on="1"/>
        <pt x="345" y="751" on="1"/>
        <pt x="231" y="760" on="0"/>
        <pt x="116" y="806" on="1"/>
        <pt x="122" y="852" on="0"/>
        <pt x="153" y="887" on="1"/>
        <pt x="240" y="821" on="0"/>
      </contour>
    </TTGlyph>
    <TTGlyph name="greater" xMin="9" yMin="45" xMax="525" yMax="600">
      <contour>
        <pt x="9" y="45" on="1"/>
        <pt x="9" y="115" on="1"/>
        <pt x="443" y="322" on="1"/>
        <pt x="9" y="529" on="1"/>
        <pt x="9" y="600" on="1"/>
        <pt x="525" y="357" on="1"/>
        <pt x="525" y="287" on="1"/>
      </contour>
    </TTGlyph>
    <TTGlyph name="guillemotleft" xMin="63" yMin="85" xMax="512" yMax="456">
      <contour>
        <pt x="67" y="268" on="1"/>
        <pt x="63" y="283" on="1"/>
        <pt x="112" y="314" on="0"/>
        <pt x="120" y="321" on="1"/>
        <pt x="269" y="456" on="1"/>
        <pt x="306" y="421" on="1"/>
        <pt x="286" y="398" on="1"/>
        <pt x="169" y="272" on="1"/>
        <pt x="306" y="122" on="1"/>
        <pt x="268" y="85" on="1"/>
        <pt x="264" y="89" on="0"/>
        <pt x="256" y="98" on="1"/>
        <pt x="237" y="118" on="0"/>
        <pt x="227" y="126" on="1"/>
        <pt x="102" y="238" on="1"/>
      </contour>
      <contour>
        <pt x="273" y="268" on="1"/>
        <pt x="269" y="283" on="1"/>
        <pt x="318" y="314" on="0"/>
        <pt x="326" y="321" on="1"/>
        <pt x="475" y="456" on="1"/>
        <pt x="512" y="421" on="1"/>
        <pt x="492" y="398" on="1"/>
        <pt x="375" y="272" on="1"/>
        <pt x="512" y="122" on="1"/>
        <pt x="474" y="85" on="1"/>
        <pt x="470" y="89" on="0"/>
        <pt x="462" y="98" on="1"/>
        <pt x="443" y="118" on="0"/>
        <pt x="433" y="126" on="1"/>
        <pt x="308" y="238" on="1"/>
      </contour>
    </TTGlyph>
    <TTGlyph name="guillemotright" xMin="62" yMin="85" xMax="511" yMax="456">
      <contour>
        <pt x="511" y="283" on="1"/>
        <pt x="507" y="268" on="1"/>
        <pt x="472" y="238" on="1"/>
        <pt x="334" y="114" on="0"/>
        <pt x="310" y="89" on="0"/>
        <pt x="306" y="85" on="1"/>
        <pt x="268" y="122" on="1"/>
        <pt x="405" y="272" on="1"/>
        <pt x="288" y="398" on="1"/>
        <pt x="268" y="421" on="1"/>
        <pt x="305" y="456" on="1"/>
        <pt x="454" y="321" on="1"/>
        <pt x="462" y="314" on="0"/>
      </contour>
      <contour>
        <pt x="305" y="283" on="1"/>
        <pt x="301" y="268" on="1"/>
        <pt x="266" y="238" on="1"/>
        <pt x="128" y="114" on="0"/>
        <pt x="104" y="89" on="0"/>
        <pt x="100" y="85" on="1"/>
        <pt x="62" y="122" on="1"/>
        <pt x="199" y="272" on="1"/>
        <pt x="82" y="398" on="1"/>
        <pt x="62" y="421" on="1"/>
        <pt x="99" y="456" on="1"/>
        <pt x="248" y="321" on="1"/>
        <pt x="256" y="314" on="0"/>
      </contour>
    </TTGlyph>
    <TTGlyph name="guilsinglleft" xMin="57" yMin="80" xMax="300" yMax="451">
      <contour>
        <pt x="61" y="263" on="1"/>
        <pt x="57" y="278" on="1"/>
        <pt x="106" y="309" on="0"/>
        <pt x="114" y="316" on="1"/>
        <pt x="263" y="451" on="1"/>
        <pt x="300" y="416" on="1"/>
        <pt x="280" y="393" on="1"/>
        <pt x="163" y="267" on="1"/>
        <pt x="300" y="117" on="1"/>
        <pt x="262" y="80" on="1"/>
        <pt x="221" y="121" on="1"/>
        <pt x="96" y="233" on="1"/>
      </contour>
    </TTGlyph>
    <TTGlyph name="guilsinglright" xMin="56" yMin="80" xMax="299" yMax="451">
      <contour>
        <pt x="299" y="278" on="1"/>
        <pt x="295" y="263" on="1"/>
        <pt x="260" y="233" on="1"/>
        <pt x="135" y="121" on="1"/>
        <pt x="94" y="80" on="1"/>
        <pt x="56" y="117" on="1"/>
        <pt x="193" y="267" on="1"/>
        <pt x="76" y="393" on="1"/>
        <pt x="56" y="416" on="1"/>
        <pt x="93" y="451" on="1"/>
        <pt x="242" y="316" on="1"/>
        <pt x="250" y="309" on="0"/>
      </contour>
    </TTGlyph>
    <TTGlyph name="h" xMin="50" yMin="0" xMax="544" yMax="747">
      <contour>
        <pt x="187" y="545" on="1"/>
        <pt x="187" y="408" on="1"/>
        <pt x="225" y="437" on="0"/>
        <pt x="266" y="465" on="0"/>
        <pt x="331" y="492" on="0"/>
        <pt x="360" y="492" on="1"/>
        <pt x="434" y="492" on="0"/>
        <pt x="514" y="400" on="0"/>
        <pt x="514" y="314" on="1"/>
        <pt x="514" y="170" on="1"/>
        <pt x="514" y="75" on="0"/>
        <pt x="544" y="7" on="1"/>
        <pt x="544" y="0" on="1"/>
        <pt x="403" y="0" on="1"/>
        <pt x="403" y="7" on="1"/>
        <pt x="420" y="57" on="0"/>
        <pt x="420" y="140" on="1"/>
        <pt x="420" y="293" on="1"/>
        <pt x="420" y="351" on="0"/>
        <pt x="385" y="410" on="0"/>
        <pt x="274" y="410" on="0"/>
        <pt x="190" y="359" on="1"/>
        <pt x="190" y="170" on="1"/>
        <pt x="190" y="73" on="0"/>
        <pt x="219" y="7" on="1"/>
        <pt x="219" y="0" on="1"/>
        <pt x="79" y="0" on="1"/>
        <pt x="79" y="7" on="1"/>
        <pt x="96" y="57" on="0"/>
        <pt x="96" y="140" on="1"/>
        <pt x="96" y="587" on="1"/>
        <pt x="96" y="667" on="0"/>
        <pt x="50" y="711" on="1"/>
        <pt x="50" y="723" on="1"/>
        <pt x="184" y="747" on="1"/>
        <pt x="190" y="737" on="1"/>
        <pt x="187" y="708" on="0"/>
      </contour>
    </TTGlyph>
    <TTGlyph name="hbar" xMin="-39" yMin="0" xMax="544" yMax="747">
      <contour>
        <pt x="-8" y="618" on="1"/>
        <pt x="21" y="616" on="0"/>
        <pt x="108" y="616" on="1"/>
        <pt x="224" y="616" on="0"/>
        <pt x="340" y="620" on="1"/>
        <pt x="314" y="559" on="1"/>
        <pt x="307" y="559" on="1"/>
        <pt x="231" y="565" on="0"/>
        <pt x="109" y="565" on="1"/>
        <pt x="-39" y="559" on="1"/>
        <pt x="-15" y="618" on="1"/>
      </contour>
      <contour>
        <pt x="187" y="545" on="1"/>
        <pt x="187" y="408" on="1"/>
        <pt x="225" y="437" on="0"/>
        <pt x="266" y="465" on="0"/>
        <pt x="331" y="492" on="0"/>
        <pt x="360" y="492" on="1"/>
        <pt x="434" y="492" on="0"/>
        <pt x="514" y="400" on="0"/>
        <pt x="514" y="314" on="1"/>
        <pt x="514" y="170" on="1"/>
        <pt x="514" y="75" on="0"/>
        <pt x="544" y="7" on="1"/>
        <pt x="544" y="0" on="1"/>
        <pt x="403" y="0" on="1"/>
        <pt x="403" y="7" on="1"/>
        <pt x="420" y="57" on="0"/>
        <pt x="420" y="140" on="1"/>
        <pt x="420" y="293" on="1"/>
        <pt x="420" y="351" on="0"/>
        <pt x="385" y="410" on="0"/>
        <pt x="274" y="410" on="0"/>
        <pt x="190" y="359" on="1"/>
        <pt x="190" y="170" on="1"/>
        <pt x="190" y="73" on="0"/>
        <pt x="219" y="7" on="1"/>
        <pt x="219" y="0" on="1"/>
        <pt x="79" y="0" on="1"/>
        <pt x="79" y="7" on="1"/>
        <pt x="96" y="57" on="0"/>
        <pt x="96" y="140" on="1"/>
        <pt x="96" y="587" on="1"/>
        <pt x="96" y="667" on="0"/>
        <pt x="50" y="711" on="1"/>
        <pt x="50" y="723" on="1"/>
        <pt x="184" y="747" on="1"/>
        <pt x="190" y="737" on="1"/>
        <pt x="187" y="708" on="0"/>
      </contour>
    </TTGlyph>
    <TTGlyph name="hyphen" xMin="1" yMin="241" xMax="353" yMax="323">
      <contour>
        <pt x="38" y="323" on="1"/>
        <pt x="78" y="314" on="0"/>
        <pt x="128" y="314" on="1"/>
        <pt x="214" y="315" on="1"/>
        <pt x="236" y="315" on="0"/>
        <pt x="329" y="319" on="0"/>
        <pt x="353" y="319" on="1"/>
        <pt x="323" y="241" on="1"/>
        <pt x="316" y="241" on="1"/>
        <pt x="248" y="250" on="0"/>
        <pt x="135" y="250" on="1"/>
        <pt x="1" y="244" on="1"/>
        <pt x="31" y="323" on="1"/>
      </contour>
    </TTGlyph>
</ttFont>
